G75*
%MOIN*%
%OFA0B0*%
%FSLAX24Y24*%
%IPPOS*%
%LPD*%
%AMOC8*
5,1,8,0,0,1.08239X$1,22.5*
%
%ADD10R,0.0572X0.0651*%
%ADD11OC8,0.0690*%
%ADD12C,0.0690*%
%ADD13C,0.0800*%
%ADD14C,0.1340*%
%ADD15OC8,0.0800*%
%ADD16R,0.0940X0.0540*%
%ADD17R,0.0926X0.1477*%
%ADD18R,0.0651X0.0572*%
%ADD19OC8,0.0330*%
D10*
X013878Y008150D03*
X014626Y008150D03*
X014626Y009650D03*
X013878Y009650D03*
X013878Y011150D03*
X014626Y011150D03*
X014626Y016650D03*
X013878Y016650D03*
X013878Y018150D03*
X014626Y018150D03*
D11*
X013359Y013650D03*
X023252Y014150D03*
D12*
X022252Y014150D03*
X013359Y012650D03*
D13*
X010252Y015400D03*
X011252Y015900D03*
X010252Y016400D03*
X011252Y016900D03*
X010252Y017400D03*
X011252Y017900D03*
X011252Y020150D03*
X010252Y020150D03*
X012252Y020150D03*
X013252Y020150D03*
X014252Y020150D03*
X015252Y020150D03*
X016252Y020150D03*
X017252Y020150D03*
X018252Y020150D03*
X019252Y020150D03*
X020752Y020150D03*
X021752Y020150D03*
X022752Y020150D03*
X023752Y020150D03*
X024752Y020150D03*
X025752Y020150D03*
X026752Y020150D03*
X027752Y020150D03*
X025752Y017900D03*
X024752Y017400D03*
X025752Y016900D03*
X024752Y016400D03*
X025752Y015900D03*
X024752Y015400D03*
X025752Y011900D03*
X024752Y011400D03*
X025752Y010900D03*
X024752Y010400D03*
X025752Y009900D03*
X024752Y009400D03*
X025752Y005900D03*
X024752Y005400D03*
X025752Y004900D03*
X024752Y004400D03*
X025752Y003900D03*
X024752Y003400D03*
X024752Y001150D03*
X023752Y001150D03*
X022752Y001150D03*
X020752Y001150D03*
X019752Y001150D03*
X018752Y001150D03*
X017752Y001150D03*
X016752Y001150D03*
X015752Y001150D03*
X014752Y001150D03*
X013752Y001150D03*
X010252Y003400D03*
X011252Y003900D03*
X010252Y004400D03*
X011252Y004900D03*
X010252Y005400D03*
X011252Y005900D03*
X025752Y001150D03*
X026752Y001150D03*
X027752Y001150D03*
D14*
X007752Y002650D03*
X007752Y006650D03*
X007752Y014650D03*
X007752Y018650D03*
X028252Y018650D03*
X028252Y014650D03*
X028252Y012650D03*
X028252Y008650D03*
X028252Y006650D03*
X028252Y002650D03*
D15*
X020252Y014150D03*
X019252Y014150D03*
X018252Y014150D03*
X017252Y014150D03*
X017252Y015150D03*
X018252Y015150D03*
X019252Y015150D03*
X020252Y015150D03*
D16*
X010472Y013060D03*
X010472Y012150D03*
X010472Y011240D03*
X010472Y010060D03*
X010472Y009150D03*
X010472Y008240D03*
D17*
X008032Y009150D03*
X008032Y012150D03*
D18*
X016752Y003024D03*
X016752Y002276D03*
D19*
X017752Y003650D03*
X016752Y004650D03*
X015752Y008150D03*
X015252Y009650D03*
X015252Y011150D03*
X013252Y011150D03*
X011752Y011650D03*
X011669Y011150D03*
X011752Y012150D03*
X011752Y012650D03*
X009252Y012650D03*
X009252Y012150D03*
X009252Y011650D03*
X009252Y009650D03*
X009252Y009150D03*
X009252Y008650D03*
X010252Y007650D03*
X011752Y008650D03*
X011752Y009150D03*
X011752Y009650D03*
X014877Y017400D03*
X016752Y018150D03*
X017252Y018150D03*
M02*
