G75*
%MOIN*%
%OFA0B0*%
%FSLAX24Y24*%
%IPPOS*%
%LPD*%
%AMOC8*
5,1,8,0,0,1.08239X$1,22.5*
%
%ADD10OC8,0.0630*%
%ADD11C,0.0630*%
%ADD12C,0.0740*%
%ADD13OC8,0.0740*%
%ADD14C,0.0100*%
%ADD15OC8,0.0270*%
%ADD16C,0.0060*%
%ADD17C,0.0250*%
D10*
X013359Y013650D03*
X023252Y014150D03*
D11*
X022252Y014150D03*
X013359Y012650D03*
D12*
X010252Y015400D03*
X011252Y015900D03*
X010252Y016400D03*
X011252Y016900D03*
X010252Y017400D03*
X011252Y017900D03*
X011252Y020150D03*
X010252Y020150D03*
X012252Y020150D03*
X013252Y020150D03*
X014252Y020150D03*
X015252Y020150D03*
X016252Y020150D03*
X017252Y020150D03*
X018252Y020150D03*
X019252Y020150D03*
X020752Y020150D03*
X021752Y020150D03*
X022752Y020150D03*
X023752Y020150D03*
X024752Y020150D03*
X025752Y020150D03*
X026752Y020150D03*
X027752Y020150D03*
X025752Y017900D03*
X024752Y017400D03*
X025752Y016900D03*
X024752Y016400D03*
X025752Y015900D03*
X024752Y015400D03*
X025752Y011900D03*
X024752Y011400D03*
X025752Y010900D03*
X024752Y010400D03*
X025752Y009900D03*
X024752Y009400D03*
X025752Y005900D03*
X024752Y005400D03*
X025752Y004900D03*
X024752Y004400D03*
X025752Y003900D03*
X024752Y003400D03*
X024752Y001150D03*
X023752Y001150D03*
X022752Y001150D03*
X020752Y001150D03*
X019752Y001150D03*
X018752Y001150D03*
X017752Y001150D03*
X016752Y001150D03*
X015752Y001150D03*
X014752Y001150D03*
X013752Y001150D03*
X010252Y003400D03*
X011252Y003900D03*
X010252Y004400D03*
X011252Y004900D03*
X010252Y005400D03*
X011252Y005900D03*
X025752Y001150D03*
X026752Y001150D03*
X027752Y001150D03*
D13*
X020252Y014150D03*
X019252Y014150D03*
X018252Y014150D03*
X017252Y014150D03*
X017252Y015150D03*
X018252Y015150D03*
X019252Y015150D03*
X020252Y015150D03*
D14*
X006752Y019650D02*
X006752Y001650D01*
X007752Y000650D01*
X018608Y000650D01*
X018553Y000668D01*
X018480Y000705D01*
X018414Y000753D01*
X018356Y000811D01*
X018308Y000877D01*
X018270Y000950D01*
X018245Y001028D01*
X018234Y001100D01*
X018702Y001100D01*
X018702Y001200D01*
X018234Y001200D01*
X018245Y001272D01*
X018270Y001350D01*
X018308Y001423D01*
X018356Y001489D01*
X018414Y001547D01*
X018480Y001595D01*
X018553Y001632D01*
X018631Y001657D01*
X018702Y001669D01*
X018702Y001200D01*
X018802Y001200D01*
X018802Y001669D01*
X018874Y001657D01*
X018952Y001632D01*
X019025Y001595D01*
X019091Y001547D01*
X019149Y001489D01*
X019197Y001423D01*
X019234Y001350D01*
X019252Y001294D01*
X019270Y001350D01*
X019308Y001423D01*
X019356Y001489D01*
X019414Y001547D01*
X019480Y001595D01*
X019553Y001632D01*
X019631Y001657D01*
X019702Y001669D01*
X019702Y001200D01*
X019702Y001100D01*
X019234Y001100D01*
X018802Y001100D01*
X018802Y001200D01*
X019702Y001200D01*
X019802Y001200D01*
X019802Y001669D01*
X019874Y001657D01*
X019952Y001632D01*
X020025Y001595D01*
X020091Y001547D01*
X020149Y001489D01*
X020197Y001423D01*
X020234Y001350D01*
X020260Y001272D01*
X020271Y001200D01*
X019802Y001200D01*
X019802Y001100D01*
X020271Y001100D01*
X020260Y001028D01*
X020234Y000950D01*
X020197Y000877D01*
X020149Y000811D01*
X020091Y000753D01*
X020025Y000705D01*
X019952Y000668D01*
X019896Y000650D01*
X028252Y000650D01*
X028252Y001650D01*
X028412Y001810D01*
X028085Y001810D01*
X027777Y001938D01*
X027540Y002174D01*
X027412Y002483D01*
X027412Y002817D01*
X027540Y003126D01*
X027777Y003362D01*
X028085Y003490D01*
X028419Y003490D01*
X028728Y003362D01*
X028964Y003126D01*
X029092Y002817D01*
X029092Y002490D01*
X029252Y002650D01*
X029252Y019150D01*
X028232Y020170D01*
X028232Y020055D01*
X028159Y019878D01*
X028024Y019743D01*
X027848Y019670D01*
X027657Y019670D01*
X027480Y019743D01*
X027345Y019878D01*
X027272Y020055D01*
X027272Y020245D01*
X027345Y020422D01*
X027480Y020557D01*
X027657Y020630D01*
X027772Y020630D01*
X027752Y020650D01*
X013396Y020650D01*
X013452Y020632D01*
X013525Y020595D01*
X013591Y020547D01*
X013649Y020489D01*
X013697Y020423D01*
X013734Y020350D01*
X013760Y020272D01*
X013771Y020200D01*
X013302Y020200D01*
X013302Y020100D01*
X013302Y019631D01*
X013374Y019643D01*
X013452Y019668D01*
X013525Y019705D01*
X013591Y019753D01*
X013649Y019811D01*
X013697Y019877D01*
X013734Y019950D01*
X013760Y020028D01*
X013771Y020100D01*
X013302Y020100D01*
X013202Y020100D01*
X012734Y020100D01*
X012745Y020028D01*
X012770Y019950D01*
X012808Y019877D01*
X012856Y019811D01*
X012914Y019753D01*
X012980Y019705D01*
X013053Y019668D01*
X013131Y019643D01*
X013202Y019631D01*
X013202Y020100D01*
X013202Y020200D01*
X012734Y020200D01*
X012745Y020272D01*
X012770Y020350D01*
X012808Y020423D01*
X012856Y020489D01*
X012914Y020547D01*
X012980Y020595D01*
X013053Y020632D01*
X013108Y020650D01*
X007752Y020650D01*
X006752Y019650D01*
X006755Y019653D02*
X013099Y019653D01*
X013202Y019653D02*
X013302Y019653D01*
X013302Y019752D02*
X013202Y019752D01*
X013202Y019850D02*
X013302Y019850D01*
X013302Y019949D02*
X013202Y019949D01*
X013202Y020047D02*
X013302Y020047D01*
X013302Y020146D02*
X013772Y020146D01*
X013772Y020055D02*
X013772Y020245D01*
X013845Y020422D01*
X013980Y020557D01*
X014157Y020630D01*
X014348Y020630D01*
X014524Y020557D01*
X014659Y020422D01*
X014732Y020245D01*
X014732Y020055D01*
X014678Y019923D01*
X015310Y019290D01*
X015392Y019208D01*
X015392Y015208D01*
X017310Y013290D01*
X018194Y013290D01*
X018612Y013708D01*
X018612Y013831D01*
X018451Y013670D01*
X018054Y013670D01*
X017772Y013951D01*
X017772Y014349D01*
X017814Y014390D01*
X017612Y014592D01*
X017612Y014831D01*
X017451Y014670D01*
X017054Y014670D01*
X016772Y014951D01*
X016772Y015349D01*
X016814Y015390D01*
X015612Y016592D01*
X015612Y019592D01*
X015480Y019725D01*
X015348Y019670D01*
X015157Y019670D01*
X014980Y019743D01*
X014845Y019878D01*
X014772Y020055D01*
X014772Y020245D01*
X014845Y020422D01*
X014980Y020557D01*
X015157Y020630D01*
X015348Y020630D01*
X015524Y020557D01*
X015659Y020422D01*
X015732Y020245D01*
X015732Y020055D01*
X015678Y019923D01*
X015810Y019790D01*
X015892Y019708D01*
X015892Y016708D01*
X017012Y015588D01*
X017054Y015630D01*
X017451Y015630D01*
X017612Y015469D01*
X017612Y015592D01*
X017194Y016010D01*
X016694Y016010D01*
X016612Y016092D01*
X016112Y016592D01*
X016112Y019688D01*
X015980Y019743D01*
X015845Y019878D01*
X015772Y020055D01*
X015772Y020245D01*
X015845Y020422D01*
X015980Y020557D01*
X016157Y020630D01*
X016348Y020630D01*
X016524Y020557D01*
X016659Y020422D01*
X016732Y020245D01*
X016732Y020055D01*
X016659Y019878D01*
X016524Y019743D01*
X016392Y019688D01*
X016392Y016708D01*
X016810Y016290D01*
X017310Y016290D01*
X017392Y016208D01*
X017392Y016208D01*
X017810Y015790D01*
X017810Y015790D01*
X017892Y015708D01*
X017892Y015469D01*
X018054Y015630D01*
X018451Y015630D01*
X018732Y015349D01*
X018732Y014951D01*
X018691Y014910D01*
X018810Y014790D01*
X018892Y014708D01*
X018892Y014469D01*
X019054Y014630D01*
X019451Y014630D01*
X019732Y014349D01*
X019732Y013951D01*
X019451Y013670D01*
X019054Y013670D01*
X018892Y013831D01*
X018892Y013592D01*
X018392Y013092D01*
X018310Y013010D01*
X017194Y013010D01*
X017112Y013092D01*
X017112Y013092D01*
X015112Y015092D01*
X015112Y019092D01*
X014480Y019725D01*
X014348Y019670D01*
X014157Y019670D01*
X013980Y019743D01*
X013845Y019878D01*
X013772Y020055D01*
X013775Y020047D02*
X013763Y020047D01*
X013733Y019949D02*
X013816Y019949D01*
X013873Y019850D02*
X013677Y019850D01*
X013589Y019752D02*
X013972Y019752D01*
X013772Y020244D02*
X013764Y020244D01*
X013737Y020343D02*
X013813Y020343D01*
X013865Y020441D02*
X013684Y020441D01*
X013598Y020540D02*
X013963Y020540D01*
X013433Y020638D02*
X027764Y020638D01*
X027463Y020540D02*
X027042Y020540D01*
X027024Y020557D02*
X026848Y020630D01*
X026657Y020630D01*
X026480Y020557D01*
X026345Y020422D01*
X026272Y020245D01*
X026272Y020055D01*
X026345Y019878D01*
X026480Y019743D01*
X026657Y019670D01*
X026848Y019670D01*
X027024Y019743D01*
X027159Y019878D01*
X027232Y020055D01*
X027232Y020245D01*
X027159Y020422D01*
X027024Y020557D01*
X027140Y020441D02*
X027365Y020441D01*
X027313Y020343D02*
X027192Y020343D01*
X027232Y020244D02*
X027272Y020244D01*
X027272Y020146D02*
X027232Y020146D01*
X027229Y020047D02*
X027275Y020047D01*
X027316Y019949D02*
X027188Y019949D01*
X027131Y019850D02*
X027373Y019850D01*
X027472Y019752D02*
X027033Y019752D01*
X026472Y019752D02*
X026033Y019752D01*
X026024Y019743D02*
X026159Y019878D01*
X026232Y020055D01*
X026232Y020245D01*
X026159Y020422D01*
X026024Y020557D01*
X025848Y020630D01*
X025657Y020630D01*
X025480Y020557D01*
X025345Y020422D01*
X025272Y020245D01*
X025272Y020055D01*
X025345Y019878D01*
X025480Y019743D01*
X025599Y019694D01*
X024694Y018790D01*
X017694Y018790D01*
X017299Y018395D01*
X017195Y018395D01*
X017810Y019010D01*
X024310Y019010D01*
X024392Y019092D01*
X024892Y019592D01*
X024892Y019688D01*
X025024Y019743D01*
X025159Y019878D01*
X025232Y020055D01*
X025232Y020245D01*
X025159Y020422D01*
X025024Y020557D01*
X024848Y020630D01*
X024657Y020630D01*
X024480Y020557D01*
X024345Y020422D01*
X024272Y020245D01*
X024272Y020055D01*
X024345Y019878D01*
X024480Y019743D01*
X024599Y019694D01*
X024194Y019290D01*
X017694Y019290D01*
X016799Y018395D01*
X016651Y018395D01*
X016507Y018251D01*
X016507Y018049D01*
X016651Y017905D01*
X016854Y017905D01*
X016997Y018049D01*
X016997Y018197D01*
X017007Y018207D01*
X017007Y018049D01*
X017151Y017905D01*
X017354Y017905D01*
X017497Y018049D01*
X017497Y018197D01*
X017810Y018510D01*
X024810Y018510D01*
X024892Y018592D01*
X025892Y019592D01*
X025892Y019688D01*
X026024Y019743D01*
X026131Y019850D02*
X026373Y019850D01*
X026316Y019949D02*
X026188Y019949D01*
X026229Y020047D02*
X026275Y020047D01*
X026272Y020146D02*
X026232Y020146D01*
X026232Y020244D02*
X026272Y020244D01*
X026313Y020343D02*
X026192Y020343D01*
X026140Y020441D02*
X026365Y020441D01*
X026463Y020540D02*
X026042Y020540D01*
X025463Y020540D02*
X025042Y020540D01*
X025140Y020441D02*
X025365Y020441D01*
X025313Y020343D02*
X025192Y020343D01*
X025232Y020244D02*
X025272Y020244D01*
X025272Y020146D02*
X025232Y020146D01*
X025229Y020047D02*
X025275Y020047D01*
X025316Y019949D02*
X025188Y019949D01*
X025131Y019850D02*
X025373Y019850D01*
X025472Y019752D02*
X025033Y019752D01*
X024892Y019653D02*
X025557Y019653D01*
X025459Y019555D02*
X024855Y019555D01*
X024756Y019456D02*
X025360Y019456D01*
X025262Y019358D02*
X024658Y019358D01*
X024559Y019259D02*
X025163Y019259D01*
X025065Y019161D02*
X024461Y019161D01*
X024362Y019062D02*
X024966Y019062D01*
X024868Y018964D02*
X017764Y018964D01*
X017665Y018865D02*
X024769Y018865D01*
X024968Y018668D02*
X027412Y018668D01*
X027412Y018570D02*
X024870Y018570D01*
X025067Y018767D02*
X027412Y018767D01*
X027412Y018817D02*
X027412Y018483D01*
X027540Y018174D01*
X027777Y017938D01*
X028085Y017810D01*
X028419Y017810D01*
X028728Y017938D01*
X028964Y018174D01*
X029092Y018483D01*
X029092Y018817D01*
X028964Y019126D01*
X028728Y019362D01*
X028419Y019490D01*
X028085Y019490D01*
X027777Y019362D01*
X027540Y019126D01*
X027412Y018817D01*
X027432Y018865D02*
X025165Y018865D01*
X025264Y018964D02*
X027473Y018964D01*
X027514Y019062D02*
X025362Y019062D01*
X025461Y019161D02*
X027575Y019161D01*
X027673Y019259D02*
X025559Y019259D01*
X025658Y019358D02*
X027772Y019358D01*
X028003Y019456D02*
X025756Y019456D01*
X025855Y019555D02*
X028848Y019555D01*
X028749Y019653D02*
X025892Y019653D01*
X024557Y019653D02*
X016392Y019653D01*
X016392Y019555D02*
X024459Y019555D01*
X024360Y019456D02*
X016392Y019456D01*
X016392Y019358D02*
X024262Y019358D01*
X024024Y019743D02*
X023848Y019670D01*
X023657Y019670D01*
X023480Y019743D01*
X023345Y019878D01*
X023272Y020055D01*
X023272Y020245D01*
X023345Y020422D01*
X023480Y020557D01*
X023657Y020630D01*
X023848Y020630D01*
X024024Y020557D01*
X024159Y020422D01*
X024232Y020245D01*
X024232Y020055D01*
X024159Y019878D01*
X024024Y019743D01*
X024033Y019752D02*
X024472Y019752D01*
X024373Y019850D02*
X024131Y019850D01*
X024188Y019949D02*
X024316Y019949D01*
X024275Y020047D02*
X024229Y020047D01*
X024232Y020146D02*
X024272Y020146D01*
X024272Y020244D02*
X024232Y020244D01*
X024192Y020343D02*
X024313Y020343D01*
X024365Y020441D02*
X024140Y020441D01*
X024042Y020540D02*
X024463Y020540D01*
X023463Y020540D02*
X023042Y020540D01*
X023024Y020557D02*
X022848Y020630D01*
X022657Y020630D01*
X022480Y020557D01*
X022345Y020422D01*
X022272Y020245D01*
X022272Y020055D01*
X022345Y019878D01*
X022480Y019743D01*
X022657Y019670D01*
X022848Y019670D01*
X023024Y019743D01*
X023159Y019878D01*
X023232Y020055D01*
X023232Y020245D01*
X023159Y020422D01*
X023024Y020557D01*
X023140Y020441D02*
X023365Y020441D01*
X023313Y020343D02*
X023192Y020343D01*
X023232Y020244D02*
X023272Y020244D01*
X023272Y020146D02*
X023232Y020146D01*
X023229Y020047D02*
X023275Y020047D01*
X023316Y019949D02*
X023188Y019949D01*
X023131Y019850D02*
X023373Y019850D01*
X023472Y019752D02*
X023033Y019752D01*
X022472Y019752D02*
X022033Y019752D01*
X022024Y019743D02*
X022159Y019878D01*
X022232Y020055D01*
X022232Y020245D01*
X022159Y020422D01*
X022024Y020557D01*
X021848Y020630D01*
X021657Y020630D01*
X021480Y020557D01*
X021345Y020422D01*
X021272Y020245D01*
X021272Y020055D01*
X021345Y019878D01*
X021480Y019743D01*
X021657Y019670D01*
X021848Y019670D01*
X022024Y019743D01*
X022131Y019850D02*
X022373Y019850D01*
X022316Y019949D02*
X022188Y019949D01*
X022229Y020047D02*
X022275Y020047D01*
X022272Y020146D02*
X022232Y020146D01*
X022232Y020244D02*
X022272Y020244D01*
X022313Y020343D02*
X022192Y020343D01*
X022140Y020441D02*
X022365Y020441D01*
X022463Y020540D02*
X022042Y020540D01*
X021463Y020540D02*
X021042Y020540D01*
X021024Y020557D02*
X020848Y020630D01*
X020657Y020630D01*
X020480Y020557D01*
X020345Y020422D01*
X020272Y020245D01*
X020272Y020055D01*
X020345Y019878D01*
X020480Y019743D01*
X020657Y019670D01*
X020848Y019670D01*
X021024Y019743D01*
X021159Y019878D01*
X021232Y020055D01*
X021232Y020245D01*
X021159Y020422D01*
X021024Y020557D01*
X021140Y020441D02*
X021365Y020441D01*
X021313Y020343D02*
X021192Y020343D01*
X021232Y020244D02*
X021272Y020244D01*
X021272Y020146D02*
X021232Y020146D01*
X021229Y020047D02*
X021275Y020047D01*
X021316Y019949D02*
X021188Y019949D01*
X021131Y019850D02*
X021373Y019850D01*
X021472Y019752D02*
X021033Y019752D01*
X020472Y019752D02*
X019533Y019752D01*
X019524Y019743D02*
X019659Y019878D01*
X019732Y020055D01*
X019732Y020245D01*
X019659Y020422D01*
X019524Y020557D01*
X019348Y020630D01*
X019157Y020630D01*
X018980Y020557D01*
X018845Y020422D01*
X018772Y020245D01*
X018772Y020055D01*
X018845Y019878D01*
X018980Y019743D01*
X019157Y019670D01*
X019348Y019670D01*
X019524Y019743D01*
X019631Y019850D02*
X020373Y019850D01*
X020316Y019949D02*
X019688Y019949D01*
X019729Y020047D02*
X020275Y020047D01*
X020272Y020146D02*
X019732Y020146D01*
X019732Y020244D02*
X020272Y020244D01*
X020313Y020343D02*
X019692Y020343D01*
X019640Y020441D02*
X020365Y020441D01*
X020463Y020540D02*
X019542Y020540D01*
X018963Y020540D02*
X018542Y020540D01*
X018524Y020557D02*
X018348Y020630D01*
X018157Y020630D01*
X017980Y020557D01*
X017845Y020422D01*
X017772Y020245D01*
X017772Y020055D01*
X017845Y019878D01*
X017980Y019743D01*
X018157Y019670D01*
X018348Y019670D01*
X018524Y019743D01*
X018659Y019878D01*
X018732Y020055D01*
X018732Y020245D01*
X018659Y020422D01*
X018524Y020557D01*
X018640Y020441D02*
X018865Y020441D01*
X018813Y020343D02*
X018692Y020343D01*
X018732Y020244D02*
X018772Y020244D01*
X018772Y020146D02*
X018732Y020146D01*
X018729Y020047D02*
X018775Y020047D01*
X018816Y019949D02*
X018688Y019949D01*
X018631Y019850D02*
X018873Y019850D01*
X018972Y019752D02*
X018533Y019752D01*
X017972Y019752D02*
X017533Y019752D01*
X017524Y019743D02*
X017659Y019878D01*
X017732Y020055D01*
X017732Y020245D01*
X017659Y020422D01*
X017524Y020557D01*
X017348Y020630D01*
X017157Y020630D01*
X016980Y020557D01*
X016845Y020422D01*
X016772Y020245D01*
X016772Y020055D01*
X016845Y019878D01*
X016980Y019743D01*
X017157Y019670D01*
X017348Y019670D01*
X017524Y019743D01*
X017631Y019850D02*
X017873Y019850D01*
X017816Y019949D02*
X017688Y019949D01*
X017729Y020047D02*
X017775Y020047D01*
X017772Y020146D02*
X017732Y020146D01*
X017732Y020244D02*
X017772Y020244D01*
X017813Y020343D02*
X017692Y020343D01*
X017640Y020441D02*
X017865Y020441D01*
X017963Y020540D02*
X017542Y020540D01*
X016963Y020540D02*
X016542Y020540D01*
X016640Y020441D02*
X016865Y020441D01*
X016813Y020343D02*
X016692Y020343D01*
X016732Y020244D02*
X016772Y020244D01*
X016772Y020146D02*
X016732Y020146D01*
X016729Y020047D02*
X016775Y020047D01*
X016816Y019949D02*
X016688Y019949D01*
X016631Y019850D02*
X016873Y019850D01*
X016972Y019752D02*
X016533Y019752D01*
X016112Y019653D02*
X015892Y019653D01*
X015892Y019555D02*
X016112Y019555D01*
X016112Y019456D02*
X015892Y019456D01*
X015892Y019358D02*
X016112Y019358D01*
X016112Y019259D02*
X015892Y019259D01*
X015892Y019161D02*
X016112Y019161D01*
X016112Y019062D02*
X015892Y019062D01*
X015892Y018964D02*
X016112Y018964D01*
X016112Y018865D02*
X015892Y018865D01*
X015892Y018767D02*
X016112Y018767D01*
X016112Y018668D02*
X015892Y018668D01*
X015892Y018570D02*
X016112Y018570D01*
X016112Y018471D02*
X015892Y018471D01*
X015892Y018373D02*
X016112Y018373D01*
X016112Y018274D02*
X015892Y018274D01*
X015892Y018176D02*
X016112Y018176D01*
X016112Y018077D02*
X015892Y018077D01*
X015892Y017979D02*
X016112Y017979D01*
X016112Y017880D02*
X015892Y017880D01*
X015892Y017782D02*
X016112Y017782D01*
X016112Y017683D02*
X015892Y017683D01*
X015892Y017585D02*
X016112Y017585D01*
X016112Y017486D02*
X015892Y017486D01*
X015892Y017388D02*
X016112Y017388D01*
X016112Y017289D02*
X015892Y017289D01*
X015892Y017191D02*
X016112Y017191D01*
X016112Y017092D02*
X015892Y017092D01*
X015892Y016994D02*
X016112Y016994D01*
X016112Y016895D02*
X015892Y016895D01*
X015892Y016797D02*
X016112Y016797D01*
X016112Y016698D02*
X015902Y016698D01*
X016001Y016600D02*
X016112Y016600D01*
X016099Y016501D02*
X016203Y016501D01*
X016198Y016403D02*
X016302Y016403D01*
X016296Y016304D02*
X016400Y016304D01*
X016395Y016206D02*
X016499Y016206D01*
X016493Y016107D02*
X016597Y016107D01*
X016592Y016009D02*
X017196Y016009D01*
X017294Y015910D02*
X016690Y015910D01*
X016789Y015812D02*
X017393Y015812D01*
X017491Y015713D02*
X016887Y015713D01*
X016986Y015615D02*
X017038Y015615D01*
X016787Y015418D02*
X015392Y015418D01*
X015392Y015516D02*
X016688Y015516D01*
X016590Y015615D02*
X015392Y015615D01*
X015392Y015713D02*
X016491Y015713D01*
X016393Y015812D02*
X015392Y015812D01*
X015392Y015910D02*
X016294Y015910D01*
X016196Y016009D02*
X015392Y016009D01*
X015392Y016107D02*
X016097Y016107D01*
X015999Y016206D02*
X015392Y016206D01*
X015392Y016304D02*
X015900Y016304D01*
X015802Y016403D02*
X015392Y016403D01*
X015392Y016501D02*
X015703Y016501D01*
X015612Y016600D02*
X015392Y016600D01*
X015392Y016698D02*
X015612Y016698D01*
X015612Y016797D02*
X015392Y016797D01*
X015392Y016895D02*
X015612Y016895D01*
X015612Y016994D02*
X015392Y016994D01*
X015392Y017092D02*
X015612Y017092D01*
X015612Y017191D02*
X015392Y017191D01*
X015392Y017289D02*
X015612Y017289D01*
X015612Y017388D02*
X015392Y017388D01*
X015392Y017486D02*
X015612Y017486D01*
X015612Y017585D02*
X015392Y017585D01*
X015392Y017683D02*
X015612Y017683D01*
X015612Y017782D02*
X015392Y017782D01*
X015392Y017880D02*
X015612Y017880D01*
X015612Y017979D02*
X015392Y017979D01*
X015392Y018077D02*
X015612Y018077D01*
X015612Y018176D02*
X015392Y018176D01*
X015392Y018274D02*
X015612Y018274D01*
X015612Y018373D02*
X015392Y018373D01*
X015392Y018471D02*
X015612Y018471D01*
X015612Y018570D02*
X015392Y018570D01*
X015392Y018668D02*
X015612Y018668D01*
X015612Y018767D02*
X015392Y018767D01*
X015392Y018865D02*
X015612Y018865D01*
X015612Y018964D02*
X015392Y018964D01*
X015392Y019062D02*
X015612Y019062D01*
X015612Y019161D02*
X015392Y019161D01*
X015341Y019259D02*
X015612Y019259D01*
X015612Y019358D02*
X015243Y019358D01*
X015144Y019456D02*
X015612Y019456D01*
X015612Y019555D02*
X015046Y019555D01*
X014947Y019653D02*
X015551Y019653D01*
X015750Y019850D02*
X015873Y019850D01*
X015849Y019752D02*
X015972Y019752D01*
X015816Y019949D02*
X015688Y019949D01*
X015729Y020047D02*
X015775Y020047D01*
X015772Y020146D02*
X015732Y020146D01*
X015732Y020244D02*
X015772Y020244D01*
X015813Y020343D02*
X015692Y020343D01*
X015640Y020441D02*
X015865Y020441D01*
X015963Y020540D02*
X015542Y020540D01*
X014963Y020540D02*
X014542Y020540D01*
X014640Y020441D02*
X014865Y020441D01*
X014813Y020343D02*
X014692Y020343D01*
X014732Y020244D02*
X014772Y020244D01*
X014772Y020146D02*
X014732Y020146D01*
X014729Y020047D02*
X014775Y020047D01*
X014816Y019949D02*
X014688Y019949D01*
X014750Y019850D02*
X014873Y019850D01*
X014849Y019752D02*
X014972Y019752D01*
X014650Y019555D02*
X006752Y019555D01*
X006752Y019456D02*
X007503Y019456D01*
X007585Y019490D02*
X007277Y019362D01*
X007040Y019126D01*
X006912Y018817D01*
X006912Y018483D01*
X007040Y018174D01*
X007277Y017938D01*
X007585Y017810D01*
X007919Y017810D01*
X008228Y017938D01*
X008464Y018174D01*
X008592Y018483D01*
X008592Y018817D01*
X008464Y019126D01*
X008228Y019362D01*
X007919Y019490D01*
X007585Y019490D01*
X007272Y019358D02*
X006752Y019358D01*
X006752Y019259D02*
X007173Y019259D01*
X007075Y019161D02*
X006752Y019161D01*
X006752Y019062D02*
X007014Y019062D01*
X006973Y018964D02*
X006752Y018964D01*
X006752Y018865D02*
X006932Y018865D01*
X006912Y018767D02*
X006752Y018767D01*
X006752Y018668D02*
X006912Y018668D01*
X006912Y018570D02*
X006752Y018570D01*
X006752Y018471D02*
X006917Y018471D01*
X006958Y018373D02*
X006752Y018373D01*
X006752Y018274D02*
X006999Y018274D01*
X007040Y018176D02*
X006752Y018176D01*
X006752Y018077D02*
X007137Y018077D01*
X007236Y017979D02*
X006752Y017979D01*
X006752Y017880D02*
X007416Y017880D01*
X006752Y017782D02*
X009899Y017782D01*
X009914Y017797D02*
X009856Y017739D01*
X009808Y017673D01*
X009770Y017600D01*
X009745Y017522D01*
X009734Y017450D01*
X010202Y017450D01*
X010202Y017350D01*
X009734Y017350D01*
X009745Y017278D01*
X009770Y017200D01*
X009808Y017127D01*
X009856Y017061D01*
X009914Y017003D01*
X009980Y016955D01*
X010053Y016918D01*
X010131Y016893D01*
X010202Y016881D01*
X010202Y017350D01*
X010302Y017350D01*
X010302Y016881D01*
X010374Y016893D01*
X010452Y016918D01*
X010525Y016955D01*
X010591Y017003D01*
X010649Y017061D01*
X010697Y017127D01*
X010734Y017200D01*
X010760Y017278D01*
X010771Y017350D01*
X010302Y017350D01*
X010302Y017450D01*
X010202Y017450D01*
X010202Y017919D01*
X010131Y017907D01*
X010053Y017882D01*
X009980Y017845D01*
X009914Y017797D01*
X009815Y017683D02*
X006752Y017683D01*
X006752Y017585D02*
X009766Y017585D01*
X009740Y017486D02*
X006752Y017486D01*
X006752Y017388D02*
X010202Y017388D01*
X010202Y017486D02*
X010302Y017486D01*
X010302Y017450D02*
X010302Y017919D01*
X010374Y017907D01*
X010452Y017882D01*
X010525Y017845D01*
X010591Y017797D01*
X010649Y017739D01*
X010697Y017673D01*
X010734Y017600D01*
X010760Y017522D01*
X010771Y017450D01*
X010302Y017450D01*
X010302Y017388D02*
X015112Y017388D01*
X015112Y017486D02*
X011507Y017486D01*
X011524Y017493D02*
X011659Y017628D01*
X011732Y017805D01*
X011732Y017995D01*
X011659Y018172D01*
X011524Y018307D01*
X011348Y018380D01*
X011157Y018380D01*
X010980Y018307D01*
X010845Y018172D01*
X010772Y017995D01*
X010772Y017805D01*
X010845Y017628D01*
X010980Y017493D01*
X011157Y017420D01*
X011348Y017420D01*
X011524Y017493D01*
X011616Y017585D02*
X015112Y017585D01*
X015112Y017683D02*
X011682Y017683D01*
X011723Y017782D02*
X015112Y017782D01*
X015112Y017880D02*
X011732Y017880D01*
X011732Y017979D02*
X015112Y017979D01*
X015112Y018077D02*
X011699Y018077D01*
X011656Y018176D02*
X015112Y018176D01*
X015112Y018274D02*
X011557Y018274D01*
X011366Y018373D02*
X015112Y018373D01*
X015112Y018471D02*
X008587Y018471D01*
X008592Y018570D02*
X015112Y018570D01*
X015112Y018668D02*
X008592Y018668D01*
X008592Y018767D02*
X015112Y018767D01*
X015112Y018865D02*
X008572Y018865D01*
X008532Y018964D02*
X015112Y018964D01*
X015112Y019062D02*
X008491Y019062D01*
X008430Y019161D02*
X015044Y019161D01*
X014945Y019259D02*
X008331Y019259D01*
X008233Y019358D02*
X014847Y019358D01*
X014748Y019456D02*
X008001Y019456D01*
X007149Y020047D02*
X009775Y020047D01*
X009772Y020055D02*
X009845Y019878D01*
X009980Y019743D01*
X010157Y019670D01*
X010348Y019670D01*
X010524Y019743D01*
X010659Y019878D01*
X010732Y020055D01*
X010732Y020245D01*
X010659Y020422D01*
X010524Y020557D01*
X010348Y020630D01*
X010157Y020630D01*
X009980Y020557D01*
X009845Y020422D01*
X009772Y020245D01*
X009772Y020055D01*
X009772Y020146D02*
X007248Y020146D01*
X007346Y020244D02*
X009772Y020244D01*
X009813Y020343D02*
X007445Y020343D01*
X007543Y020441D02*
X009865Y020441D01*
X009963Y020540D02*
X007642Y020540D01*
X007740Y020638D02*
X013072Y020638D01*
X012907Y020540D02*
X012542Y020540D01*
X012524Y020557D02*
X012348Y020630D01*
X012157Y020630D01*
X011980Y020557D01*
X011845Y020422D01*
X011772Y020245D01*
X011772Y020055D01*
X011845Y019878D01*
X011980Y019743D01*
X012157Y019670D01*
X012348Y019670D01*
X012524Y019743D01*
X012659Y019878D01*
X012732Y020055D01*
X012732Y020245D01*
X012659Y020422D01*
X012524Y020557D01*
X012640Y020441D02*
X012821Y020441D01*
X012768Y020343D02*
X012692Y020343D01*
X012732Y020244D02*
X012741Y020244D01*
X012732Y020146D02*
X013202Y020146D01*
X012742Y020047D02*
X012729Y020047D01*
X012688Y019949D02*
X012771Y019949D01*
X012828Y019850D02*
X012631Y019850D01*
X012533Y019752D02*
X012916Y019752D01*
X013406Y019653D02*
X014551Y019653D01*
X016392Y019259D02*
X017663Y019259D01*
X017565Y019161D02*
X016392Y019161D01*
X016392Y019062D02*
X017466Y019062D01*
X017368Y018964D02*
X016392Y018964D01*
X016392Y018865D02*
X017269Y018865D01*
X017171Y018767D02*
X016392Y018767D01*
X016392Y018668D02*
X017072Y018668D01*
X016974Y018570D02*
X016392Y018570D01*
X016392Y018471D02*
X016875Y018471D01*
X016628Y018373D02*
X016392Y018373D01*
X016392Y018274D02*
X016530Y018274D01*
X016507Y018176D02*
X016392Y018176D01*
X016392Y018077D02*
X016507Y018077D01*
X016577Y017979D02*
X016392Y017979D01*
X016392Y017880D02*
X025272Y017880D01*
X025272Y017805D02*
X025345Y017628D01*
X025480Y017493D01*
X025657Y017420D01*
X025848Y017420D01*
X026024Y017493D01*
X026159Y017628D01*
X026232Y017805D01*
X026232Y017995D01*
X026159Y018172D01*
X026024Y018307D01*
X025848Y018380D01*
X025657Y018380D01*
X025480Y018307D01*
X025345Y018172D01*
X025272Y017995D01*
X025272Y017805D01*
X025282Y017782D02*
X025050Y017782D01*
X025024Y017807D02*
X024848Y017880D01*
X024657Y017880D01*
X024480Y017807D01*
X024345Y017672D01*
X024272Y017495D01*
X024272Y017305D01*
X024345Y017128D01*
X024434Y017040D01*
X023444Y017040D01*
X022694Y016290D01*
X022612Y016208D01*
X022612Y014391D01*
X022493Y014510D01*
X022337Y014575D01*
X022168Y014575D01*
X022012Y014510D01*
X021892Y014391D01*
X021827Y014235D01*
X021827Y014065D01*
X021892Y013909D01*
X022012Y013790D01*
X022168Y013725D01*
X022337Y013725D01*
X022493Y013790D01*
X022612Y013909D01*
X022612Y013708D01*
X021194Y012290D01*
X016194Y012290D01*
X015299Y011395D01*
X015151Y011395D01*
X015007Y011251D01*
X015007Y011049D01*
X015151Y010905D01*
X015354Y010905D01*
X015497Y011049D01*
X015497Y011197D01*
X016310Y012010D01*
X021310Y012010D01*
X021392Y012092D01*
X022892Y013592D01*
X022892Y013852D01*
X023060Y013685D01*
X023222Y013685D01*
X023222Y014120D01*
X023282Y014120D01*
X023282Y013685D01*
X023445Y013685D01*
X023717Y013957D01*
X023717Y014120D01*
X023282Y014120D01*
X023282Y014180D01*
X023222Y014180D01*
X023222Y014615D01*
X023060Y014615D01*
X022892Y014448D01*
X022892Y016092D01*
X023560Y016760D01*
X024377Y016760D01*
X024356Y016739D01*
X024308Y016673D01*
X024270Y016600D01*
X024245Y016522D01*
X024234Y016450D01*
X024702Y016450D01*
X024702Y016350D01*
X024234Y016350D01*
X024245Y016278D01*
X024270Y016200D01*
X024308Y016127D01*
X024356Y016061D01*
X024414Y016003D01*
X024480Y015955D01*
X024553Y015918D01*
X024631Y015893D01*
X024702Y015881D01*
X024702Y016350D01*
X024802Y016350D01*
X024802Y015881D01*
X024874Y015893D01*
X024952Y015918D01*
X025025Y015955D01*
X025091Y016003D01*
X025149Y016061D01*
X025197Y016127D01*
X025234Y016200D01*
X025260Y016278D01*
X025271Y016350D01*
X024802Y016350D01*
X024802Y016450D01*
X025271Y016450D01*
X025260Y016522D01*
X025234Y016600D01*
X025197Y016673D01*
X025149Y016739D01*
X025128Y016760D01*
X025291Y016760D01*
X025345Y016628D01*
X025480Y016493D01*
X025657Y016420D01*
X025848Y016420D01*
X026024Y016493D01*
X026159Y016628D01*
X026232Y016805D01*
X026232Y016995D01*
X026159Y017172D01*
X026024Y017307D01*
X025848Y017380D01*
X025657Y017380D01*
X025480Y017307D01*
X025345Y017172D01*
X025291Y017040D01*
X025071Y017040D01*
X025159Y017128D01*
X025232Y017305D01*
X025232Y017495D01*
X025159Y017672D01*
X025024Y017807D01*
X025148Y017683D02*
X025323Y017683D01*
X025389Y017585D02*
X025195Y017585D01*
X025232Y017486D02*
X025497Y017486D01*
X025463Y017289D02*
X025226Y017289D01*
X025232Y017388D02*
X029252Y017388D01*
X029252Y017486D02*
X026007Y017486D01*
X026116Y017585D02*
X029252Y017585D01*
X029252Y017683D02*
X026182Y017683D01*
X026223Y017782D02*
X029252Y017782D01*
X029252Y017880D02*
X028589Y017880D01*
X028769Y017979D02*
X029252Y017979D01*
X029252Y018077D02*
X028867Y018077D01*
X028965Y018176D02*
X029252Y018176D01*
X029252Y018274D02*
X029006Y018274D01*
X029047Y018373D02*
X029252Y018373D01*
X029252Y018471D02*
X029087Y018471D01*
X029092Y018570D02*
X029252Y018570D01*
X029252Y018668D02*
X029092Y018668D01*
X029092Y018767D02*
X029252Y018767D01*
X029252Y018865D02*
X029072Y018865D01*
X029032Y018964D02*
X029252Y018964D01*
X029252Y019062D02*
X028991Y019062D01*
X028930Y019161D02*
X029242Y019161D01*
X029143Y019259D02*
X028831Y019259D01*
X028733Y019358D02*
X029045Y019358D01*
X028946Y019456D02*
X028501Y019456D01*
X028651Y019752D02*
X028033Y019752D01*
X028131Y019850D02*
X028552Y019850D01*
X028454Y019949D02*
X028188Y019949D01*
X028229Y020047D02*
X028355Y020047D01*
X028257Y020146D02*
X028232Y020146D01*
X027417Y018471D02*
X017771Y018471D01*
X017673Y018373D02*
X025639Y018373D01*
X025448Y018274D02*
X017574Y018274D01*
X017497Y018176D02*
X025349Y018176D01*
X025306Y018077D02*
X017497Y018077D01*
X017427Y017979D02*
X025272Y017979D01*
X025866Y018373D02*
X027458Y018373D01*
X027499Y018274D02*
X026057Y018274D01*
X026156Y018176D02*
X027540Y018176D01*
X027637Y018077D02*
X026199Y018077D01*
X026232Y017979D02*
X027736Y017979D01*
X027916Y017880D02*
X026232Y017880D01*
X026042Y017289D02*
X029252Y017289D01*
X029252Y017191D02*
X026141Y017191D01*
X026192Y017092D02*
X029252Y017092D01*
X029252Y016994D02*
X026232Y016994D01*
X026232Y016895D02*
X029252Y016895D01*
X029252Y016797D02*
X026229Y016797D01*
X026188Y016698D02*
X029252Y016698D01*
X029252Y016600D02*
X026131Y016600D01*
X026032Y016501D02*
X029252Y016501D01*
X029252Y016403D02*
X024802Y016403D01*
X024802Y016304D02*
X024702Y016304D01*
X024702Y016206D02*
X024802Y016206D01*
X024802Y016107D02*
X024702Y016107D01*
X024702Y016009D02*
X024802Y016009D01*
X024802Y015910D02*
X024702Y015910D01*
X024657Y015880D02*
X024480Y015807D01*
X024345Y015672D01*
X024272Y015495D01*
X024272Y015305D01*
X024345Y015128D01*
X024480Y014993D01*
X024657Y014920D01*
X024848Y014920D01*
X025024Y014993D01*
X025159Y015128D01*
X025232Y015305D01*
X025232Y015495D01*
X025159Y015672D01*
X025024Y015807D01*
X024848Y015880D01*
X024657Y015880D01*
X024578Y015910D02*
X022892Y015910D01*
X022892Y015812D02*
X024492Y015812D01*
X024387Y015713D02*
X022892Y015713D01*
X022892Y015615D02*
X024322Y015615D01*
X024281Y015516D02*
X022892Y015516D01*
X022892Y015418D02*
X024272Y015418D01*
X024272Y015319D02*
X022892Y015319D01*
X022892Y015221D02*
X024307Y015221D01*
X024352Y015122D02*
X022892Y015122D01*
X022892Y015024D02*
X024450Y015024D01*
X024645Y014925D02*
X022892Y014925D01*
X022892Y014827D02*
X027416Y014827D01*
X027412Y014817D02*
X027412Y014483D01*
X027540Y014174D01*
X027777Y013938D01*
X028085Y013810D01*
X028419Y013810D01*
X028728Y013938D01*
X028964Y014174D01*
X029092Y014483D01*
X029092Y014817D01*
X028964Y015126D01*
X028728Y015362D01*
X028419Y015490D01*
X028085Y015490D01*
X027777Y015362D01*
X027540Y015126D01*
X027412Y014817D01*
X027412Y014728D02*
X022892Y014728D01*
X022892Y014630D02*
X027412Y014630D01*
X027412Y014531D02*
X023529Y014531D01*
X023445Y014615D02*
X023282Y014615D01*
X023282Y014180D01*
X023717Y014180D01*
X023717Y014343D01*
X023445Y014615D01*
X023282Y014531D02*
X023222Y014531D01*
X023222Y014433D02*
X023282Y014433D01*
X023282Y014334D02*
X023222Y014334D01*
X023222Y014236D02*
X023282Y014236D01*
X023282Y014137D02*
X027577Y014137D01*
X027515Y014236D02*
X023717Y014236D01*
X023717Y014334D02*
X027474Y014334D01*
X027433Y014433D02*
X023627Y014433D01*
X023717Y014039D02*
X027676Y014039D01*
X027774Y013940D02*
X023700Y013940D01*
X023602Y013842D02*
X028009Y013842D01*
X028085Y013490D02*
X027777Y013362D01*
X027540Y013126D01*
X027412Y012817D01*
X027412Y012483D01*
X027540Y012174D01*
X027777Y011938D01*
X028085Y011810D01*
X028419Y011810D01*
X028728Y011938D01*
X028964Y012174D01*
X029092Y012483D01*
X029092Y012817D01*
X028964Y013126D01*
X028728Y013362D01*
X028419Y013490D01*
X028085Y013490D01*
X027983Y013448D02*
X022748Y013448D01*
X022846Y013546D02*
X029252Y013546D01*
X029252Y013448D02*
X028522Y013448D01*
X028741Y013349D02*
X029252Y013349D01*
X029252Y013251D02*
X028840Y013251D01*
X028938Y013152D02*
X029252Y013152D01*
X029252Y013054D02*
X028994Y013054D01*
X029035Y012955D02*
X029252Y012955D01*
X029252Y012857D02*
X029076Y012857D01*
X029092Y012758D02*
X029252Y012758D01*
X029252Y012660D02*
X029092Y012660D01*
X029092Y012561D02*
X029252Y012561D01*
X029252Y012463D02*
X029084Y012463D01*
X029043Y012364D02*
X029252Y012364D01*
X029252Y012266D02*
X029002Y012266D01*
X028957Y012167D02*
X029252Y012167D01*
X029252Y012069D02*
X028859Y012069D01*
X028760Y011970D02*
X029252Y011970D01*
X029252Y011872D02*
X028568Y011872D01*
X027937Y011872D02*
X026232Y011872D01*
X026232Y011805D02*
X026159Y011628D01*
X026024Y011493D01*
X025848Y011420D01*
X025657Y011420D01*
X025480Y011493D01*
X025345Y011628D01*
X025272Y011805D01*
X025272Y011995D01*
X025345Y012172D01*
X025480Y012307D01*
X025657Y012380D01*
X025848Y012380D01*
X026024Y012307D01*
X026159Y012172D01*
X026232Y011995D01*
X026232Y011805D01*
X026219Y011773D02*
X029252Y011773D01*
X029252Y011675D02*
X026179Y011675D01*
X026107Y011576D02*
X029252Y011576D01*
X029252Y011478D02*
X025987Y011478D01*
X025850Y011379D02*
X029252Y011379D01*
X029252Y011281D02*
X026051Y011281D01*
X026024Y011307D02*
X025848Y011380D01*
X025657Y011380D01*
X025480Y011307D01*
X025345Y011172D01*
X025291Y011040D01*
X025071Y011040D01*
X025159Y011128D01*
X025232Y011305D01*
X025232Y011495D01*
X025159Y011672D01*
X025024Y011807D01*
X024848Y011880D01*
X024657Y011880D01*
X024480Y011807D01*
X024345Y011672D01*
X024291Y011540D01*
X016944Y011540D01*
X016862Y011458D01*
X015299Y009895D01*
X015151Y009895D01*
X015007Y009751D01*
X015007Y009549D01*
X015112Y009444D01*
X015112Y007592D01*
X015194Y007510D01*
X019194Y003510D01*
X022694Y003510D01*
X024599Y001606D01*
X024480Y001557D01*
X024345Y001422D01*
X024272Y001245D01*
X024272Y001055D01*
X024345Y000878D01*
X024480Y000743D01*
X024657Y000670D01*
X024848Y000670D01*
X025024Y000743D01*
X025159Y000878D01*
X025232Y001055D01*
X025232Y001245D01*
X025159Y001422D01*
X025024Y001557D01*
X024892Y001612D01*
X024892Y001708D01*
X022892Y003708D01*
X022810Y003790D01*
X019310Y003790D01*
X015392Y007708D01*
X015392Y009444D01*
X015497Y009549D01*
X015497Y009697D01*
X017060Y011260D01*
X024291Y011260D01*
X024345Y011128D01*
X024434Y011040D01*
X018444Y011040D01*
X015799Y008395D01*
X015651Y008395D01*
X015507Y008251D01*
X015507Y008049D01*
X015651Y007905D01*
X015854Y007905D01*
X015997Y008049D01*
X015997Y008197D01*
X018560Y010760D01*
X024377Y010760D01*
X024356Y010739D01*
X024308Y010673D01*
X024270Y010600D01*
X024245Y010522D01*
X024234Y010450D01*
X024702Y010450D01*
X024702Y010350D01*
X024234Y010350D01*
X024245Y010278D01*
X024270Y010200D01*
X024308Y010127D01*
X024356Y010061D01*
X024414Y010003D01*
X024480Y009955D01*
X024553Y009918D01*
X024631Y009893D01*
X024702Y009881D01*
X024702Y010350D01*
X024802Y010350D01*
X024802Y009881D01*
X024874Y009893D01*
X024952Y009918D01*
X025025Y009955D01*
X025091Y010003D01*
X025149Y010061D01*
X025197Y010127D01*
X025234Y010200D01*
X025260Y010278D01*
X025271Y010350D01*
X024802Y010350D01*
X024802Y010450D01*
X025271Y010450D01*
X025260Y010522D01*
X025234Y010600D01*
X025197Y010673D01*
X025149Y010739D01*
X025128Y010760D01*
X025291Y010760D01*
X025345Y010628D01*
X025480Y010493D01*
X025657Y010420D01*
X025848Y010420D01*
X026024Y010493D01*
X026159Y010628D01*
X026232Y010805D01*
X026232Y010995D01*
X026159Y011172D01*
X026024Y011307D01*
X026149Y011182D02*
X029252Y011182D01*
X029252Y011084D02*
X026196Y011084D01*
X026232Y010985D02*
X029252Y010985D01*
X029252Y010887D02*
X026232Y010887D01*
X026226Y010788D02*
X029252Y010788D01*
X029252Y010690D02*
X026185Y010690D01*
X026122Y010591D02*
X029252Y010591D01*
X029252Y010493D02*
X026023Y010493D01*
X025952Y010382D02*
X025874Y010407D01*
X025802Y010419D01*
X025802Y009950D01*
X025702Y009950D01*
X025702Y009850D01*
X025234Y009850D01*
X025245Y009778D01*
X025270Y009700D01*
X025308Y009627D01*
X025356Y009561D01*
X025414Y009503D01*
X025480Y009455D01*
X025553Y009418D01*
X025631Y009393D01*
X025702Y009381D01*
X025702Y009850D01*
X025802Y009850D01*
X025802Y009381D01*
X025874Y009393D01*
X025952Y009418D01*
X026025Y009455D01*
X026091Y009503D01*
X026149Y009561D01*
X026197Y009627D01*
X026234Y009700D01*
X026260Y009778D01*
X026271Y009850D01*
X025802Y009850D01*
X025802Y009950D01*
X026271Y009950D01*
X026260Y010022D01*
X026234Y010100D01*
X026197Y010173D01*
X026149Y010239D01*
X026091Y010297D01*
X026025Y010345D01*
X025952Y010382D01*
X025915Y010394D02*
X029252Y010394D01*
X029252Y010296D02*
X026092Y010296D01*
X026179Y010197D02*
X029252Y010197D01*
X029252Y010099D02*
X026235Y010099D01*
X026263Y010000D02*
X029252Y010000D01*
X029252Y009902D02*
X025802Y009902D01*
X025802Y010000D02*
X025702Y010000D01*
X025702Y009950D02*
X025702Y010419D01*
X025631Y010407D01*
X025553Y010382D01*
X025480Y010345D01*
X025414Y010297D01*
X025356Y010239D01*
X025308Y010173D01*
X025270Y010100D01*
X025245Y010022D01*
X025234Y009950D01*
X025702Y009950D01*
X025702Y009902D02*
X024901Y009902D01*
X024848Y009880D02*
X024657Y009880D01*
X024480Y009807D01*
X024345Y009672D01*
X024272Y009495D01*
X024272Y009305D01*
X024345Y009128D01*
X024480Y008993D01*
X024657Y008920D01*
X024848Y008920D01*
X025024Y008993D01*
X025159Y009128D01*
X025232Y009305D01*
X025232Y009495D01*
X025159Y009672D01*
X025024Y009807D01*
X024848Y009880D01*
X024802Y009902D02*
X024702Y009902D01*
X024702Y010000D02*
X024802Y010000D01*
X024802Y010099D02*
X024702Y010099D01*
X024702Y010197D02*
X024802Y010197D01*
X024802Y010296D02*
X024702Y010296D01*
X024702Y010394D02*
X018194Y010394D01*
X018096Y010296D02*
X024242Y010296D01*
X024272Y010197D02*
X017997Y010197D01*
X017899Y010099D02*
X024329Y010099D01*
X024418Y010000D02*
X017800Y010000D01*
X017702Y009902D02*
X024604Y009902D01*
X024477Y009803D02*
X017603Y009803D01*
X017505Y009705D02*
X024378Y009705D01*
X024318Y009606D02*
X017406Y009606D01*
X017308Y009508D02*
X024277Y009508D01*
X024272Y009409D02*
X017209Y009409D01*
X017111Y009311D02*
X024272Y009311D01*
X024311Y009212D02*
X017012Y009212D01*
X016914Y009114D02*
X024360Y009114D01*
X024459Y009015D02*
X016815Y009015D01*
X016717Y008917D02*
X027454Y008917D01*
X027494Y009015D02*
X025046Y009015D01*
X025145Y009114D02*
X027535Y009114D01*
X027540Y009126D02*
X027412Y008817D01*
X027412Y008483D01*
X027540Y008174D01*
X027777Y007938D01*
X028085Y007810D01*
X028419Y007810D01*
X028728Y007938D01*
X028964Y008174D01*
X029092Y008483D01*
X029092Y008817D01*
X028964Y009126D01*
X028728Y009362D01*
X028419Y009490D01*
X028085Y009490D01*
X027777Y009362D01*
X027540Y009126D01*
X027626Y009212D02*
X025194Y009212D01*
X025232Y009311D02*
X027725Y009311D01*
X027890Y009409D02*
X025924Y009409D01*
X025802Y009409D02*
X025702Y009409D01*
X025702Y009508D02*
X025802Y009508D01*
X025802Y009606D02*
X025702Y009606D01*
X025702Y009705D02*
X025802Y009705D01*
X025802Y009803D02*
X025702Y009803D01*
X025702Y010099D02*
X025802Y010099D01*
X025802Y010197D02*
X025702Y010197D01*
X025702Y010296D02*
X025802Y010296D01*
X025802Y010394D02*
X025702Y010394D01*
X025590Y010394D02*
X024802Y010394D01*
X025262Y010296D02*
X025412Y010296D01*
X025325Y010197D02*
X025233Y010197D01*
X025270Y010099D02*
X025176Y010099D01*
X025242Y010000D02*
X025087Y010000D01*
X025028Y009803D02*
X025241Y009803D01*
X025269Y009705D02*
X025127Y009705D01*
X025187Y009606D02*
X025323Y009606D01*
X025409Y009508D02*
X025227Y009508D01*
X025232Y009409D02*
X025581Y009409D01*
X026095Y009508D02*
X029252Y009508D01*
X029252Y009606D02*
X026182Y009606D01*
X026236Y009705D02*
X029252Y009705D01*
X029252Y009803D02*
X026263Y009803D01*
X025482Y010493D02*
X025264Y010493D01*
X025237Y010591D02*
X025383Y010591D01*
X025320Y010690D02*
X025185Y010690D01*
X025115Y011084D02*
X025309Y011084D01*
X025356Y011182D02*
X025182Y011182D01*
X025222Y011281D02*
X025454Y011281D01*
X025518Y011478D02*
X025232Y011478D01*
X025232Y011379D02*
X025655Y011379D01*
X025398Y011576D02*
X025199Y011576D01*
X025157Y011675D02*
X025326Y011675D01*
X025285Y011773D02*
X025058Y011773D01*
X024868Y011872D02*
X025272Y011872D01*
X025272Y011970D02*
X016270Y011970D01*
X016172Y011872D02*
X024636Y011872D01*
X024447Y011773D02*
X016073Y011773D01*
X015975Y011675D02*
X024348Y011675D01*
X024306Y011576D02*
X015876Y011576D01*
X015778Y011478D02*
X016882Y011478D01*
X016862Y011458D02*
X016862Y011458D01*
X016783Y011379D02*
X015679Y011379D01*
X015581Y011281D02*
X016685Y011281D01*
X016586Y011182D02*
X015497Y011182D01*
X015497Y011084D02*
X016488Y011084D01*
X016389Y010985D02*
X015434Y010985D01*
X015071Y010985D02*
X013434Y010985D01*
X013497Y011049D02*
X013354Y010905D01*
X013151Y010905D01*
X013141Y010915D01*
X011780Y010915D01*
X011770Y010905D01*
X011567Y010905D01*
X011424Y011049D01*
X011424Y011251D01*
X011567Y011395D01*
X011770Y011395D01*
X011780Y011385D01*
X013141Y011385D01*
X013151Y011395D01*
X013354Y011395D01*
X013497Y011251D01*
X013497Y011049D01*
X013497Y011084D02*
X015007Y011084D01*
X015007Y011182D02*
X013497Y011182D01*
X013468Y011281D02*
X015036Y011281D01*
X015135Y011379D02*
X013370Y011379D01*
X013443Y012225D02*
X013599Y012290D01*
X013719Y012409D01*
X013784Y012565D01*
X013784Y012735D01*
X013719Y012891D01*
X013599Y013010D01*
X013443Y013075D01*
X013274Y013075D01*
X013118Y013010D01*
X012998Y012891D01*
X012934Y012735D01*
X012934Y012565D01*
X012998Y012409D01*
X013118Y012290D01*
X013274Y012225D01*
X013443Y012225D01*
X013541Y012266D02*
X016170Y012266D01*
X016071Y012167D02*
X006752Y012167D01*
X006752Y012069D02*
X015973Y012069D01*
X015874Y011970D02*
X006752Y011970D01*
X006752Y011872D02*
X015776Y011872D01*
X015677Y011773D02*
X006752Y011773D01*
X006752Y011675D02*
X015579Y011675D01*
X015480Y011576D02*
X006752Y011576D01*
X006752Y011478D02*
X015382Y011478D01*
X016291Y010887D02*
X006752Y010887D01*
X006752Y010985D02*
X011487Y010985D01*
X011424Y011084D02*
X006752Y011084D01*
X006752Y011182D02*
X011424Y011182D01*
X011453Y011281D02*
X006752Y011281D01*
X006752Y011379D02*
X011551Y011379D01*
X013044Y012364D02*
X006752Y012364D01*
X006752Y012266D02*
X013176Y012266D01*
X012976Y012463D02*
X006752Y012463D01*
X006752Y012561D02*
X012935Y012561D01*
X012934Y012660D02*
X006752Y012660D01*
X006752Y012758D02*
X012943Y012758D01*
X012984Y012857D02*
X006752Y012857D01*
X006752Y012955D02*
X013063Y012955D01*
X013222Y013054D02*
X006752Y013054D01*
X006752Y013152D02*
X017052Y013152D01*
X016954Y013251D02*
X013617Y013251D01*
X013551Y013185D02*
X013824Y013457D01*
X013824Y013620D01*
X013389Y013620D01*
X013389Y013680D01*
X013824Y013680D01*
X013824Y013843D01*
X013551Y014115D01*
X013389Y014115D01*
X013389Y013680D01*
X013329Y013680D01*
X013329Y014115D01*
X013166Y014115D01*
X012894Y013843D01*
X012894Y013680D01*
X013329Y013680D01*
X013329Y013620D01*
X013389Y013620D01*
X013389Y013185D01*
X013551Y013185D01*
X013495Y013054D02*
X017151Y013054D01*
X017251Y013349D02*
X018253Y013349D01*
X018352Y013448D02*
X017153Y013448D01*
X017054Y013546D02*
X018450Y013546D01*
X018549Y013645D02*
X016956Y013645D01*
X017054Y013670D02*
X017451Y013670D01*
X017732Y013951D01*
X017732Y014349D01*
X017451Y014630D01*
X017054Y014630D01*
X016772Y014349D01*
X016772Y013951D01*
X017054Y013670D01*
X016981Y013743D02*
X016857Y013743D01*
X016882Y013842D02*
X016759Y013842D01*
X016784Y013940D02*
X016660Y013940D01*
X016562Y014039D02*
X016772Y014039D01*
X016772Y014137D02*
X016463Y014137D01*
X016365Y014236D02*
X016772Y014236D01*
X016772Y014334D02*
X016266Y014334D01*
X016168Y014433D02*
X016856Y014433D01*
X016955Y014531D02*
X016069Y014531D01*
X015971Y014630D02*
X017053Y014630D01*
X016996Y014728D02*
X015872Y014728D01*
X015774Y014827D02*
X016897Y014827D01*
X016799Y014925D02*
X015675Y014925D01*
X015577Y015024D02*
X016772Y015024D01*
X016772Y015122D02*
X015478Y015122D01*
X015392Y015221D02*
X016772Y015221D01*
X016772Y015319D02*
X015392Y015319D01*
X015112Y015319D02*
X010732Y015319D01*
X010732Y015305D02*
X010659Y015128D01*
X010524Y014993D01*
X010348Y014920D01*
X010157Y014920D01*
X009980Y014993D01*
X009845Y015128D01*
X009772Y015305D01*
X009772Y015495D01*
X009845Y015672D01*
X009980Y015807D01*
X010157Y015880D01*
X010348Y015880D01*
X010524Y015807D01*
X010659Y015672D01*
X010732Y015495D01*
X010732Y015305D01*
X010698Y015221D02*
X015112Y015221D01*
X015112Y015122D02*
X010653Y015122D01*
X010555Y015024D02*
X015181Y015024D01*
X015279Y014925D02*
X010360Y014925D01*
X010145Y014925D02*
X008548Y014925D01*
X008588Y014827D02*
X015378Y014827D01*
X015476Y014728D02*
X008592Y014728D01*
X008592Y014817D02*
X008464Y015126D01*
X008228Y015362D01*
X007919Y015490D01*
X007585Y015490D01*
X007277Y015362D01*
X007040Y015126D01*
X006912Y014817D01*
X006912Y014483D01*
X007040Y014174D01*
X007277Y013938D01*
X007585Y013810D01*
X007919Y013810D01*
X008228Y013938D01*
X008464Y014174D01*
X008592Y014483D01*
X008592Y014817D01*
X008592Y014630D02*
X015575Y014630D01*
X015673Y014531D02*
X008592Y014531D01*
X008571Y014433D02*
X015772Y014433D01*
X015870Y014334D02*
X008531Y014334D01*
X008490Y014236D02*
X015969Y014236D01*
X016067Y014137D02*
X008427Y014137D01*
X008329Y014039D02*
X013090Y014039D01*
X012991Y013940D02*
X008230Y013940D01*
X007996Y013842D02*
X012894Y013842D01*
X012894Y013743D02*
X006752Y013743D01*
X006752Y013645D02*
X013329Y013645D01*
X013329Y013620D02*
X012894Y013620D01*
X012894Y013457D01*
X013166Y013185D01*
X013329Y013185D01*
X013329Y013620D01*
X013389Y013645D02*
X016560Y013645D01*
X016461Y013743D02*
X013824Y013743D01*
X013824Y013842D02*
X016363Y013842D01*
X016264Y013940D02*
X013726Y013940D01*
X013628Y014039D02*
X016166Y014039D01*
X016658Y013546D02*
X013824Y013546D01*
X013814Y013448D02*
X016757Y013448D01*
X016855Y013349D02*
X013715Y013349D01*
X013389Y013349D02*
X013329Y013349D01*
X013329Y013251D02*
X013389Y013251D01*
X013389Y013448D02*
X013329Y013448D01*
X013329Y013546D02*
X013389Y013546D01*
X013389Y013743D02*
X013329Y013743D01*
X013329Y013842D02*
X013389Y013842D01*
X013389Y013940D02*
X013329Y013940D01*
X013329Y014039D02*
X013389Y014039D01*
X012894Y013546D02*
X006752Y013546D01*
X006752Y013448D02*
X012904Y013448D01*
X013002Y013349D02*
X006752Y013349D01*
X006752Y013251D02*
X013101Y013251D01*
X013655Y012955D02*
X021859Y012955D01*
X021761Y012857D02*
X013733Y012857D01*
X013774Y012758D02*
X021662Y012758D01*
X021564Y012660D02*
X013784Y012660D01*
X013782Y012561D02*
X021465Y012561D01*
X021367Y012463D02*
X013741Y012463D01*
X013674Y012364D02*
X021268Y012364D01*
X021467Y012167D02*
X025343Y012167D01*
X025303Y012069D02*
X021369Y012069D01*
X021566Y012266D02*
X025439Y012266D01*
X025618Y012364D02*
X021664Y012364D01*
X021763Y012463D02*
X027421Y012463D01*
X027412Y012561D02*
X021861Y012561D01*
X021960Y012660D02*
X027412Y012660D01*
X027412Y012758D02*
X022058Y012758D01*
X022157Y012857D02*
X027429Y012857D01*
X027470Y012955D02*
X022255Y012955D01*
X022354Y013054D02*
X027510Y013054D01*
X027566Y013152D02*
X022452Y013152D01*
X022551Y013251D02*
X027665Y013251D01*
X027763Y013349D02*
X022649Y013349D01*
X022450Y013546D02*
X018846Y013546D01*
X018892Y013645D02*
X022549Y013645D01*
X022612Y013743D02*
X022380Y013743D01*
X022545Y013842D02*
X022612Y013842D01*
X022892Y013842D02*
X022903Y013842D01*
X022892Y013743D02*
X023002Y013743D01*
X022892Y013645D02*
X029252Y013645D01*
X029252Y013743D02*
X023503Y013743D01*
X023282Y013743D02*
X023222Y013743D01*
X023222Y013842D02*
X023282Y013842D01*
X023282Y013940D02*
X023222Y013940D01*
X023222Y014039D02*
X023282Y014039D01*
X022612Y014433D02*
X022571Y014433D01*
X022612Y014531D02*
X022443Y014531D01*
X022612Y014630D02*
X020452Y014630D01*
X020451Y014630D02*
X020054Y014630D01*
X019772Y014349D01*
X019772Y013951D01*
X020054Y013670D01*
X020451Y013670D01*
X020732Y013951D01*
X020732Y014349D01*
X020451Y014630D01*
X020468Y014630D02*
X020772Y014935D01*
X020772Y015100D01*
X020302Y015100D01*
X020302Y014630D01*
X020468Y014630D01*
X020550Y014531D02*
X022062Y014531D01*
X021934Y014433D02*
X020649Y014433D01*
X020732Y014334D02*
X021869Y014334D01*
X021828Y014236D02*
X020732Y014236D01*
X020732Y014137D02*
X021827Y014137D01*
X021839Y014039D02*
X020732Y014039D01*
X020721Y013940D02*
X021879Y013940D01*
X021960Y013842D02*
X020623Y013842D01*
X020524Y013743D02*
X022124Y013743D01*
X022352Y013448D02*
X018748Y013448D01*
X018649Y013349D02*
X022253Y013349D01*
X022155Y013251D02*
X018551Y013251D01*
X018452Y013152D02*
X022056Y013152D01*
X021958Y013054D02*
X018354Y013054D01*
X018524Y013743D02*
X018612Y013743D01*
X018892Y013743D02*
X018981Y013743D01*
X019524Y013743D02*
X019981Y013743D01*
X019882Y013842D02*
X019623Y013842D01*
X019721Y013940D02*
X019784Y013940D01*
X019772Y014039D02*
X019732Y014039D01*
X019732Y014137D02*
X019772Y014137D01*
X019772Y014236D02*
X019732Y014236D01*
X019732Y014334D02*
X019772Y014334D01*
X019856Y014433D02*
X019649Y014433D01*
X019550Y014531D02*
X019955Y014531D01*
X020037Y014630D02*
X020202Y014630D01*
X020202Y015100D01*
X019732Y015100D01*
X019732Y014935D01*
X020037Y014630D01*
X020053Y014630D02*
X019452Y014630D01*
X019451Y014670D02*
X019732Y014951D01*
X019732Y015349D01*
X019451Y015630D01*
X019054Y015630D01*
X018772Y015349D01*
X018772Y014951D01*
X019054Y014670D01*
X019451Y014670D01*
X019509Y014728D02*
X019939Y014728D01*
X019840Y014827D02*
X019608Y014827D01*
X019706Y014925D02*
X019742Y014925D01*
X019732Y015024D02*
X019732Y015024D01*
X019732Y015122D02*
X020202Y015122D01*
X020202Y015100D02*
X020202Y015200D01*
X019732Y015200D01*
X019732Y015365D01*
X020037Y015670D01*
X020202Y015670D01*
X020202Y015200D01*
X020302Y015200D01*
X020302Y015670D01*
X020468Y015670D01*
X020772Y015365D01*
X020772Y015200D01*
X020302Y015200D01*
X020302Y015100D01*
X020202Y015100D01*
X020202Y015024D02*
X020302Y015024D01*
X020302Y015122D02*
X022612Y015122D01*
X022612Y015024D02*
X020772Y015024D01*
X020763Y014925D02*
X022612Y014925D01*
X022612Y014827D02*
X020664Y014827D01*
X020566Y014728D02*
X022612Y014728D01*
X022892Y014531D02*
X022976Y014531D01*
X022612Y015221D02*
X020772Y015221D01*
X020772Y015319D02*
X022612Y015319D01*
X022612Y015418D02*
X020720Y015418D01*
X020622Y015516D02*
X022612Y015516D01*
X022612Y015615D02*
X020523Y015615D01*
X020302Y015615D02*
X020202Y015615D01*
X020202Y015516D02*
X020302Y015516D01*
X020302Y015418D02*
X020202Y015418D01*
X020202Y015319D02*
X020302Y015319D01*
X020302Y015221D02*
X020202Y015221D01*
X019883Y015516D02*
X019565Y015516D01*
X019467Y015615D02*
X019982Y015615D01*
X019785Y015418D02*
X019664Y015418D01*
X019732Y015319D02*
X019732Y015319D01*
X019732Y015221D02*
X019732Y015221D01*
X020202Y014925D02*
X020302Y014925D01*
X020302Y014827D02*
X020202Y014827D01*
X020202Y014728D02*
X020302Y014728D01*
X019053Y014630D02*
X018892Y014630D01*
X018892Y014531D02*
X018955Y014531D01*
X018996Y014728D02*
X018872Y014728D01*
X018897Y014827D02*
X018774Y014827D01*
X018799Y014925D02*
X018706Y014925D01*
X018732Y015024D02*
X018772Y015024D01*
X018772Y015122D02*
X018732Y015122D01*
X018732Y015221D02*
X018772Y015221D01*
X018772Y015319D02*
X018732Y015319D01*
X018664Y015418D02*
X018841Y015418D01*
X018940Y015516D02*
X018565Y015516D01*
X018467Y015615D02*
X019038Y015615D01*
X018038Y015615D02*
X017892Y015615D01*
X017887Y015713D02*
X022612Y015713D01*
X022612Y015812D02*
X017789Y015812D01*
X017690Y015910D02*
X022612Y015910D01*
X022612Y016009D02*
X017592Y016009D01*
X017493Y016107D02*
X022612Y016107D01*
X022612Y016206D02*
X017395Y016206D01*
X017467Y015615D02*
X017590Y015615D01*
X017612Y015516D02*
X017565Y015516D01*
X017892Y015516D02*
X017940Y015516D01*
X017612Y014827D02*
X017608Y014827D01*
X017612Y014728D02*
X017509Y014728D01*
X017452Y014630D02*
X017612Y014630D01*
X017550Y014531D02*
X017673Y014531D01*
X017649Y014433D02*
X017772Y014433D01*
X017772Y014334D02*
X017732Y014334D01*
X017732Y014236D02*
X017772Y014236D01*
X017772Y014137D02*
X017732Y014137D01*
X017732Y014039D02*
X017772Y014039D01*
X017784Y013940D02*
X017721Y013940D01*
X017623Y013842D02*
X017882Y013842D01*
X017981Y013743D02*
X017524Y013743D01*
X015112Y015418D02*
X010732Y015418D01*
X010724Y015516D02*
X010958Y015516D01*
X010980Y015493D02*
X011157Y015420D01*
X011348Y015420D01*
X011524Y015493D01*
X011659Y015628D01*
X011732Y015805D01*
X011732Y015995D01*
X011659Y016172D01*
X011524Y016307D01*
X011348Y016380D01*
X011157Y016380D01*
X010980Y016307D01*
X010845Y016172D01*
X010772Y015995D01*
X010772Y015805D01*
X010845Y015628D01*
X010980Y015493D01*
X010859Y015615D02*
X010683Y015615D01*
X010618Y015713D02*
X010810Y015713D01*
X010772Y015812D02*
X010513Y015812D01*
X010524Y015993D02*
X010659Y016128D01*
X010732Y016305D01*
X010732Y016495D01*
X010659Y016672D01*
X010524Y016807D01*
X010348Y016880D01*
X010157Y016880D01*
X009980Y016807D01*
X009845Y016672D01*
X009772Y016495D01*
X009772Y016305D01*
X009845Y016128D01*
X009980Y015993D01*
X010157Y015920D01*
X010348Y015920D01*
X010524Y015993D01*
X010540Y016009D02*
X010778Y016009D01*
X010772Y015910D02*
X006752Y015910D01*
X006752Y015812D02*
X009992Y015812D01*
X009887Y015713D02*
X006752Y015713D01*
X006752Y015615D02*
X009822Y015615D01*
X009781Y015516D02*
X006752Y015516D01*
X006752Y015418D02*
X007410Y015418D01*
X007233Y015319D02*
X006752Y015319D01*
X006752Y015221D02*
X007135Y015221D01*
X007039Y015122D02*
X006752Y015122D01*
X006752Y015024D02*
X006998Y015024D01*
X006957Y014925D02*
X006752Y014925D01*
X006752Y014827D02*
X006916Y014827D01*
X006912Y014728D02*
X006752Y014728D01*
X006752Y014630D02*
X006912Y014630D01*
X006912Y014531D02*
X006752Y014531D01*
X006752Y014433D02*
X006933Y014433D01*
X006974Y014334D02*
X006752Y014334D01*
X006752Y014236D02*
X007015Y014236D01*
X007077Y014137D02*
X006752Y014137D01*
X006752Y014039D02*
X007176Y014039D01*
X007274Y013940D02*
X006752Y013940D01*
X006752Y013842D02*
X007509Y013842D01*
X008507Y015024D02*
X009950Y015024D01*
X009852Y015122D02*
X008466Y015122D01*
X008370Y015221D02*
X009807Y015221D01*
X009772Y015319D02*
X008271Y015319D01*
X008094Y015418D02*
X009772Y015418D01*
X009965Y016009D02*
X006752Y016009D01*
X006752Y016107D02*
X009866Y016107D01*
X009813Y016206D02*
X006752Y016206D01*
X006752Y016304D02*
X009773Y016304D01*
X009772Y016403D02*
X006752Y016403D01*
X006752Y016501D02*
X009775Y016501D01*
X009815Y016600D02*
X006752Y016600D01*
X006752Y016698D02*
X009872Y016698D01*
X009970Y016797D02*
X006752Y016797D01*
X006752Y016895D02*
X010124Y016895D01*
X010202Y016895D02*
X010302Y016895D01*
X010381Y016895D02*
X010772Y016895D01*
X010772Y016805D02*
X010772Y016995D01*
X010845Y017172D01*
X010980Y017307D01*
X011157Y017380D01*
X011348Y017380D01*
X011524Y017307D01*
X011659Y017172D01*
X011732Y016995D01*
X011732Y016805D01*
X011659Y016628D01*
X011524Y016493D01*
X011348Y016420D01*
X011157Y016420D01*
X010980Y016493D01*
X010845Y016628D01*
X010772Y016805D01*
X010776Y016797D02*
X010535Y016797D01*
X010633Y016698D02*
X010816Y016698D01*
X010874Y016600D02*
X010689Y016600D01*
X010730Y016501D02*
X010972Y016501D01*
X010978Y016304D02*
X010732Y016304D01*
X010732Y016403D02*
X015112Y016403D01*
X015112Y016501D02*
X011532Y016501D01*
X011631Y016600D02*
X015112Y016600D01*
X015112Y016698D02*
X011688Y016698D01*
X011729Y016797D02*
X015112Y016797D01*
X015112Y016895D02*
X011732Y016895D01*
X011732Y016994D02*
X015112Y016994D01*
X015112Y017092D02*
X011692Y017092D01*
X011641Y017191D02*
X015112Y017191D01*
X015112Y017289D02*
X011542Y017289D01*
X010997Y017486D02*
X010765Y017486D01*
X010739Y017585D02*
X010889Y017585D01*
X010823Y017683D02*
X010689Y017683D01*
X010606Y017782D02*
X010782Y017782D01*
X010772Y017880D02*
X010456Y017880D01*
X010302Y017880D02*
X010202Y017880D01*
X010202Y017782D02*
X010302Y017782D01*
X010302Y017683D02*
X010202Y017683D01*
X010202Y017585D02*
X010302Y017585D01*
X010049Y017880D02*
X008089Y017880D01*
X008269Y017979D02*
X010772Y017979D01*
X010806Y018077D02*
X008367Y018077D01*
X008465Y018176D02*
X010849Y018176D01*
X010948Y018274D02*
X008506Y018274D01*
X008547Y018373D02*
X011139Y018373D01*
X010963Y017289D02*
X010761Y017289D01*
X010729Y017191D02*
X010864Y017191D01*
X010812Y017092D02*
X010671Y017092D01*
X010578Y016994D02*
X010772Y016994D01*
X010302Y016994D02*
X010202Y016994D01*
X010202Y017092D02*
X010302Y017092D01*
X010302Y017191D02*
X010202Y017191D01*
X010202Y017289D02*
X010302Y017289D01*
X009927Y016994D02*
X006752Y016994D01*
X006752Y017092D02*
X009833Y017092D01*
X009775Y017191D02*
X006752Y017191D01*
X006752Y017289D02*
X009743Y017289D01*
X010691Y016206D02*
X010879Y016206D01*
X010819Y016107D02*
X010638Y016107D01*
X011527Y016304D02*
X015112Y016304D01*
X015112Y016206D02*
X011626Y016206D01*
X011686Y016107D02*
X015112Y016107D01*
X015112Y016009D02*
X011727Y016009D01*
X011732Y015910D02*
X015112Y015910D01*
X015112Y015812D02*
X011732Y015812D01*
X011694Y015713D02*
X015112Y015713D01*
X015112Y015615D02*
X011646Y015615D01*
X011547Y015516D02*
X015112Y015516D01*
X016501Y016600D02*
X023004Y016600D01*
X023102Y016698D02*
X016402Y016698D01*
X016392Y016797D02*
X023201Y016797D01*
X023299Y016895D02*
X016392Y016895D01*
X016392Y016994D02*
X023398Y016994D01*
X023498Y016698D02*
X024326Y016698D01*
X024270Y016600D02*
X023400Y016600D01*
X023301Y016501D02*
X024242Y016501D01*
X024241Y016304D02*
X023104Y016304D01*
X023006Y016206D02*
X024269Y016206D01*
X024322Y016107D02*
X022907Y016107D01*
X022892Y016009D02*
X024408Y016009D01*
X024927Y015910D02*
X025272Y015910D01*
X025272Y015995D02*
X025272Y015805D01*
X025345Y015628D01*
X025480Y015493D01*
X025657Y015420D01*
X025848Y015420D01*
X026024Y015493D01*
X026159Y015628D01*
X026232Y015805D01*
X026232Y015995D01*
X026159Y016172D01*
X026024Y016307D01*
X025848Y016380D01*
X025657Y016380D01*
X025480Y016307D01*
X025345Y016172D01*
X025272Y015995D01*
X025278Y016009D02*
X025096Y016009D01*
X025182Y016107D02*
X025319Y016107D01*
X025379Y016206D02*
X025236Y016206D01*
X025264Y016304D02*
X025478Y016304D01*
X025472Y016501D02*
X025263Y016501D01*
X025234Y016600D02*
X025374Y016600D01*
X025316Y016698D02*
X025179Y016698D01*
X025123Y017092D02*
X025312Y017092D01*
X025364Y017191D02*
X025185Y017191D01*
X024381Y017092D02*
X016392Y017092D01*
X016392Y017191D02*
X024320Y017191D01*
X024279Y017289D02*
X016392Y017289D01*
X016392Y017388D02*
X024272Y017388D01*
X024272Y017486D02*
X016392Y017486D01*
X016392Y017585D02*
X024309Y017585D01*
X024357Y017683D02*
X016392Y017683D01*
X016392Y017782D02*
X024455Y017782D01*
X022905Y016501D02*
X016599Y016501D01*
X016698Y016403D02*
X022807Y016403D01*
X022708Y016304D02*
X016796Y016304D01*
X016927Y017979D02*
X017077Y017979D01*
X017007Y018077D02*
X016997Y018077D01*
X016997Y018176D02*
X017007Y018176D01*
X017271Y018471D02*
X017375Y018471D01*
X017370Y018570D02*
X017474Y018570D01*
X017468Y018668D02*
X017572Y018668D01*
X017567Y018767D02*
X017671Y018767D01*
X011972Y019752D02*
X011533Y019752D01*
X011524Y019743D02*
X011659Y019878D01*
X011732Y020055D01*
X011732Y020245D01*
X011659Y020422D01*
X011524Y020557D01*
X011348Y020630D01*
X011157Y020630D01*
X010980Y020557D01*
X010845Y020422D01*
X010772Y020245D01*
X010772Y020055D01*
X010845Y019878D01*
X010980Y019743D01*
X011157Y019670D01*
X011348Y019670D01*
X011524Y019743D01*
X011631Y019850D02*
X011873Y019850D01*
X011816Y019949D02*
X011688Y019949D01*
X011729Y020047D02*
X011775Y020047D01*
X011772Y020146D02*
X011732Y020146D01*
X011732Y020244D02*
X011772Y020244D01*
X011813Y020343D02*
X011692Y020343D01*
X011640Y020441D02*
X011865Y020441D01*
X011963Y020540D02*
X011542Y020540D01*
X010963Y020540D02*
X010542Y020540D01*
X010640Y020441D02*
X010865Y020441D01*
X010813Y020343D02*
X010692Y020343D01*
X010732Y020244D02*
X010772Y020244D01*
X010772Y020146D02*
X010732Y020146D01*
X010729Y020047D02*
X010775Y020047D01*
X010816Y019949D02*
X010688Y019949D01*
X010631Y019850D02*
X010873Y019850D01*
X010972Y019752D02*
X010533Y019752D01*
X009972Y019752D02*
X006854Y019752D01*
X006952Y019850D02*
X009873Y019850D01*
X009816Y019949D02*
X007051Y019949D01*
X016884Y011084D02*
X024390Y011084D01*
X024323Y011182D02*
X016982Y011182D01*
X016785Y010985D02*
X018389Y010985D01*
X018291Y010887D02*
X016687Y010887D01*
X016588Y010788D02*
X018192Y010788D01*
X018094Y010690D02*
X016490Y010690D01*
X016391Y010591D02*
X017995Y010591D01*
X017897Y010493D02*
X016293Y010493D01*
X016194Y010394D02*
X017798Y010394D01*
X017700Y010296D02*
X016096Y010296D01*
X015997Y010197D02*
X017601Y010197D01*
X017503Y010099D02*
X015899Y010099D01*
X015800Y010000D02*
X017404Y010000D01*
X017306Y009902D02*
X015702Y009902D01*
X015603Y009803D02*
X017207Y009803D01*
X017109Y009705D02*
X015505Y009705D01*
X015497Y009606D02*
X017010Y009606D01*
X016912Y009508D02*
X015456Y009508D01*
X015392Y009409D02*
X016813Y009409D01*
X016715Y009311D02*
X015392Y009311D01*
X015392Y009212D02*
X016616Y009212D01*
X016518Y009114D02*
X015392Y009114D01*
X015392Y009015D02*
X016419Y009015D01*
X016321Y008917D02*
X015392Y008917D01*
X015392Y008818D02*
X016222Y008818D01*
X016124Y008720D02*
X015392Y008720D01*
X015392Y008621D02*
X016025Y008621D01*
X015927Y008523D02*
X015392Y008523D01*
X015392Y008424D02*
X015828Y008424D01*
X015581Y008326D02*
X015392Y008326D01*
X015392Y008227D02*
X015507Y008227D01*
X015507Y008129D02*
X015392Y008129D01*
X015392Y008030D02*
X015526Y008030D01*
X015624Y007932D02*
X015392Y007932D01*
X015392Y007833D02*
X028030Y007833D01*
X027792Y007932D02*
X015880Y007932D01*
X015979Y008030D02*
X027684Y008030D01*
X027586Y008129D02*
X015997Y008129D01*
X016027Y008227D02*
X027518Y008227D01*
X027478Y008326D02*
X016126Y008326D01*
X016224Y008424D02*
X027437Y008424D01*
X027412Y008523D02*
X016323Y008523D01*
X016421Y008621D02*
X027412Y008621D01*
X027412Y008720D02*
X016520Y008720D01*
X016618Y008818D02*
X027413Y008818D01*
X028615Y009409D02*
X029252Y009409D01*
X029252Y009311D02*
X028780Y009311D01*
X028878Y009212D02*
X029252Y009212D01*
X029252Y009114D02*
X028970Y009114D01*
X029010Y009015D02*
X029252Y009015D01*
X029252Y008917D02*
X029051Y008917D01*
X029092Y008818D02*
X029252Y008818D01*
X029252Y008720D02*
X029092Y008720D01*
X029092Y008621D02*
X029252Y008621D01*
X029252Y008523D02*
X029092Y008523D01*
X029068Y008424D02*
X029252Y008424D01*
X029252Y008326D02*
X029027Y008326D01*
X028986Y008227D02*
X029252Y008227D01*
X029252Y008129D02*
X028919Y008129D01*
X028820Y008030D02*
X029252Y008030D01*
X029252Y007932D02*
X028713Y007932D01*
X028475Y007833D02*
X029252Y007833D01*
X029252Y007735D02*
X015392Y007735D01*
X015464Y007636D02*
X029252Y007636D01*
X029252Y007538D02*
X015563Y007538D01*
X015661Y007439D02*
X027962Y007439D01*
X028085Y007490D02*
X027777Y007362D01*
X027540Y007126D01*
X027412Y006817D01*
X027412Y006483D01*
X027540Y006174D01*
X027777Y005938D01*
X028085Y005810D01*
X028419Y005810D01*
X028728Y005938D01*
X028964Y006174D01*
X029092Y006483D01*
X029092Y006817D01*
X028964Y007126D01*
X028728Y007362D01*
X028419Y007490D01*
X028085Y007490D01*
X027755Y007341D02*
X015760Y007341D01*
X015858Y007242D02*
X027656Y007242D01*
X027558Y007144D02*
X015957Y007144D01*
X016055Y007045D02*
X027507Y007045D01*
X027466Y006947D02*
X016154Y006947D01*
X016252Y006848D02*
X027425Y006848D01*
X027412Y006750D02*
X016351Y006750D01*
X016449Y006651D02*
X027412Y006651D01*
X027412Y006553D02*
X016548Y006553D01*
X016646Y006454D02*
X027424Y006454D01*
X027465Y006356D02*
X025907Y006356D01*
X025848Y006380D02*
X026024Y006307D01*
X026159Y006172D01*
X026232Y005995D01*
X026232Y005805D01*
X026159Y005628D01*
X026024Y005493D01*
X025848Y005420D01*
X025657Y005420D01*
X025480Y005493D01*
X025345Y005628D01*
X025272Y005805D01*
X025272Y005995D01*
X025345Y006172D01*
X025480Y006307D01*
X025657Y006380D01*
X025848Y006380D01*
X025598Y006356D02*
X016745Y006356D01*
X016843Y006257D02*
X025431Y006257D01*
X025340Y006159D02*
X016942Y006159D01*
X017040Y006060D02*
X025299Y006060D01*
X025272Y005962D02*
X017139Y005962D01*
X017237Y005863D02*
X024616Y005863D01*
X024657Y005880D02*
X024480Y005807D01*
X024345Y005672D01*
X024272Y005495D01*
X024272Y005305D01*
X024345Y005128D01*
X024480Y004993D01*
X024657Y004920D01*
X024848Y004920D01*
X025024Y004993D01*
X025159Y005128D01*
X025232Y005305D01*
X025232Y005495D01*
X025159Y005672D01*
X025024Y005807D01*
X024848Y005880D01*
X024657Y005880D01*
X024889Y005863D02*
X025272Y005863D01*
X025289Y005765D02*
X025067Y005765D01*
X025162Y005666D02*
X025330Y005666D01*
X025406Y005568D02*
X025203Y005568D01*
X025232Y005469D02*
X025539Y005469D01*
X025634Y005371D02*
X025232Y005371D01*
X025219Y005272D02*
X025446Y005272D01*
X025480Y005307D02*
X025345Y005172D01*
X025272Y004995D01*
X025272Y004805D01*
X025345Y004628D01*
X025480Y004493D01*
X025657Y004420D01*
X025848Y004420D01*
X026024Y004493D01*
X026159Y004628D01*
X026232Y004805D01*
X026232Y004995D01*
X026159Y005172D01*
X026024Y005307D01*
X025848Y005380D01*
X025657Y005380D01*
X025480Y005307D01*
X025347Y005174D02*
X025178Y005174D01*
X025106Y005075D02*
X025305Y005075D01*
X025272Y004977D02*
X024984Y004977D01*
X024853Y004878D02*
X025272Y004878D01*
X025283Y004780D02*
X025052Y004780D01*
X025024Y004807D02*
X024848Y004880D01*
X024657Y004880D01*
X024480Y004807D01*
X024345Y004672D01*
X024272Y004495D01*
X024272Y004305D01*
X024345Y004128D01*
X024480Y003993D01*
X024657Y003920D01*
X024848Y003920D01*
X025024Y003993D01*
X025159Y004128D01*
X025232Y004305D01*
X025232Y004495D01*
X025159Y004672D01*
X025024Y004807D01*
X025150Y004681D02*
X025324Y004681D01*
X025391Y004583D02*
X025196Y004583D01*
X025232Y004484D02*
X025502Y004484D01*
X025553Y004382D02*
X025480Y004345D01*
X025414Y004297D01*
X025356Y004239D01*
X025308Y004173D01*
X025270Y004100D01*
X025245Y004022D01*
X025234Y003950D01*
X025702Y003950D01*
X025702Y003850D01*
X025234Y003850D01*
X025245Y003778D01*
X025270Y003700D01*
X025308Y003627D01*
X025356Y003561D01*
X025414Y003503D01*
X025480Y003455D01*
X025553Y003418D01*
X025631Y003393D01*
X025702Y003381D01*
X025702Y003850D01*
X025802Y003850D01*
X025802Y003381D01*
X025874Y003393D01*
X025952Y003418D01*
X026025Y003455D01*
X026091Y003503D01*
X026149Y003561D01*
X026197Y003627D01*
X026234Y003700D01*
X026260Y003778D01*
X026271Y003850D01*
X025802Y003850D01*
X025802Y003950D01*
X025702Y003950D01*
X025702Y004419D01*
X025631Y004407D01*
X025553Y004382D01*
X025564Y004386D02*
X025232Y004386D01*
X025225Y004287D02*
X025404Y004287D01*
X025319Y004189D02*
X025184Y004189D01*
X025121Y004090D02*
X025267Y004090D01*
X025240Y003992D02*
X025020Y003992D01*
X025024Y003807D02*
X024848Y003880D01*
X024657Y003880D01*
X024480Y003807D01*
X024345Y003672D01*
X024272Y003495D01*
X024272Y003305D01*
X024345Y003128D01*
X024480Y002993D01*
X024657Y002920D01*
X024848Y002920D01*
X025024Y002993D01*
X025159Y003128D01*
X025232Y003305D01*
X025232Y003495D01*
X025159Y003672D01*
X025024Y003807D01*
X025037Y003795D02*
X025243Y003795D01*
X025273Y003696D02*
X025135Y003696D01*
X025190Y003598D02*
X025329Y003598D01*
X025420Y003499D02*
X025231Y003499D01*
X025232Y003401D02*
X025607Y003401D01*
X025702Y003401D02*
X025802Y003401D01*
X025898Y003401D02*
X027869Y003401D01*
X027716Y003302D02*
X025231Y003302D01*
X025191Y003204D02*
X027618Y003204D01*
X027532Y003105D02*
X025136Y003105D01*
X025038Y003007D02*
X027491Y003007D01*
X027450Y002908D02*
X023692Y002908D01*
X023594Y003007D02*
X024467Y003007D01*
X024369Y003105D02*
X023495Y003105D01*
X023397Y003204D02*
X024314Y003204D01*
X024273Y003302D02*
X023298Y003302D01*
X023200Y003401D02*
X024272Y003401D01*
X024274Y003499D02*
X023101Y003499D01*
X023003Y003598D02*
X024315Y003598D01*
X024370Y003696D02*
X022904Y003696D01*
X022705Y003499D02*
X017948Y003499D01*
X017997Y003549D02*
X017854Y003405D01*
X017651Y003405D01*
X017507Y003549D01*
X017507Y003563D01*
X016665Y004405D01*
X016651Y004405D01*
X016507Y004549D01*
X016507Y004751D01*
X016651Y004895D01*
X016854Y004895D01*
X016997Y004751D01*
X016997Y004737D01*
X017840Y003895D01*
X017854Y003895D01*
X017997Y003751D01*
X017997Y003549D01*
X017997Y003598D02*
X019107Y003598D01*
X019008Y003696D02*
X017997Y003696D01*
X017954Y003795D02*
X018910Y003795D01*
X018811Y003893D02*
X017856Y003893D01*
X017743Y003992D02*
X018713Y003992D01*
X018614Y004090D02*
X017645Y004090D01*
X017546Y004189D02*
X018516Y004189D01*
X018417Y004287D02*
X017448Y004287D01*
X017349Y004386D02*
X018319Y004386D01*
X018220Y004484D02*
X017251Y004484D01*
X017152Y004583D02*
X018122Y004583D01*
X018023Y004681D02*
X017054Y004681D01*
X016969Y004780D02*
X017925Y004780D01*
X017826Y004878D02*
X016871Y004878D01*
X016634Y004878D02*
X011732Y004878D01*
X011732Y004805D02*
X011732Y004995D01*
X011659Y005172D01*
X011524Y005307D01*
X011348Y005380D01*
X011157Y005380D01*
X010980Y005307D01*
X010845Y005172D01*
X010772Y004995D01*
X010772Y004805D01*
X010845Y004628D01*
X010934Y004540D01*
X010714Y004540D01*
X010659Y004672D01*
X010524Y004807D01*
X010348Y004880D01*
X010157Y004880D01*
X009980Y004807D01*
X009845Y004672D01*
X009772Y004495D01*
X009772Y004305D01*
X009845Y004128D01*
X009980Y003993D01*
X010157Y003920D01*
X010348Y003920D01*
X010524Y003993D01*
X010659Y004128D01*
X010714Y004260D01*
X010934Y004260D01*
X010845Y004172D01*
X010772Y003995D01*
X010772Y003805D01*
X010845Y003628D01*
X010980Y003493D01*
X011157Y003420D01*
X011348Y003420D01*
X011524Y003493D01*
X011659Y003628D01*
X011714Y003760D01*
X014444Y003760D01*
X015612Y002592D01*
X015694Y002510D01*
X021194Y002510D01*
X022327Y001377D01*
X022272Y001245D01*
X022272Y001055D01*
X022345Y000878D01*
X022480Y000743D01*
X022657Y000670D01*
X022848Y000670D01*
X023024Y000743D01*
X023159Y000878D01*
X023232Y001055D01*
X023232Y001245D01*
X023159Y001422D01*
X023024Y001557D01*
X022848Y001630D01*
X022657Y001630D01*
X022525Y001575D01*
X021310Y002790D01*
X015810Y002790D01*
X014560Y004040D01*
X011714Y004040D01*
X011659Y004172D01*
X011571Y004260D01*
X014444Y004260D01*
X015694Y003010D01*
X022194Y003010D01*
X023599Y001606D01*
X023480Y001557D01*
X023345Y001422D01*
X023272Y001245D01*
X023272Y001055D01*
X023345Y000878D01*
X023480Y000743D01*
X023657Y000670D01*
X023848Y000670D01*
X024024Y000743D01*
X024159Y000878D01*
X024232Y001055D01*
X024232Y001245D01*
X024159Y001422D01*
X024024Y001557D01*
X023892Y001612D01*
X023892Y001708D01*
X022392Y003208D01*
X022310Y003290D01*
X015810Y003290D01*
X014642Y004458D01*
X014560Y004540D01*
X011571Y004540D01*
X011659Y004628D01*
X011732Y004805D01*
X011722Y004780D02*
X016535Y004780D01*
X016507Y004681D02*
X011681Y004681D01*
X011614Y004583D02*
X016507Y004583D01*
X016572Y004484D02*
X014616Y004484D01*
X014715Y004386D02*
X016685Y004386D01*
X016783Y004287D02*
X014813Y004287D01*
X014912Y004189D02*
X016882Y004189D01*
X016980Y004090D02*
X015010Y004090D01*
X015109Y003992D02*
X017079Y003992D01*
X017177Y003893D02*
X015207Y003893D01*
X015306Y003795D02*
X017276Y003795D01*
X017374Y003696D02*
X015404Y003696D01*
X015503Y003598D02*
X017473Y003598D01*
X017557Y003499D02*
X015601Y003499D01*
X015700Y003401D02*
X022804Y003401D01*
X022902Y003302D02*
X015798Y003302D01*
X015599Y003105D02*
X015495Y003105D01*
X015501Y003204D02*
X015397Y003204D01*
X015402Y003302D02*
X015298Y003302D01*
X015304Y003401D02*
X015200Y003401D01*
X015205Y003499D02*
X015101Y003499D01*
X015107Y003598D02*
X015003Y003598D01*
X015008Y003696D02*
X014904Y003696D01*
X014910Y003795D02*
X014806Y003795D01*
X014811Y003893D02*
X014707Y003893D01*
X014713Y003992D02*
X014609Y003992D01*
X014614Y004090D02*
X011693Y004090D01*
X011643Y004189D02*
X014516Y004189D01*
X014508Y003696D02*
X011687Y003696D01*
X011629Y003598D02*
X014607Y003598D01*
X014705Y003499D02*
X011530Y003499D01*
X010975Y003499D02*
X010731Y003499D01*
X010732Y003495D02*
X010659Y003672D01*
X010524Y003807D01*
X010348Y003880D01*
X010157Y003880D01*
X009980Y003807D01*
X009845Y003672D01*
X009772Y003495D01*
X009772Y003305D01*
X009845Y003128D01*
X009980Y002993D01*
X010157Y002920D01*
X010348Y002920D01*
X010524Y002993D01*
X010659Y003128D01*
X010732Y003305D01*
X010732Y003495D01*
X010732Y003401D02*
X014804Y003401D01*
X014902Y003302D02*
X010731Y003302D01*
X010691Y003204D02*
X015001Y003204D01*
X015099Y003105D02*
X010636Y003105D01*
X010538Y003007D02*
X015198Y003007D01*
X015296Y002908D02*
X009487Y002908D01*
X009487Y002810D02*
X015395Y002810D01*
X015493Y002711D02*
X009524Y002711D01*
X009487Y002747D02*
X009487Y006553D01*
X010340Y007405D01*
X010354Y007405D01*
X010497Y007549D01*
X010497Y007751D01*
X010354Y007895D01*
X010151Y007895D01*
X010007Y007751D01*
X010007Y007737D01*
X009017Y006747D01*
X009017Y002553D01*
X009155Y002415D01*
X009655Y001915D01*
X020155Y001915D01*
X020504Y001566D01*
X020480Y001557D01*
X020345Y001422D01*
X020272Y001245D01*
X020272Y001055D01*
X020345Y000878D01*
X020480Y000743D01*
X020657Y000670D01*
X020848Y000670D01*
X021024Y000743D01*
X021159Y000878D01*
X021232Y001055D01*
X021232Y001245D01*
X021159Y001422D01*
X021024Y001557D01*
X020987Y001572D01*
X020987Y001747D01*
X020487Y002247D01*
X020350Y002385D01*
X009850Y002385D01*
X009487Y002747D01*
X009622Y002613D02*
X015592Y002613D01*
X015690Y002514D02*
X009721Y002514D01*
X009819Y002416D02*
X021289Y002416D01*
X021387Y002317D02*
X020418Y002317D01*
X020516Y002219D02*
X021486Y002219D01*
X021584Y002120D02*
X020615Y002120D01*
X020713Y002022D02*
X021683Y002022D01*
X021781Y001923D02*
X020812Y001923D01*
X020910Y001825D02*
X021880Y001825D01*
X021978Y001726D02*
X020987Y001726D01*
X020987Y001628D02*
X022077Y001628D01*
X022175Y001529D02*
X021052Y001529D01*
X021151Y001431D02*
X022274Y001431D01*
X022308Y001332D02*
X021197Y001332D01*
X021232Y001234D02*
X022272Y001234D01*
X022272Y001135D02*
X021232Y001135D01*
X021225Y001037D02*
X022280Y001037D01*
X022321Y000938D02*
X021184Y000938D01*
X021121Y000840D02*
X022384Y000840D01*
X022485Y000741D02*
X021019Y000741D01*
X020485Y000741D02*
X020074Y000741D01*
X020170Y000840D02*
X020384Y000840D01*
X020321Y000938D02*
X020228Y000938D01*
X020261Y001037D02*
X020280Y001037D01*
X020272Y001135D02*
X019802Y001135D01*
X019802Y001234D02*
X019702Y001234D01*
X019702Y001332D02*
X019802Y001332D01*
X019802Y001431D02*
X019702Y001431D01*
X019702Y001529D02*
X019802Y001529D01*
X019802Y001628D02*
X019702Y001628D01*
X019544Y001628D02*
X018961Y001628D01*
X018802Y001628D02*
X018702Y001628D01*
X018702Y001529D02*
X018802Y001529D01*
X018802Y001431D02*
X018702Y001431D01*
X018702Y001332D02*
X018802Y001332D01*
X018802Y001234D02*
X018702Y001234D01*
X018702Y001135D02*
X018232Y001135D01*
X018232Y001055D02*
X018232Y001245D01*
X018159Y001422D01*
X018024Y001557D01*
X017848Y001630D01*
X017657Y001630D01*
X017480Y001557D01*
X017345Y001422D01*
X017272Y001245D01*
X017272Y001055D01*
X017345Y000878D01*
X017480Y000743D01*
X017657Y000670D01*
X017848Y000670D01*
X018024Y000743D01*
X018159Y000878D01*
X018232Y001055D01*
X018225Y001037D02*
X018244Y001037D01*
X018277Y000938D02*
X018184Y000938D01*
X018121Y000840D02*
X018335Y000840D01*
X018431Y000741D02*
X018019Y000741D01*
X017485Y000741D02*
X017019Y000741D01*
X017024Y000743D02*
X017159Y000878D01*
X017232Y001055D01*
X017232Y001245D01*
X017159Y001422D01*
X017024Y001557D01*
X016848Y001630D01*
X016657Y001630D01*
X016480Y001557D01*
X016345Y001422D01*
X016272Y001245D01*
X016272Y001055D01*
X016345Y000878D01*
X016480Y000743D01*
X016657Y000670D01*
X016848Y000670D01*
X017024Y000743D01*
X017121Y000840D02*
X017384Y000840D01*
X017321Y000938D02*
X017184Y000938D01*
X017225Y001037D02*
X017280Y001037D01*
X017272Y001135D02*
X017232Y001135D01*
X017232Y001234D02*
X017272Y001234D01*
X017308Y001332D02*
X017197Y001332D01*
X017151Y001431D02*
X017354Y001431D01*
X017453Y001529D02*
X017052Y001529D01*
X016854Y001628D02*
X017651Y001628D01*
X017854Y001628D02*
X018544Y001628D01*
X018396Y001529D02*
X018052Y001529D01*
X018151Y001431D02*
X018313Y001431D01*
X018265Y001332D02*
X018197Y001332D01*
X018232Y001234D02*
X018239Y001234D01*
X018802Y001135D02*
X019702Y001135D01*
X019313Y001431D02*
X019191Y001431D01*
X019240Y001332D02*
X019265Y001332D01*
X019396Y001529D02*
X019109Y001529D01*
X019961Y001628D02*
X020443Y001628D01*
X020453Y001529D02*
X020109Y001529D01*
X020191Y001431D02*
X020354Y001431D01*
X020308Y001332D02*
X020240Y001332D01*
X020266Y001234D02*
X020272Y001234D01*
X020344Y001726D02*
X006752Y001726D01*
X006752Y001825D02*
X007550Y001825D01*
X007585Y001810D02*
X007277Y001938D01*
X007040Y002174D01*
X006912Y002483D01*
X006912Y002817D01*
X007040Y003126D01*
X007277Y003362D01*
X007585Y003490D01*
X007919Y003490D01*
X008228Y003362D01*
X008464Y003126D01*
X008592Y002817D01*
X008592Y002483D01*
X008464Y002174D01*
X008228Y001938D01*
X007919Y001810D01*
X007585Y001810D01*
X007312Y001923D02*
X006752Y001923D01*
X006752Y002022D02*
X007193Y002022D01*
X007094Y002120D02*
X006752Y002120D01*
X006752Y002219D02*
X007022Y002219D01*
X006981Y002317D02*
X006752Y002317D01*
X006752Y002416D02*
X006940Y002416D01*
X006912Y002514D02*
X006752Y002514D01*
X006752Y002613D02*
X006912Y002613D01*
X006912Y002711D02*
X006752Y002711D01*
X006752Y002810D02*
X006912Y002810D01*
X006950Y002908D02*
X006752Y002908D01*
X006752Y003007D02*
X006991Y003007D01*
X007032Y003105D02*
X006752Y003105D01*
X006752Y003204D02*
X007118Y003204D01*
X007216Y003302D02*
X006752Y003302D01*
X006752Y003401D02*
X007369Y003401D01*
X006752Y003499D02*
X009017Y003499D01*
X009017Y003401D02*
X008135Y003401D01*
X008288Y003302D02*
X009017Y003302D01*
X009017Y003204D02*
X008387Y003204D01*
X008473Y003105D02*
X009017Y003105D01*
X009017Y003007D02*
X008514Y003007D01*
X008555Y002908D02*
X009017Y002908D01*
X009017Y002810D02*
X008592Y002810D01*
X008592Y002711D02*
X009017Y002711D01*
X009017Y002613D02*
X008592Y002613D01*
X008592Y002514D02*
X009056Y002514D01*
X009155Y002416D02*
X008564Y002416D01*
X008524Y002317D02*
X009253Y002317D01*
X009352Y002219D02*
X008483Y002219D01*
X008410Y002120D02*
X009450Y002120D01*
X009549Y002022D02*
X008312Y002022D01*
X008192Y001923D02*
X009647Y001923D01*
X009487Y003007D02*
X009967Y003007D01*
X009869Y003105D02*
X009487Y003105D01*
X009487Y003204D02*
X009814Y003204D01*
X009773Y003302D02*
X009487Y003302D01*
X009487Y003401D02*
X009772Y003401D01*
X009774Y003499D02*
X009487Y003499D01*
X009487Y003598D02*
X009815Y003598D01*
X009870Y003696D02*
X009487Y003696D01*
X009487Y003795D02*
X009968Y003795D01*
X009984Y003992D02*
X009487Y003992D01*
X009487Y004090D02*
X009884Y004090D01*
X009820Y004189D02*
X009487Y004189D01*
X009487Y004287D02*
X009780Y004287D01*
X009772Y004386D02*
X009487Y004386D01*
X009487Y004484D02*
X009772Y004484D01*
X009808Y004583D02*
X009487Y004583D01*
X009487Y004681D02*
X009855Y004681D01*
X009953Y004780D02*
X009487Y004780D01*
X009487Y004878D02*
X010152Y004878D01*
X010131Y004893D02*
X010053Y004918D01*
X009980Y004955D01*
X009914Y005003D01*
X009856Y005061D01*
X009808Y005127D01*
X009770Y005200D01*
X009745Y005278D01*
X009734Y005350D01*
X010202Y005350D01*
X010202Y005450D01*
X009734Y005450D01*
X009745Y005522D01*
X009770Y005600D01*
X009808Y005673D01*
X009856Y005739D01*
X009914Y005797D01*
X009980Y005845D01*
X010053Y005882D01*
X010131Y005907D01*
X010202Y005919D01*
X010202Y005450D01*
X010302Y005450D01*
X010302Y005919D01*
X010374Y005907D01*
X010452Y005882D01*
X010525Y005845D01*
X010591Y005797D01*
X010649Y005739D01*
X010697Y005673D01*
X010734Y005600D01*
X010760Y005522D01*
X010771Y005450D01*
X010302Y005450D01*
X010302Y005350D01*
X010302Y004881D01*
X010374Y004893D01*
X010452Y004918D01*
X010525Y004955D01*
X010591Y005003D01*
X010649Y005061D01*
X010697Y005127D01*
X010734Y005200D01*
X010760Y005278D01*
X010771Y005350D01*
X010302Y005350D01*
X010202Y005350D01*
X010202Y004881D01*
X010131Y004893D01*
X010202Y004977D02*
X010302Y004977D01*
X010302Y005075D02*
X010202Y005075D01*
X010202Y005174D02*
X010302Y005174D01*
X010302Y005272D02*
X010202Y005272D01*
X010202Y005371D02*
X009487Y005371D01*
X009487Y005469D02*
X009737Y005469D01*
X009760Y005568D02*
X009487Y005568D01*
X009487Y005666D02*
X009804Y005666D01*
X009881Y005765D02*
X009487Y005765D01*
X009487Y005863D02*
X010016Y005863D01*
X010202Y005863D02*
X010302Y005863D01*
X010302Y005765D02*
X010202Y005765D01*
X010202Y005666D02*
X010302Y005666D01*
X010302Y005568D02*
X010202Y005568D01*
X010202Y005469D02*
X010302Y005469D01*
X010302Y005371D02*
X011134Y005371D01*
X011157Y005420D02*
X010980Y005493D01*
X010845Y005628D01*
X010772Y005805D01*
X010772Y005995D01*
X010845Y006172D01*
X010980Y006307D01*
X011157Y006380D01*
X011348Y006380D01*
X011524Y006307D01*
X011659Y006172D01*
X011732Y005995D01*
X011732Y005805D01*
X011659Y005628D01*
X011524Y005493D01*
X011348Y005420D01*
X011157Y005420D01*
X011039Y005469D02*
X010768Y005469D01*
X010745Y005568D02*
X010906Y005568D01*
X010830Y005666D02*
X010700Y005666D01*
X010623Y005765D02*
X010789Y005765D01*
X010772Y005863D02*
X010489Y005863D01*
X010772Y005962D02*
X009487Y005962D01*
X009487Y006060D02*
X010799Y006060D01*
X010840Y006159D02*
X009487Y006159D01*
X009487Y006257D02*
X010931Y006257D01*
X011098Y006356D02*
X009487Y006356D01*
X009487Y006454D02*
X016250Y006454D01*
X016152Y006553D02*
X009487Y006553D01*
X009586Y006651D02*
X016053Y006651D01*
X015955Y006750D02*
X009684Y006750D01*
X009783Y006848D02*
X015856Y006848D01*
X015758Y006947D02*
X009881Y006947D01*
X009980Y007045D02*
X015659Y007045D01*
X015561Y007144D02*
X010078Y007144D01*
X010177Y007242D02*
X015462Y007242D01*
X015364Y007341D02*
X010275Y007341D01*
X010388Y007439D02*
X015265Y007439D01*
X015167Y007538D02*
X010486Y007538D01*
X010497Y007636D02*
X015112Y007636D01*
X015112Y007735D02*
X010497Y007735D01*
X010416Y007833D02*
X015112Y007833D01*
X015112Y007932D02*
X006752Y007932D01*
X006752Y008030D02*
X015112Y008030D01*
X015112Y008129D02*
X006752Y008129D01*
X006752Y008227D02*
X015112Y008227D01*
X015112Y008326D02*
X006752Y008326D01*
X006752Y008424D02*
X015112Y008424D01*
X015112Y008523D02*
X006752Y008523D01*
X006752Y008621D02*
X015112Y008621D01*
X015112Y008720D02*
X006752Y008720D01*
X006752Y008818D02*
X015112Y008818D01*
X015112Y008917D02*
X006752Y008917D01*
X006752Y009015D02*
X015112Y009015D01*
X015112Y009114D02*
X006752Y009114D01*
X006752Y009212D02*
X015112Y009212D01*
X015112Y009311D02*
X006752Y009311D01*
X006752Y009409D02*
X015112Y009409D01*
X015048Y009508D02*
X006752Y009508D01*
X006752Y009606D02*
X015007Y009606D01*
X015007Y009705D02*
X006752Y009705D01*
X006752Y009803D02*
X015059Y009803D01*
X015306Y009902D02*
X006752Y009902D01*
X006752Y010000D02*
X015404Y010000D01*
X015503Y010099D02*
X006752Y010099D01*
X006752Y010197D02*
X015601Y010197D01*
X015700Y010296D02*
X006752Y010296D01*
X006752Y010394D02*
X015798Y010394D01*
X015897Y010493D02*
X006752Y010493D01*
X006752Y010591D02*
X015995Y010591D01*
X016094Y010690D02*
X006752Y010690D01*
X006752Y010788D02*
X016192Y010788D01*
X018293Y010493D02*
X024241Y010493D01*
X024268Y010591D02*
X018391Y010591D01*
X018490Y010690D02*
X024320Y010690D01*
X026202Y012069D02*
X027646Y012069D01*
X027547Y012167D02*
X026161Y012167D01*
X026066Y012266D02*
X027502Y012266D01*
X027462Y012364D02*
X025886Y012364D01*
X026232Y011970D02*
X027744Y011970D01*
X028496Y013842D02*
X029252Y013842D01*
X029252Y013940D02*
X028730Y013940D01*
X028829Y014039D02*
X029252Y014039D01*
X029252Y014137D02*
X028927Y014137D01*
X028990Y014236D02*
X029252Y014236D01*
X029252Y014334D02*
X029031Y014334D01*
X029071Y014433D02*
X029252Y014433D01*
X029252Y014531D02*
X029092Y014531D01*
X029092Y014630D02*
X029252Y014630D01*
X029252Y014728D02*
X029092Y014728D01*
X029088Y014827D02*
X029252Y014827D01*
X029252Y014925D02*
X029048Y014925D01*
X029007Y015024D02*
X029252Y015024D01*
X029252Y015122D02*
X028966Y015122D01*
X028870Y015221D02*
X029252Y015221D01*
X029252Y015319D02*
X028771Y015319D01*
X028594Y015418D02*
X029252Y015418D01*
X029252Y015516D02*
X026047Y015516D01*
X026146Y015615D02*
X029252Y015615D01*
X029252Y015713D02*
X026194Y015713D01*
X026232Y015812D02*
X029252Y015812D01*
X029252Y015910D02*
X026232Y015910D01*
X026227Y016009D02*
X029252Y016009D01*
X029252Y016107D02*
X026186Y016107D01*
X026126Y016206D02*
X029252Y016206D01*
X029252Y016304D02*
X026027Y016304D01*
X025272Y015812D02*
X025013Y015812D01*
X025118Y015713D02*
X025310Y015713D01*
X025359Y015615D02*
X025183Y015615D01*
X025224Y015516D02*
X025458Y015516D01*
X025232Y015418D02*
X027910Y015418D01*
X027733Y015319D02*
X025232Y015319D01*
X025198Y015221D02*
X027635Y015221D01*
X027539Y015122D02*
X025153Y015122D01*
X025055Y015024D02*
X027498Y015024D01*
X027457Y014925D02*
X024860Y014925D01*
X024702Y016403D02*
X023203Y016403D01*
X028543Y007439D02*
X029252Y007439D01*
X029252Y007341D02*
X028750Y007341D01*
X028848Y007242D02*
X029252Y007242D01*
X029252Y007144D02*
X028947Y007144D01*
X028998Y007045D02*
X029252Y007045D01*
X029252Y006947D02*
X029039Y006947D01*
X029080Y006848D02*
X029252Y006848D01*
X029252Y006750D02*
X029092Y006750D01*
X029092Y006651D02*
X029252Y006651D01*
X029252Y006553D02*
X029092Y006553D01*
X029080Y006454D02*
X029252Y006454D01*
X029252Y006356D02*
X029040Y006356D01*
X028999Y006257D02*
X029252Y006257D01*
X029252Y006159D02*
X028949Y006159D01*
X028850Y006060D02*
X029252Y006060D01*
X029252Y005962D02*
X028752Y005962D01*
X028547Y005863D02*
X029252Y005863D01*
X029252Y005765D02*
X026216Y005765D01*
X026232Y005863D02*
X027957Y005863D01*
X027753Y005962D02*
X026232Y005962D01*
X026206Y006060D02*
X027654Y006060D01*
X027556Y006159D02*
X026165Y006159D01*
X026074Y006257D02*
X027506Y006257D01*
X026175Y005666D02*
X029252Y005666D01*
X029252Y005568D02*
X026099Y005568D01*
X025966Y005469D02*
X029252Y005469D01*
X029252Y005371D02*
X025871Y005371D01*
X026059Y005272D02*
X029252Y005272D01*
X029252Y005174D02*
X026158Y005174D01*
X026199Y005075D02*
X029252Y005075D01*
X029252Y004977D02*
X026232Y004977D01*
X026232Y004878D02*
X029252Y004878D01*
X029252Y004780D02*
X026222Y004780D01*
X026181Y004681D02*
X029252Y004681D01*
X029252Y004583D02*
X026114Y004583D01*
X026002Y004484D02*
X029252Y004484D01*
X029252Y004386D02*
X025941Y004386D01*
X025952Y004382D02*
X025874Y004407D01*
X025802Y004419D01*
X025802Y003950D01*
X026271Y003950D01*
X026260Y004022D01*
X026234Y004100D01*
X026197Y004173D01*
X026149Y004239D01*
X026091Y004297D01*
X026025Y004345D01*
X025952Y004382D01*
X025802Y004386D02*
X025702Y004386D01*
X025702Y004287D02*
X025802Y004287D01*
X025802Y004189D02*
X025702Y004189D01*
X025702Y004090D02*
X025802Y004090D01*
X025802Y003992D02*
X025702Y003992D01*
X025702Y003893D02*
X019207Y003893D01*
X019109Y003992D02*
X024484Y003992D01*
X024384Y004090D02*
X019010Y004090D01*
X018912Y004189D02*
X024320Y004189D01*
X024280Y004287D02*
X018813Y004287D01*
X018715Y004386D02*
X024272Y004386D01*
X024272Y004484D02*
X018616Y004484D01*
X018518Y004583D02*
X024308Y004583D01*
X024355Y004681D02*
X018419Y004681D01*
X018321Y004780D02*
X024453Y004780D01*
X024520Y004977D02*
X018124Y004977D01*
X018025Y005075D02*
X024399Y005075D01*
X024327Y005174D02*
X017927Y005174D01*
X017828Y005272D02*
X024286Y005272D01*
X024272Y005371D02*
X017730Y005371D01*
X017631Y005469D02*
X024272Y005469D01*
X024302Y005568D02*
X017533Y005568D01*
X017434Y005666D02*
X024343Y005666D01*
X024438Y005765D02*
X017336Y005765D01*
X017137Y005568D02*
X011599Y005568D01*
X011675Y005666D02*
X017038Y005666D01*
X016940Y005765D02*
X011716Y005765D01*
X011732Y005863D02*
X016841Y005863D01*
X016743Y005962D02*
X011732Y005962D01*
X011706Y006060D02*
X016644Y006060D01*
X016546Y006159D02*
X011665Y006159D01*
X011574Y006257D02*
X016447Y006257D01*
X016349Y006356D02*
X011407Y006356D01*
X011466Y005469D02*
X017235Y005469D01*
X017334Y005371D02*
X011371Y005371D01*
X011559Y005272D02*
X017432Y005272D01*
X017531Y005174D02*
X011658Y005174D01*
X011699Y005075D02*
X017629Y005075D01*
X017728Y004977D02*
X011732Y004977D01*
X010946Y005272D02*
X010758Y005272D01*
X010721Y005174D02*
X010847Y005174D01*
X010805Y005075D02*
X010659Y005075D01*
X010554Y004977D02*
X010772Y004977D01*
X010772Y004878D02*
X010353Y004878D01*
X010552Y004780D02*
X010783Y004780D01*
X010824Y004681D02*
X010650Y004681D01*
X010696Y004583D02*
X010891Y004583D01*
X010862Y004189D02*
X010684Y004189D01*
X010621Y004090D02*
X010812Y004090D01*
X010772Y003992D02*
X010520Y003992D01*
X010537Y003795D02*
X010777Y003795D01*
X010772Y003893D02*
X009487Y003893D01*
X009017Y003893D02*
X006752Y003893D01*
X006752Y003795D02*
X009017Y003795D01*
X009017Y003696D02*
X006752Y003696D01*
X006752Y003598D02*
X009017Y003598D01*
X009017Y003992D02*
X006752Y003992D01*
X006752Y004090D02*
X009017Y004090D01*
X009017Y004189D02*
X006752Y004189D01*
X006752Y004287D02*
X009017Y004287D01*
X009017Y004386D02*
X006752Y004386D01*
X006752Y004484D02*
X009017Y004484D01*
X009017Y004583D02*
X006752Y004583D01*
X006752Y004681D02*
X009017Y004681D01*
X009017Y004780D02*
X006752Y004780D01*
X006752Y004878D02*
X009017Y004878D01*
X009017Y004977D02*
X006752Y004977D01*
X006752Y005075D02*
X009017Y005075D01*
X009017Y005174D02*
X006752Y005174D01*
X006752Y005272D02*
X009017Y005272D01*
X009017Y005371D02*
X006752Y005371D01*
X006752Y005469D02*
X009017Y005469D01*
X009017Y005568D02*
X006752Y005568D01*
X006752Y005666D02*
X009017Y005666D01*
X009017Y005765D02*
X006752Y005765D01*
X006752Y005863D02*
X007457Y005863D01*
X007585Y005810D02*
X007277Y005938D01*
X007040Y006174D01*
X006912Y006483D01*
X006912Y006817D01*
X007040Y007126D01*
X007277Y007362D01*
X007585Y007490D01*
X007919Y007490D01*
X008228Y007362D01*
X008464Y007126D01*
X008592Y006817D01*
X008592Y006483D01*
X008464Y006174D01*
X008228Y005938D01*
X007919Y005810D01*
X007585Y005810D01*
X008047Y005863D02*
X009017Y005863D01*
X009017Y005962D02*
X008252Y005962D01*
X008350Y006060D02*
X009017Y006060D01*
X009017Y006159D02*
X008449Y006159D01*
X008499Y006257D02*
X009017Y006257D01*
X009017Y006356D02*
X008540Y006356D01*
X008580Y006454D02*
X009017Y006454D01*
X009017Y006553D02*
X008592Y006553D01*
X008592Y006651D02*
X009017Y006651D01*
X009020Y006750D02*
X008592Y006750D01*
X008580Y006848D02*
X009118Y006848D01*
X009217Y006947D02*
X008539Y006947D01*
X008498Y007045D02*
X009315Y007045D01*
X009414Y007144D02*
X008447Y007144D01*
X008348Y007242D02*
X009512Y007242D01*
X009611Y007341D02*
X008250Y007341D01*
X008043Y007439D02*
X009709Y007439D01*
X009808Y007538D02*
X006752Y007538D01*
X006752Y007636D02*
X009906Y007636D01*
X010005Y007735D02*
X006752Y007735D01*
X006752Y007833D02*
X010089Y007833D01*
X007462Y007439D02*
X006752Y007439D01*
X006752Y007341D02*
X007255Y007341D01*
X007156Y007242D02*
X006752Y007242D01*
X006752Y007144D02*
X007058Y007144D01*
X007007Y007045D02*
X006752Y007045D01*
X006752Y006947D02*
X006966Y006947D01*
X006925Y006848D02*
X006752Y006848D01*
X006752Y006750D02*
X006912Y006750D01*
X006912Y006651D02*
X006752Y006651D01*
X006752Y006553D02*
X006912Y006553D01*
X006924Y006454D02*
X006752Y006454D01*
X006752Y006356D02*
X006965Y006356D01*
X007006Y006257D02*
X006752Y006257D01*
X006752Y006159D02*
X007056Y006159D01*
X007154Y006060D02*
X006752Y006060D01*
X006752Y005962D02*
X007253Y005962D01*
X009487Y005272D02*
X009747Y005272D01*
X009784Y005174D02*
X009487Y005174D01*
X009487Y005075D02*
X009846Y005075D01*
X009951Y004977D02*
X009487Y004977D01*
X010635Y003696D02*
X010817Y003696D01*
X010876Y003598D02*
X010690Y003598D01*
X007954Y001825D02*
X020246Y001825D01*
X021389Y002711D02*
X022493Y002711D01*
X022395Y002810D02*
X015791Y002810D01*
X015692Y002908D02*
X022296Y002908D01*
X022198Y003007D02*
X015594Y003007D01*
X015657Y001630D02*
X015480Y001557D01*
X015345Y001422D01*
X015272Y001245D01*
X015272Y001055D01*
X015345Y000878D01*
X015480Y000743D01*
X015657Y000670D01*
X015848Y000670D01*
X016024Y000743D01*
X016159Y000878D01*
X016232Y001055D01*
X016232Y001245D01*
X016159Y001422D01*
X016024Y001557D01*
X015848Y001630D01*
X015657Y001630D01*
X015651Y001628D02*
X014854Y001628D01*
X014848Y001630D02*
X015024Y001557D01*
X015159Y001422D01*
X015232Y001245D01*
X015232Y001055D01*
X015159Y000878D01*
X015024Y000743D01*
X014848Y000670D01*
X014657Y000670D01*
X014480Y000743D01*
X014345Y000878D01*
X014272Y001055D01*
X014272Y001245D01*
X014345Y001422D01*
X014480Y001557D01*
X014657Y001630D01*
X014848Y001630D01*
X014651Y001628D02*
X013854Y001628D01*
X013848Y001630D02*
X013657Y001630D01*
X013480Y001557D01*
X013345Y001422D01*
X013272Y001245D01*
X013272Y001055D01*
X013345Y000878D01*
X013480Y000743D01*
X013657Y000670D01*
X013848Y000670D01*
X014024Y000743D01*
X014159Y000878D01*
X014232Y001055D01*
X014232Y001245D01*
X014159Y001422D01*
X014024Y001557D01*
X013848Y001630D01*
X013651Y001628D02*
X006775Y001628D01*
X006873Y001529D02*
X013453Y001529D01*
X013354Y001431D02*
X006972Y001431D01*
X007070Y001332D02*
X013308Y001332D01*
X013272Y001234D02*
X007169Y001234D01*
X007267Y001135D02*
X013272Y001135D01*
X013280Y001037D02*
X007366Y001037D01*
X007464Y000938D02*
X013321Y000938D01*
X013384Y000840D02*
X007563Y000840D01*
X007661Y000741D02*
X013485Y000741D01*
X014019Y000741D02*
X014485Y000741D01*
X014384Y000840D02*
X014121Y000840D01*
X014184Y000938D02*
X014321Y000938D01*
X014280Y001037D02*
X014225Y001037D01*
X014232Y001135D02*
X014272Y001135D01*
X014272Y001234D02*
X014232Y001234D01*
X014197Y001332D02*
X014308Y001332D01*
X014354Y001431D02*
X014151Y001431D01*
X014052Y001529D02*
X014453Y001529D01*
X015052Y001529D02*
X015453Y001529D01*
X015354Y001431D02*
X015151Y001431D01*
X015197Y001332D02*
X015308Y001332D01*
X015272Y001234D02*
X015232Y001234D01*
X015232Y001135D02*
X015272Y001135D01*
X015280Y001037D02*
X015225Y001037D01*
X015184Y000938D02*
X015321Y000938D01*
X015384Y000840D02*
X015121Y000840D01*
X015019Y000741D02*
X015485Y000741D01*
X016019Y000741D02*
X016485Y000741D01*
X016384Y000840D02*
X016121Y000840D01*
X016184Y000938D02*
X016321Y000938D01*
X016280Y001037D02*
X016225Y001037D01*
X016232Y001135D02*
X016272Y001135D01*
X016272Y001234D02*
X016232Y001234D01*
X016197Y001332D02*
X016308Y001332D01*
X016354Y001431D02*
X016151Y001431D01*
X016052Y001529D02*
X016453Y001529D01*
X016651Y001628D02*
X015854Y001628D01*
X019306Y003795D02*
X024468Y003795D01*
X025702Y003795D02*
X025802Y003795D01*
X025802Y003893D02*
X029252Y003893D01*
X029252Y003795D02*
X026262Y003795D01*
X026232Y003696D02*
X029252Y003696D01*
X029252Y003598D02*
X026175Y003598D01*
X026085Y003499D02*
X029252Y003499D01*
X029252Y003401D02*
X028635Y003401D01*
X028788Y003302D02*
X029252Y003302D01*
X029252Y003204D02*
X028887Y003204D01*
X028973Y003105D02*
X029252Y003105D01*
X029252Y003007D02*
X029014Y003007D01*
X029055Y002908D02*
X029252Y002908D01*
X029252Y002810D02*
X029092Y002810D01*
X029092Y002711D02*
X029252Y002711D01*
X029215Y002613D02*
X029092Y002613D01*
X029092Y002514D02*
X029116Y002514D01*
X028328Y001726D02*
X024874Y001726D01*
X024892Y001628D02*
X025651Y001628D01*
X025657Y001630D02*
X025480Y001557D01*
X025345Y001422D01*
X025272Y001245D01*
X025272Y001055D01*
X025345Y000878D01*
X025480Y000743D01*
X025657Y000670D01*
X025848Y000670D01*
X026024Y000743D01*
X026159Y000878D01*
X026232Y001055D01*
X026232Y001245D01*
X026159Y001422D01*
X026024Y001557D01*
X025848Y001630D01*
X025657Y001630D01*
X025854Y001628D02*
X026651Y001628D01*
X026657Y001630D02*
X026480Y001557D01*
X026345Y001422D01*
X026272Y001245D01*
X026272Y001055D01*
X026345Y000878D01*
X026480Y000743D01*
X026657Y000670D01*
X026848Y000670D01*
X027024Y000743D01*
X027159Y000878D01*
X027232Y001055D01*
X027232Y001245D01*
X027159Y001422D01*
X027024Y001557D01*
X026848Y001630D01*
X026657Y001630D01*
X026854Y001628D02*
X027651Y001628D01*
X027657Y001630D02*
X027480Y001557D01*
X027345Y001422D01*
X027272Y001245D01*
X027272Y001055D01*
X027345Y000878D01*
X027480Y000743D01*
X027657Y000670D01*
X027848Y000670D01*
X028024Y000743D01*
X028159Y000878D01*
X028232Y001055D01*
X028232Y001245D01*
X028159Y001422D01*
X028024Y001557D01*
X027848Y001630D01*
X027657Y001630D01*
X027854Y001628D02*
X028252Y001628D01*
X028252Y001529D02*
X028052Y001529D01*
X028151Y001431D02*
X028252Y001431D01*
X028252Y001332D02*
X028197Y001332D01*
X028232Y001234D02*
X028252Y001234D01*
X028252Y001135D02*
X028232Y001135D01*
X028225Y001037D02*
X028252Y001037D01*
X028252Y000938D02*
X028184Y000938D01*
X028121Y000840D02*
X028252Y000840D01*
X028252Y000741D02*
X028019Y000741D01*
X027485Y000741D02*
X027019Y000741D01*
X027121Y000840D02*
X027384Y000840D01*
X027321Y000938D02*
X027184Y000938D01*
X027225Y001037D02*
X027280Y001037D01*
X027272Y001135D02*
X027232Y001135D01*
X027232Y001234D02*
X027272Y001234D01*
X027308Y001332D02*
X027197Y001332D01*
X027151Y001431D02*
X027354Y001431D01*
X027453Y001529D02*
X027052Y001529D01*
X026453Y001529D02*
X026052Y001529D01*
X026151Y001431D02*
X026354Y001431D01*
X026308Y001332D02*
X026197Y001332D01*
X026232Y001234D02*
X026272Y001234D01*
X026272Y001135D02*
X026232Y001135D01*
X026225Y001037D02*
X026280Y001037D01*
X026321Y000938D02*
X026184Y000938D01*
X026121Y000840D02*
X026384Y000840D01*
X026485Y000741D02*
X026019Y000741D01*
X025485Y000741D02*
X025019Y000741D01*
X025121Y000840D02*
X025384Y000840D01*
X025321Y000938D02*
X025184Y000938D01*
X025225Y001037D02*
X025280Y001037D01*
X025272Y001135D02*
X025232Y001135D01*
X025232Y001234D02*
X025272Y001234D01*
X025308Y001332D02*
X025197Y001332D01*
X025151Y001431D02*
X025354Y001431D01*
X025453Y001529D02*
X025052Y001529D01*
X024776Y001825D02*
X028050Y001825D01*
X027812Y001923D02*
X024677Y001923D01*
X024579Y002022D02*
X027693Y002022D01*
X027594Y002120D02*
X024480Y002120D01*
X024382Y002219D02*
X027522Y002219D01*
X027481Y002317D02*
X024283Y002317D01*
X024185Y002416D02*
X027440Y002416D01*
X027412Y002514D02*
X024086Y002514D01*
X023988Y002613D02*
X027412Y002613D01*
X027412Y002711D02*
X023889Y002711D01*
X023791Y002810D02*
X027412Y002810D01*
X025802Y003499D02*
X025702Y003499D01*
X025702Y003598D02*
X025802Y003598D01*
X025802Y003696D02*
X025702Y003696D01*
X026264Y003992D02*
X029252Y003992D01*
X029252Y004090D02*
X026237Y004090D01*
X026186Y004189D02*
X029252Y004189D01*
X029252Y004287D02*
X026101Y004287D01*
X024652Y004878D02*
X018222Y004878D01*
X021488Y002613D02*
X022592Y002613D01*
X022690Y002514D02*
X021586Y002514D01*
X021685Y002416D02*
X022789Y002416D01*
X022887Y002317D02*
X021783Y002317D01*
X021882Y002219D02*
X022986Y002219D01*
X023084Y002120D02*
X021980Y002120D01*
X022079Y002022D02*
X023183Y002022D01*
X023281Y001923D02*
X022177Y001923D01*
X022276Y001825D02*
X023380Y001825D01*
X023478Y001726D02*
X022374Y001726D01*
X022473Y001628D02*
X022651Y001628D01*
X022854Y001628D02*
X023577Y001628D01*
X023453Y001529D02*
X023052Y001529D01*
X023151Y001431D02*
X023354Y001431D01*
X023308Y001332D02*
X023197Y001332D01*
X023232Y001234D02*
X023272Y001234D01*
X023272Y001135D02*
X023232Y001135D01*
X023225Y001037D02*
X023280Y001037D01*
X023321Y000938D02*
X023184Y000938D01*
X023121Y000840D02*
X023384Y000840D01*
X023485Y000741D02*
X023019Y000741D01*
X024019Y000741D02*
X024485Y000741D01*
X024384Y000840D02*
X024121Y000840D01*
X024184Y000938D02*
X024321Y000938D01*
X024280Y001037D02*
X024225Y001037D01*
X024232Y001135D02*
X024272Y001135D01*
X024272Y001234D02*
X024232Y001234D01*
X024197Y001332D02*
X024308Y001332D01*
X024354Y001431D02*
X024151Y001431D01*
X024052Y001529D02*
X024453Y001529D01*
X024577Y001628D02*
X023892Y001628D01*
X023874Y001726D02*
X024478Y001726D01*
X024380Y001825D02*
X023776Y001825D01*
X023677Y001923D02*
X024281Y001923D01*
X024183Y002022D02*
X023579Y002022D01*
X023480Y002120D02*
X024084Y002120D01*
X023986Y002219D02*
X023382Y002219D01*
X023283Y002317D02*
X023887Y002317D01*
X023789Y002416D02*
X023185Y002416D01*
X023086Y002514D02*
X023690Y002514D01*
X023592Y002613D02*
X022988Y002613D01*
X022889Y002711D02*
X023493Y002711D01*
X023395Y002810D02*
X022791Y002810D01*
X022692Y002908D02*
X023296Y002908D01*
X023198Y003007D02*
X022594Y003007D01*
X022495Y003105D02*
X023099Y003105D01*
X023001Y003204D02*
X022397Y003204D01*
D15*
X017752Y003650D03*
X016752Y004650D03*
X015752Y008150D03*
X015252Y009650D03*
X015252Y011150D03*
X013252Y011150D03*
X011752Y011650D03*
X011669Y011150D03*
X011752Y012150D03*
X011752Y012650D03*
X009252Y012650D03*
X009252Y012150D03*
X009252Y011650D03*
X009252Y009650D03*
X009252Y009150D03*
X009252Y008650D03*
X010252Y007650D03*
X011752Y008650D03*
X011752Y009150D03*
X011752Y009650D03*
X014877Y017400D03*
X016752Y018150D03*
X017252Y018150D03*
D16*
X017752Y018650D01*
X024752Y018650D01*
X025752Y019650D01*
X025752Y020150D01*
X024752Y020150D02*
X024752Y019650D01*
X024252Y019150D01*
X017752Y019150D01*
X016752Y018150D01*
X015252Y019150D02*
X015252Y015150D01*
X017252Y013150D01*
X018252Y013150D01*
X018752Y013650D01*
X018752Y014650D01*
X018252Y015150D01*
X017752Y014650D02*
X018252Y014150D01*
X017752Y014650D02*
X017752Y015650D01*
X017252Y016150D01*
X016752Y016150D01*
X016252Y016650D01*
X016252Y020150D01*
X015752Y019650D02*
X015752Y016650D01*
X017252Y015150D01*
X016252Y012150D02*
X015252Y011150D01*
X016252Y012150D02*
X021252Y012150D01*
X022752Y013650D01*
X022752Y016150D01*
X023502Y016900D01*
X025752Y016900D01*
X024752Y011400D02*
X017002Y011400D01*
X015252Y009650D01*
X015252Y007650D01*
X019252Y003650D01*
X022752Y003650D01*
X024752Y001650D01*
X024752Y001150D01*
X023752Y001150D02*
X023752Y001650D01*
X022252Y003150D01*
X015752Y003150D01*
X014502Y004400D01*
X010252Y004400D01*
X011252Y003900D02*
X014502Y003900D01*
X015752Y002650D01*
X021252Y002650D01*
X022752Y001150D01*
X015752Y008150D02*
X018502Y010900D01*
X025752Y010900D01*
X015252Y019150D02*
X014252Y020150D01*
X015252Y020150D02*
X015752Y019650D01*
D17*
X013252Y011150D02*
X011669Y011150D01*
X010252Y007650D02*
X009252Y006650D01*
X009252Y002650D01*
X009752Y002150D01*
X020252Y002150D01*
X020752Y001650D01*
X020752Y001150D01*
X017752Y003650D02*
X016752Y004650D01*
M02*
