G75*
%MOIN*%
%OFA0B0*%
%FSLAX24Y24*%
%IPPOS*%
%LPD*%
%AMOC8*
5,1,8,0,0,1.08239X$1,22.5*
%
%ADD10R,0.0512X0.0591*%
%ADD11OC8,0.0630*%
%ADD12C,0.0630*%
%ADD13C,0.0740*%
%ADD14OC8,0.0740*%
%ADD15R,0.0880X0.0480*%
%ADD16R,0.0866X0.1417*%
%ADD17R,0.0591X0.0512*%
%ADD18C,0.0250*%
%ADD19C,0.0100*%
%ADD20OC8,0.0270*%
%ADD21C,0.0060*%
D10*
X013878Y008150D03*
X014626Y008150D03*
X014626Y009650D03*
X013878Y009650D03*
X013878Y011150D03*
X014626Y011150D03*
X014626Y016650D03*
X013878Y016650D03*
X013878Y018150D03*
X014626Y018150D03*
D11*
X013359Y013650D03*
X023252Y014150D03*
D12*
X022252Y014150D03*
X013359Y012650D03*
D13*
X010252Y015400D03*
X011252Y015900D03*
X010252Y016400D03*
X011252Y016900D03*
X010252Y017400D03*
X011252Y017900D03*
X011252Y020150D03*
X010252Y020150D03*
X012252Y020150D03*
X013252Y020150D03*
X014252Y020150D03*
X015252Y020150D03*
X016252Y020150D03*
X017252Y020150D03*
X018252Y020150D03*
X019252Y020150D03*
X020752Y020150D03*
X021752Y020150D03*
X022752Y020150D03*
X023752Y020150D03*
X024752Y020150D03*
X025752Y020150D03*
X026752Y020150D03*
X027752Y020150D03*
X025752Y017900D03*
X024752Y017400D03*
X025752Y016900D03*
X024752Y016400D03*
X025752Y015900D03*
X024752Y015400D03*
X025752Y011900D03*
X024752Y011400D03*
X025752Y010900D03*
X024752Y010400D03*
X025752Y009900D03*
X024752Y009400D03*
X025752Y005900D03*
X024752Y005400D03*
X025752Y004900D03*
X024752Y004400D03*
X025752Y003900D03*
X024752Y003400D03*
X024752Y001150D03*
X023752Y001150D03*
X022752Y001150D03*
X020752Y001150D03*
X019752Y001150D03*
X018752Y001150D03*
X017752Y001150D03*
X016752Y001150D03*
X015752Y001150D03*
X014752Y001150D03*
X013752Y001150D03*
X010252Y003400D03*
X011252Y003900D03*
X010252Y004400D03*
X011252Y004900D03*
X010252Y005400D03*
X011252Y005900D03*
X025752Y001150D03*
X026752Y001150D03*
X027752Y001150D03*
D14*
X020252Y014150D03*
X019252Y014150D03*
X018252Y014150D03*
X017252Y014150D03*
X017252Y015150D03*
X018252Y015150D03*
X019252Y015150D03*
X020252Y015150D03*
D15*
X010472Y013060D03*
X010472Y012150D03*
X010472Y011240D03*
X010472Y010060D03*
X010472Y009150D03*
X010472Y008240D03*
D16*
X008032Y009150D03*
X008032Y012150D03*
D17*
X016752Y003024D03*
X016752Y002276D03*
D18*
X016752Y001150D01*
X017752Y001150D02*
X017752Y003650D01*
X017502Y004400D02*
X016752Y003650D01*
X016752Y003024D01*
X016752Y003650D02*
X015502Y004900D01*
X012359Y004900D01*
X011252Y004900D01*
X012359Y004900D02*
X012359Y013060D01*
X010472Y013060D01*
X012359Y013060D02*
X012359Y016544D01*
X012002Y016900D01*
X011252Y016900D01*
X013359Y012650D02*
X013359Y011276D01*
X013378Y011276D01*
X013252Y011150D01*
X013359Y011276D02*
X013878Y011150D01*
X013878Y009650D01*
X013878Y008150D01*
X013878Y007524D01*
X016752Y004650D01*
X017502Y004400D02*
X020252Y004400D01*
X020252Y014150D01*
X022252Y014150D01*
X011669Y011150D02*
X011377Y011150D01*
X011377Y011240D01*
X010472Y011240D01*
X010472Y010060D01*
X011252Y011150D02*
X011377Y011150D01*
X010472Y008240D02*
X010472Y007870D01*
X010252Y007650D01*
X020252Y004400D02*
X024752Y004400D01*
D19*
X006752Y001650D02*
X006752Y019650D01*
X007752Y020650D01*
X013108Y020650D01*
X013053Y020632D01*
X012980Y020595D01*
X012914Y020547D01*
X012856Y020489D01*
X012808Y020423D01*
X012770Y020350D01*
X012745Y020272D01*
X012734Y020200D01*
X013202Y020200D01*
X013202Y020100D01*
X012734Y020100D01*
X012745Y020028D01*
X012770Y019950D01*
X012808Y019877D01*
X012856Y019811D01*
X012914Y019753D01*
X012980Y019705D01*
X013053Y019668D01*
X013131Y019643D01*
X013202Y019631D01*
X013202Y020100D01*
X013302Y020100D01*
X013302Y019631D01*
X013374Y019643D01*
X013452Y019668D01*
X013525Y019705D01*
X013591Y019753D01*
X013649Y019811D01*
X013697Y019877D01*
X013734Y019950D01*
X013760Y020028D01*
X013771Y020100D01*
X013302Y020100D01*
X013302Y020200D01*
X013771Y020200D01*
X013760Y020272D01*
X013734Y020350D01*
X013697Y020423D01*
X013649Y020489D01*
X013591Y020547D01*
X013525Y020595D01*
X013452Y020632D01*
X013396Y020650D01*
X027752Y020650D01*
X027772Y020630D01*
X027657Y020630D01*
X027480Y020557D01*
X027345Y020422D01*
X027272Y020245D01*
X027272Y020055D01*
X027345Y019878D01*
X027480Y019743D01*
X027657Y019670D01*
X027848Y019670D01*
X028024Y019743D01*
X028159Y019878D01*
X028232Y020055D01*
X028232Y020170D01*
X029252Y019150D01*
X029252Y002650D01*
X029092Y002490D01*
X029092Y002817D01*
X028964Y003126D01*
X028728Y003362D01*
X028419Y003490D01*
X028085Y003490D01*
X027777Y003362D01*
X027540Y003126D01*
X027412Y002817D01*
X027412Y002483D01*
X027540Y002174D01*
X027777Y001938D01*
X028085Y001810D01*
X028412Y001810D01*
X028252Y001650D01*
X028252Y000650D01*
X019896Y000650D01*
X019952Y000668D01*
X020025Y000705D01*
X020091Y000753D01*
X020149Y000811D01*
X020197Y000877D01*
X020234Y000950D01*
X020260Y001028D01*
X020271Y001100D01*
X019802Y001100D01*
X019802Y001200D01*
X019702Y001200D01*
X019702Y001100D01*
X019234Y001100D01*
X018802Y001100D01*
X018802Y001200D01*
X018702Y001200D01*
X018702Y001100D01*
X018234Y001100D01*
X018245Y001028D01*
X018270Y000950D01*
X018308Y000877D01*
X018356Y000811D01*
X018414Y000753D01*
X018480Y000705D01*
X018553Y000668D01*
X018608Y000650D01*
X007752Y000650D01*
X006752Y001650D01*
X006775Y001628D02*
X013651Y001628D01*
X013657Y001630D02*
X013480Y001557D01*
X013345Y001422D01*
X013272Y001245D01*
X013272Y001055D01*
X013345Y000878D01*
X013480Y000743D01*
X013657Y000670D01*
X013848Y000670D01*
X014024Y000743D01*
X014159Y000878D01*
X014232Y001055D01*
X014232Y001245D01*
X014159Y001422D01*
X014024Y001557D01*
X013848Y001630D01*
X013657Y001630D01*
X013854Y001628D02*
X014651Y001628D01*
X014657Y001630D02*
X014480Y001557D01*
X014345Y001422D01*
X014272Y001245D01*
X014272Y001055D01*
X014345Y000878D01*
X014480Y000743D01*
X014657Y000670D01*
X014848Y000670D01*
X015024Y000743D01*
X015159Y000878D01*
X015232Y001055D01*
X015232Y001245D01*
X015159Y001422D01*
X015024Y001557D01*
X014848Y001630D01*
X014657Y001630D01*
X014854Y001628D02*
X015651Y001628D01*
X015657Y001630D02*
X015480Y001557D01*
X015345Y001422D01*
X015272Y001245D01*
X015272Y001055D01*
X015345Y000878D01*
X015480Y000743D01*
X015657Y000670D01*
X015848Y000670D01*
X016024Y000743D01*
X016159Y000878D01*
X016232Y001055D01*
X016232Y001245D01*
X016159Y001422D01*
X016024Y001557D01*
X015848Y001630D01*
X015657Y001630D01*
X015854Y001628D02*
X016517Y001628D01*
X016517Y001572D02*
X016480Y001557D01*
X016345Y001422D01*
X016272Y001245D01*
X016272Y001055D01*
X016345Y000878D01*
X016480Y000743D01*
X016657Y000670D01*
X016848Y000670D01*
X017024Y000743D01*
X017159Y000878D01*
X017232Y001055D01*
X017232Y001245D01*
X017159Y001422D01*
X017024Y001557D01*
X016987Y001572D01*
X016987Y001910D01*
X017093Y001910D01*
X017158Y001975D01*
X017158Y002577D01*
X017093Y002642D01*
X016412Y002642D01*
X016347Y002577D01*
X016347Y001975D01*
X016412Y001910D01*
X016517Y001910D01*
X016517Y001572D01*
X016453Y001529D02*
X016052Y001529D01*
X016151Y001431D02*
X016354Y001431D01*
X016308Y001332D02*
X016197Y001332D01*
X016232Y001234D02*
X016272Y001234D01*
X016272Y001135D02*
X016232Y001135D01*
X016225Y001037D02*
X016280Y001037D01*
X016321Y000938D02*
X016184Y000938D01*
X016121Y000840D02*
X016384Y000840D01*
X016485Y000741D02*
X016019Y000741D01*
X015485Y000741D02*
X015019Y000741D01*
X015121Y000840D02*
X015384Y000840D01*
X015321Y000938D02*
X015184Y000938D01*
X015225Y001037D02*
X015280Y001037D01*
X015272Y001135D02*
X015232Y001135D01*
X015232Y001234D02*
X015272Y001234D01*
X015308Y001332D02*
X015197Y001332D01*
X015151Y001431D02*
X015354Y001431D01*
X015453Y001529D02*
X015052Y001529D01*
X014453Y001529D02*
X014052Y001529D01*
X014151Y001431D02*
X014354Y001431D01*
X014308Y001332D02*
X014197Y001332D01*
X014232Y001234D02*
X014272Y001234D01*
X014272Y001135D02*
X014232Y001135D01*
X014225Y001037D02*
X014280Y001037D01*
X014321Y000938D02*
X014184Y000938D01*
X014121Y000840D02*
X014384Y000840D01*
X014485Y000741D02*
X014019Y000741D01*
X013485Y000741D02*
X007661Y000741D01*
X007563Y000840D02*
X013384Y000840D01*
X013321Y000938D02*
X007464Y000938D01*
X007366Y001037D02*
X013280Y001037D01*
X013272Y001135D02*
X007267Y001135D01*
X007169Y001234D02*
X013272Y001234D01*
X013308Y001332D02*
X007070Y001332D01*
X006972Y001431D02*
X013354Y001431D01*
X013453Y001529D02*
X006873Y001529D01*
X006752Y001726D02*
X016517Y001726D01*
X016517Y001825D02*
X007954Y001825D01*
X007919Y001810D02*
X008228Y001938D01*
X008464Y002174D01*
X008592Y002483D01*
X008592Y002817D01*
X008464Y003126D01*
X008228Y003362D01*
X007919Y003490D01*
X007585Y003490D01*
X007277Y003362D01*
X007040Y003126D01*
X006912Y002817D01*
X006912Y002483D01*
X007040Y002174D01*
X007277Y001938D01*
X007585Y001810D01*
X007919Y001810D01*
X008192Y001923D02*
X016399Y001923D01*
X016347Y002022D02*
X008312Y002022D01*
X008410Y002120D02*
X016347Y002120D01*
X016347Y002219D02*
X008483Y002219D01*
X008524Y002317D02*
X016347Y002317D01*
X016347Y002416D02*
X008564Y002416D01*
X008592Y002514D02*
X016347Y002514D01*
X016382Y002613D02*
X008592Y002613D01*
X008592Y002711D02*
X016359Y002711D01*
X016347Y002723D02*
X016412Y002658D01*
X017093Y002658D01*
X017158Y002723D01*
X017158Y003325D01*
X017093Y003390D01*
X016987Y003390D01*
X016987Y003553D01*
X017600Y004165D01*
X024330Y004165D01*
X024345Y004128D01*
X024480Y003993D01*
X024657Y003920D01*
X024848Y003920D01*
X025024Y003993D01*
X025159Y004128D01*
X025232Y004305D01*
X025232Y004495D01*
X025159Y004672D01*
X025024Y004807D01*
X024848Y004880D01*
X024657Y004880D01*
X024480Y004807D01*
X024345Y004672D01*
X024330Y004635D01*
X020487Y004635D01*
X020487Y013706D01*
X020696Y013915D01*
X021890Y013915D01*
X021892Y013909D01*
X022012Y013790D01*
X022168Y013725D01*
X022337Y013725D01*
X022493Y013790D01*
X022613Y013909D01*
X022677Y014065D01*
X022677Y014235D01*
X022677Y014236D02*
X022787Y014236D01*
X022787Y014180D02*
X023222Y014180D01*
X023222Y014120D01*
X022787Y014120D01*
X022787Y013957D01*
X023060Y013685D01*
X023222Y013685D01*
X023222Y014120D01*
X023282Y014120D01*
X023282Y013685D01*
X023445Y013685D01*
X023717Y013957D01*
X023717Y014120D01*
X023282Y014120D01*
X023282Y014180D01*
X023222Y014180D01*
X023222Y014615D01*
X023060Y014615D01*
X022787Y014343D01*
X022787Y014180D01*
X022677Y014137D02*
X023222Y014137D01*
X023282Y014137D02*
X027577Y014137D01*
X027540Y014174D02*
X027777Y013938D01*
X028085Y013810D01*
X028419Y013810D01*
X028728Y013938D01*
X028964Y014174D01*
X029092Y014483D01*
X029092Y014817D01*
X028964Y015126D01*
X028728Y015362D01*
X028419Y015490D01*
X028085Y015490D01*
X027777Y015362D01*
X027540Y015126D01*
X027412Y014817D01*
X027412Y014483D01*
X027540Y014174D01*
X027515Y014236D02*
X023717Y014236D01*
X023717Y014180D02*
X023717Y014343D01*
X023445Y014615D01*
X023282Y014615D01*
X023282Y014180D01*
X023717Y014180D01*
X023717Y014039D02*
X027676Y014039D01*
X027774Y013940D02*
X023700Y013940D01*
X023602Y013842D02*
X028009Y013842D01*
X028085Y013490D02*
X027777Y013362D01*
X027540Y013126D01*
X027412Y012817D01*
X027412Y012483D01*
X027540Y012174D01*
X027777Y011938D01*
X028085Y011810D01*
X028419Y011810D01*
X028728Y011938D01*
X028964Y012174D01*
X029092Y012483D01*
X029092Y012817D01*
X028964Y013126D01*
X028728Y013362D01*
X028419Y013490D01*
X028085Y013490D01*
X027983Y013448D02*
X020487Y013448D01*
X020487Y013546D02*
X029252Y013546D01*
X029252Y013448D02*
X028522Y013448D01*
X028741Y013349D02*
X029252Y013349D01*
X029252Y013251D02*
X028840Y013251D01*
X028938Y013152D02*
X029252Y013152D01*
X029252Y013054D02*
X028994Y013054D01*
X029035Y012955D02*
X029252Y012955D01*
X029252Y012857D02*
X029076Y012857D01*
X029092Y012758D02*
X029252Y012758D01*
X029252Y012660D02*
X029092Y012660D01*
X029092Y012561D02*
X029252Y012561D01*
X029252Y012463D02*
X029084Y012463D01*
X029043Y012364D02*
X029252Y012364D01*
X029252Y012266D02*
X029002Y012266D01*
X028957Y012167D02*
X029252Y012167D01*
X029252Y012069D02*
X028859Y012069D01*
X028760Y011970D02*
X029252Y011970D01*
X029252Y011872D02*
X028568Y011872D01*
X027937Y011872D02*
X026232Y011872D01*
X026232Y011805D02*
X026159Y011628D01*
X026024Y011493D01*
X025848Y011420D01*
X025657Y011420D01*
X025480Y011493D01*
X025345Y011628D01*
X025272Y011805D01*
X025272Y011995D01*
X025345Y012172D01*
X025480Y012307D01*
X025657Y012380D01*
X025848Y012380D01*
X026024Y012307D01*
X026159Y012172D01*
X026232Y011995D01*
X026232Y011805D01*
X026219Y011773D02*
X029252Y011773D01*
X029252Y011675D02*
X026179Y011675D01*
X026107Y011576D02*
X029252Y011576D01*
X029252Y011478D02*
X025987Y011478D01*
X025850Y011379D02*
X029252Y011379D01*
X029252Y011281D02*
X026051Y011281D01*
X026024Y011307D02*
X025848Y011380D01*
X025657Y011380D01*
X025480Y011307D01*
X025345Y011172D01*
X025272Y010995D01*
X025272Y010805D01*
X025345Y010628D01*
X025480Y010493D01*
X025657Y010420D01*
X025848Y010420D01*
X026024Y010493D01*
X026159Y010628D01*
X026232Y010805D01*
X026232Y010995D01*
X026159Y011172D01*
X026024Y011307D01*
X026149Y011182D02*
X029252Y011182D01*
X029252Y011084D02*
X026196Y011084D01*
X026232Y010985D02*
X029252Y010985D01*
X029252Y010887D02*
X026232Y010887D01*
X026226Y010788D02*
X029252Y010788D01*
X029252Y010690D02*
X026185Y010690D01*
X026122Y010591D02*
X029252Y010591D01*
X029252Y010493D02*
X026023Y010493D01*
X025952Y010382D02*
X025874Y010407D01*
X025802Y010419D01*
X025802Y009950D01*
X025702Y009950D01*
X025702Y009850D01*
X025234Y009850D01*
X025245Y009778D01*
X025270Y009700D01*
X025308Y009627D01*
X025356Y009561D01*
X025414Y009503D01*
X025480Y009455D01*
X025553Y009418D01*
X025631Y009393D01*
X025702Y009381D01*
X025702Y009850D01*
X025802Y009850D01*
X025802Y009381D01*
X025874Y009393D01*
X025952Y009418D01*
X026025Y009455D01*
X026091Y009503D01*
X026149Y009561D01*
X026197Y009627D01*
X026234Y009700D01*
X026260Y009778D01*
X026271Y009850D01*
X025802Y009850D01*
X025802Y009950D01*
X026271Y009950D01*
X026260Y010022D01*
X026234Y010100D01*
X026197Y010173D01*
X026149Y010239D01*
X026091Y010297D01*
X026025Y010345D01*
X025952Y010382D01*
X025915Y010394D02*
X029252Y010394D01*
X029252Y010296D02*
X026092Y010296D01*
X026179Y010197D02*
X029252Y010197D01*
X029252Y010099D02*
X026235Y010099D01*
X026263Y010000D02*
X029252Y010000D01*
X029252Y009902D02*
X025802Y009902D01*
X025802Y010000D02*
X025702Y010000D01*
X025702Y009950D02*
X025702Y010419D01*
X025631Y010407D01*
X025553Y010382D01*
X025480Y010345D01*
X025414Y010297D01*
X025356Y010239D01*
X025308Y010173D01*
X025270Y010100D01*
X025245Y010022D01*
X025234Y009950D01*
X025702Y009950D01*
X025702Y009902D02*
X024901Y009902D01*
X024874Y009893D02*
X024952Y009918D01*
X025025Y009955D01*
X025091Y010003D01*
X025149Y010061D01*
X025197Y010127D01*
X025234Y010200D01*
X025260Y010278D01*
X025271Y010350D01*
X024802Y010350D01*
X024802Y009881D01*
X024874Y009893D01*
X024848Y009880D02*
X024657Y009880D01*
X024480Y009807D01*
X024345Y009672D01*
X024272Y009495D01*
X024272Y009305D01*
X024345Y009128D01*
X024480Y008993D01*
X024657Y008920D01*
X024848Y008920D01*
X025024Y008993D01*
X025159Y009128D01*
X025232Y009305D01*
X025232Y009495D01*
X025159Y009672D01*
X025024Y009807D01*
X024848Y009880D01*
X024802Y009902D02*
X024702Y009902D01*
X024702Y009881D02*
X024702Y010350D01*
X024234Y010350D01*
X024245Y010278D01*
X024270Y010200D01*
X024308Y010127D01*
X024356Y010061D01*
X024414Y010003D01*
X024480Y009955D01*
X024553Y009918D01*
X024631Y009893D01*
X024702Y009881D01*
X024604Y009902D02*
X020487Y009902D01*
X020487Y010000D02*
X024418Y010000D01*
X024329Y010099D02*
X020487Y010099D01*
X020487Y010197D02*
X024272Y010197D01*
X024242Y010296D02*
X020487Y010296D01*
X020487Y010394D02*
X024702Y010394D01*
X024702Y010350D02*
X024702Y010450D01*
X024234Y010450D01*
X024245Y010522D01*
X024270Y010600D01*
X024308Y010673D01*
X024356Y010739D01*
X024414Y010797D01*
X024480Y010845D01*
X024553Y010882D01*
X024631Y010907D01*
X024702Y010919D01*
X024702Y010450D01*
X024802Y010450D01*
X024802Y010919D01*
X024874Y010907D01*
X024952Y010882D01*
X025025Y010845D01*
X025091Y010797D01*
X025149Y010739D01*
X025197Y010673D01*
X025234Y010600D01*
X025260Y010522D01*
X025271Y010450D01*
X024802Y010450D01*
X024802Y010350D01*
X024702Y010350D01*
X024702Y010296D02*
X024802Y010296D01*
X024802Y010394D02*
X025590Y010394D01*
X025702Y010394D02*
X025802Y010394D01*
X025802Y010296D02*
X025702Y010296D01*
X025702Y010197D02*
X025802Y010197D01*
X025802Y010099D02*
X025702Y010099D01*
X025702Y009803D02*
X025802Y009803D01*
X025802Y009705D02*
X025702Y009705D01*
X025702Y009606D02*
X025802Y009606D01*
X025802Y009508D02*
X025702Y009508D01*
X025702Y009409D02*
X025802Y009409D01*
X025924Y009409D02*
X027890Y009409D01*
X027777Y009362D02*
X028085Y009490D01*
X028419Y009490D01*
X028728Y009362D01*
X028964Y009126D01*
X029092Y008817D01*
X029092Y008483D01*
X028964Y008174D01*
X028728Y007938D01*
X028419Y007810D01*
X028085Y007810D01*
X027777Y007938D01*
X027540Y008174D01*
X027412Y008483D01*
X027412Y008817D01*
X027540Y009126D01*
X027777Y009362D01*
X027725Y009311D02*
X025232Y009311D01*
X025232Y009409D02*
X025581Y009409D01*
X025409Y009508D02*
X025227Y009508D01*
X025187Y009606D02*
X025323Y009606D01*
X025269Y009705D02*
X025127Y009705D01*
X025028Y009803D02*
X025241Y009803D01*
X025242Y010000D02*
X025087Y010000D01*
X025176Y010099D02*
X025270Y010099D01*
X025233Y010197D02*
X025325Y010197D01*
X025262Y010296D02*
X025412Y010296D01*
X025482Y010493D02*
X025264Y010493D01*
X025237Y010591D02*
X025383Y010591D01*
X025320Y010690D02*
X025185Y010690D01*
X025100Y010788D02*
X025279Y010788D01*
X025272Y010887D02*
X024938Y010887D01*
X024848Y010920D02*
X025024Y010993D01*
X025159Y011128D01*
X025232Y011305D01*
X025232Y011495D01*
X025159Y011672D01*
X025024Y011807D01*
X024848Y011880D01*
X024657Y011880D01*
X024480Y011807D01*
X024345Y011672D01*
X024272Y011495D01*
X024272Y011305D01*
X024345Y011128D01*
X024480Y010993D01*
X024657Y010920D01*
X024848Y010920D01*
X024802Y010887D02*
X024702Y010887D01*
X024702Y010788D02*
X024802Y010788D01*
X024802Y010690D02*
X024702Y010690D01*
X024702Y010591D02*
X024802Y010591D01*
X024802Y010493D02*
X024702Y010493D01*
X024702Y010197D02*
X024802Y010197D01*
X024802Y010099D02*
X024702Y010099D01*
X024702Y010000D02*
X024802Y010000D01*
X024477Y009803D02*
X020487Y009803D01*
X020487Y009705D02*
X024378Y009705D01*
X024318Y009606D02*
X020487Y009606D01*
X020487Y009508D02*
X024277Y009508D01*
X024272Y009409D02*
X020487Y009409D01*
X020487Y009311D02*
X024272Y009311D01*
X024311Y009212D02*
X020487Y009212D01*
X020487Y009114D02*
X024360Y009114D01*
X024459Y009015D02*
X020487Y009015D01*
X020487Y008917D02*
X027454Y008917D01*
X027494Y009015D02*
X025046Y009015D01*
X025145Y009114D02*
X027535Y009114D01*
X027626Y009212D02*
X025194Y009212D01*
X026095Y009508D02*
X029252Y009508D01*
X029252Y009606D02*
X026182Y009606D01*
X026236Y009705D02*
X029252Y009705D01*
X029252Y009803D02*
X026263Y009803D01*
X027413Y008818D02*
X020487Y008818D01*
X020487Y008720D02*
X027412Y008720D01*
X027412Y008621D02*
X020487Y008621D01*
X020487Y008523D02*
X027412Y008523D01*
X027437Y008424D02*
X020487Y008424D01*
X020487Y008326D02*
X027478Y008326D01*
X027518Y008227D02*
X020487Y008227D01*
X020487Y008129D02*
X027586Y008129D01*
X027684Y008030D02*
X020487Y008030D01*
X020487Y007932D02*
X027792Y007932D01*
X028030Y007833D02*
X020487Y007833D01*
X020487Y007735D02*
X029252Y007735D01*
X029252Y007833D02*
X028475Y007833D01*
X028713Y007932D02*
X029252Y007932D01*
X029252Y008030D02*
X028820Y008030D01*
X028919Y008129D02*
X029252Y008129D01*
X029252Y008227D02*
X028986Y008227D01*
X029027Y008326D02*
X029252Y008326D01*
X029252Y008424D02*
X029068Y008424D01*
X029092Y008523D02*
X029252Y008523D01*
X029252Y008621D02*
X029092Y008621D01*
X029092Y008720D02*
X029252Y008720D01*
X029252Y008818D02*
X029092Y008818D01*
X029051Y008917D02*
X029252Y008917D01*
X029252Y009015D02*
X029010Y009015D01*
X028970Y009114D02*
X029252Y009114D01*
X029252Y009212D02*
X028878Y009212D01*
X028780Y009311D02*
X029252Y009311D01*
X029252Y009409D02*
X028615Y009409D01*
X029252Y007636D02*
X020487Y007636D01*
X020487Y007538D02*
X029252Y007538D01*
X029252Y007439D02*
X028543Y007439D01*
X028419Y007490D02*
X028728Y007362D01*
X028964Y007126D01*
X029092Y006817D01*
X029092Y006483D01*
X028964Y006174D01*
X028728Y005938D01*
X028419Y005810D01*
X028085Y005810D01*
X027777Y005938D01*
X027540Y006174D01*
X027412Y006483D01*
X027412Y006817D01*
X027540Y007126D01*
X027777Y007362D01*
X028085Y007490D01*
X028419Y007490D01*
X027962Y007439D02*
X020487Y007439D01*
X020487Y007341D02*
X027755Y007341D01*
X027656Y007242D02*
X020487Y007242D01*
X020487Y007144D02*
X027558Y007144D01*
X027507Y007045D02*
X020487Y007045D01*
X020487Y006947D02*
X027466Y006947D01*
X027425Y006848D02*
X020487Y006848D01*
X020487Y006750D02*
X027412Y006750D01*
X027412Y006651D02*
X020487Y006651D01*
X020487Y006553D02*
X027412Y006553D01*
X027424Y006454D02*
X020487Y006454D01*
X020487Y006356D02*
X025598Y006356D01*
X025657Y006380D02*
X025480Y006307D01*
X025345Y006172D01*
X025272Y005995D01*
X025272Y005805D01*
X025345Y005628D01*
X025434Y005540D01*
X025214Y005540D01*
X025159Y005672D01*
X025024Y005807D01*
X024848Y005880D01*
X024657Y005880D01*
X024480Y005807D01*
X024345Y005672D01*
X024272Y005495D01*
X024272Y005305D01*
X024345Y005128D01*
X024480Y004993D01*
X024657Y004920D01*
X024848Y004920D01*
X025024Y004993D01*
X025159Y005128D01*
X025214Y005260D01*
X025434Y005260D01*
X025345Y005172D01*
X025272Y004995D01*
X025272Y004805D01*
X025345Y004628D01*
X025480Y004493D01*
X025657Y004420D01*
X025848Y004420D01*
X026024Y004493D01*
X026159Y004628D01*
X026214Y004760D01*
X026444Y004760D01*
X026612Y004592D01*
X026612Y001612D01*
X026480Y001557D01*
X026345Y001422D01*
X026272Y001245D01*
X026272Y001055D01*
X026345Y000878D01*
X026480Y000743D01*
X026657Y000670D01*
X026848Y000670D01*
X027024Y000743D01*
X027159Y000878D01*
X027232Y001055D01*
X027232Y001245D01*
X027159Y001422D01*
X027024Y001557D01*
X026892Y001612D01*
X026892Y004708D01*
X026810Y004790D01*
X026560Y005040D01*
X026214Y005040D01*
X026159Y005172D01*
X026071Y005260D01*
X026444Y005260D01*
X027112Y004592D01*
X027112Y001592D01*
X027327Y001377D01*
X027272Y001245D01*
X027272Y001055D01*
X027345Y000878D01*
X027480Y000743D01*
X027657Y000670D01*
X027848Y000670D01*
X028024Y000743D01*
X028159Y000878D01*
X028232Y001055D01*
X028232Y001245D01*
X028159Y001422D01*
X028024Y001557D01*
X027848Y001630D01*
X027657Y001630D01*
X027525Y001575D01*
X027392Y001708D01*
X027392Y004708D01*
X027310Y004790D01*
X026560Y005540D01*
X026071Y005540D01*
X026159Y005628D01*
X026232Y005805D01*
X026232Y005995D01*
X026159Y006172D01*
X026024Y006307D01*
X025848Y006380D01*
X025657Y006380D01*
X025907Y006356D02*
X027465Y006356D01*
X027506Y006257D02*
X026074Y006257D01*
X026165Y006159D02*
X027556Y006159D01*
X027654Y006060D02*
X026206Y006060D01*
X026232Y005962D02*
X027753Y005962D01*
X027957Y005863D02*
X026232Y005863D01*
X026216Y005765D02*
X029252Y005765D01*
X029252Y005863D02*
X028547Y005863D01*
X028752Y005962D02*
X029252Y005962D01*
X029252Y006060D02*
X028850Y006060D01*
X028949Y006159D02*
X029252Y006159D01*
X029252Y006257D02*
X028999Y006257D01*
X029040Y006356D02*
X029252Y006356D01*
X029252Y006454D02*
X029080Y006454D01*
X029092Y006553D02*
X029252Y006553D01*
X029252Y006651D02*
X029092Y006651D01*
X029092Y006750D02*
X029252Y006750D01*
X029252Y006848D02*
X029080Y006848D01*
X029039Y006947D02*
X029252Y006947D01*
X029252Y007045D02*
X028998Y007045D01*
X028947Y007144D02*
X029252Y007144D01*
X029252Y007242D02*
X028848Y007242D01*
X028750Y007341D02*
X029252Y007341D01*
X029252Y005666D02*
X026175Y005666D01*
X026099Y005568D02*
X029252Y005568D01*
X029252Y005469D02*
X026631Y005469D01*
X026730Y005371D02*
X029252Y005371D01*
X029252Y005272D02*
X026828Y005272D01*
X026927Y005174D02*
X029252Y005174D01*
X029252Y005075D02*
X027025Y005075D01*
X027124Y004977D02*
X029252Y004977D01*
X029252Y004878D02*
X027222Y004878D01*
X027321Y004780D02*
X029252Y004780D01*
X029252Y004681D02*
X027392Y004681D01*
X027392Y004583D02*
X029252Y004583D01*
X029252Y004484D02*
X027392Y004484D01*
X027392Y004386D02*
X029252Y004386D01*
X029252Y004287D02*
X027392Y004287D01*
X027392Y004189D02*
X029252Y004189D01*
X029252Y004090D02*
X027392Y004090D01*
X027392Y003992D02*
X029252Y003992D01*
X029252Y003893D02*
X027392Y003893D01*
X027392Y003795D02*
X029252Y003795D01*
X029252Y003696D02*
X027392Y003696D01*
X027392Y003598D02*
X029252Y003598D01*
X029252Y003499D02*
X027392Y003499D01*
X027392Y003401D02*
X027869Y003401D01*
X027716Y003302D02*
X027392Y003302D01*
X027392Y003204D02*
X027618Y003204D01*
X027532Y003105D02*
X027392Y003105D01*
X027392Y003007D02*
X027491Y003007D01*
X027450Y002908D02*
X027392Y002908D01*
X027392Y002810D02*
X027412Y002810D01*
X027412Y002711D02*
X027392Y002711D01*
X027392Y002613D02*
X027412Y002613D01*
X027412Y002514D02*
X027392Y002514D01*
X027392Y002416D02*
X027440Y002416D01*
X027481Y002317D02*
X027392Y002317D01*
X027392Y002219D02*
X027522Y002219D01*
X027594Y002120D02*
X027392Y002120D01*
X027392Y002022D02*
X027693Y002022D01*
X027812Y001923D02*
X027392Y001923D01*
X027392Y001825D02*
X028050Y001825D01*
X027854Y001628D02*
X028252Y001628D01*
X028252Y001529D02*
X028052Y001529D01*
X028151Y001431D02*
X028252Y001431D01*
X028252Y001332D02*
X028197Y001332D01*
X028232Y001234D02*
X028252Y001234D01*
X028252Y001135D02*
X028232Y001135D01*
X028225Y001037D02*
X028252Y001037D01*
X028252Y000938D02*
X028184Y000938D01*
X028121Y000840D02*
X028252Y000840D01*
X028252Y000741D02*
X028019Y000741D01*
X027485Y000741D02*
X027019Y000741D01*
X027121Y000840D02*
X027384Y000840D01*
X027321Y000938D02*
X027184Y000938D01*
X027225Y001037D02*
X027280Y001037D01*
X027272Y001135D02*
X027232Y001135D01*
X027232Y001234D02*
X027272Y001234D01*
X027308Y001332D02*
X027197Y001332D01*
X027151Y001431D02*
X027274Y001431D01*
X027175Y001529D02*
X027052Y001529D01*
X027112Y001628D02*
X026892Y001628D01*
X026892Y001726D02*
X027112Y001726D01*
X027112Y001825D02*
X026892Y001825D01*
X026892Y001923D02*
X027112Y001923D01*
X027112Y002022D02*
X026892Y002022D01*
X026892Y002120D02*
X027112Y002120D01*
X027112Y002219D02*
X026892Y002219D01*
X026892Y002317D02*
X027112Y002317D01*
X027112Y002416D02*
X026892Y002416D01*
X026892Y002514D02*
X027112Y002514D01*
X027112Y002613D02*
X026892Y002613D01*
X026892Y002711D02*
X027112Y002711D01*
X027112Y002810D02*
X026892Y002810D01*
X026892Y002908D02*
X027112Y002908D01*
X027112Y003007D02*
X026892Y003007D01*
X026892Y003105D02*
X027112Y003105D01*
X027112Y003204D02*
X026892Y003204D01*
X026892Y003302D02*
X027112Y003302D01*
X027112Y003401D02*
X026892Y003401D01*
X026892Y003499D02*
X027112Y003499D01*
X027112Y003598D02*
X026892Y003598D01*
X026892Y003696D02*
X027112Y003696D01*
X027112Y003795D02*
X026892Y003795D01*
X026892Y003893D02*
X027112Y003893D01*
X027112Y003992D02*
X026892Y003992D01*
X026892Y004090D02*
X027112Y004090D01*
X027112Y004189D02*
X026892Y004189D01*
X026892Y004287D02*
X027112Y004287D01*
X027112Y004386D02*
X026892Y004386D01*
X026892Y004484D02*
X027112Y004484D01*
X027112Y004583D02*
X026892Y004583D01*
X026892Y004681D02*
X027023Y004681D01*
X026925Y004780D02*
X026821Y004780D01*
X026826Y004878D02*
X026722Y004878D01*
X026728Y004977D02*
X026624Y004977D01*
X026629Y005075D02*
X026199Y005075D01*
X026158Y005174D02*
X026531Y005174D01*
X026523Y004681D02*
X026181Y004681D01*
X026114Y004583D02*
X026612Y004583D01*
X026612Y004484D02*
X026002Y004484D01*
X025952Y004382D02*
X025874Y004407D01*
X025802Y004419D01*
X025802Y003950D01*
X025702Y003950D01*
X025702Y003850D01*
X025234Y003850D01*
X025245Y003778D01*
X025270Y003700D01*
X025308Y003627D01*
X025356Y003561D01*
X025414Y003503D01*
X025480Y003455D01*
X025553Y003418D01*
X025631Y003393D01*
X025702Y003381D01*
X025702Y003850D01*
X025802Y003850D01*
X025802Y003381D01*
X025874Y003393D01*
X025952Y003418D01*
X026025Y003455D01*
X026091Y003503D01*
X026149Y003561D01*
X026197Y003627D01*
X026234Y003700D01*
X026260Y003778D01*
X026271Y003850D01*
X025802Y003850D01*
X025802Y003950D01*
X026271Y003950D01*
X026260Y004022D01*
X026234Y004100D01*
X026197Y004173D01*
X026149Y004239D01*
X026091Y004297D01*
X026025Y004345D01*
X025952Y004382D01*
X025941Y004386D02*
X026612Y004386D01*
X026612Y004287D02*
X026101Y004287D01*
X026186Y004189D02*
X026612Y004189D01*
X026612Y004090D02*
X026237Y004090D01*
X026264Y003992D02*
X026612Y003992D01*
X026612Y003893D02*
X025802Y003893D01*
X025802Y003795D02*
X025702Y003795D01*
X025702Y003893D02*
X017856Y003893D01*
X017854Y003895D02*
X017651Y003895D01*
X017507Y003751D01*
X017507Y003549D01*
X017517Y003539D01*
X017517Y001572D01*
X017480Y001557D01*
X017345Y001422D01*
X017272Y001245D01*
X017272Y001055D01*
X017345Y000878D01*
X017480Y000743D01*
X017657Y000670D01*
X017848Y000670D01*
X018024Y000743D01*
X018159Y000878D01*
X018232Y001055D01*
X018232Y001245D01*
X018159Y001422D01*
X018024Y001557D01*
X017987Y001572D01*
X017987Y003539D01*
X017997Y003549D01*
X017997Y003751D01*
X017854Y003895D01*
X017954Y003795D02*
X024468Y003795D01*
X024480Y003807D02*
X024345Y003672D01*
X024272Y003495D01*
X024272Y003305D01*
X024345Y003128D01*
X024480Y002993D01*
X024657Y002920D01*
X024848Y002920D01*
X025024Y002993D01*
X025159Y003128D01*
X025232Y003305D01*
X025232Y003495D01*
X025159Y003672D01*
X025024Y003807D01*
X024848Y003880D01*
X024657Y003880D01*
X024480Y003807D01*
X024370Y003696D02*
X017997Y003696D01*
X017997Y003598D02*
X024315Y003598D01*
X024274Y003499D02*
X017987Y003499D01*
X017987Y003401D02*
X024272Y003401D01*
X024273Y003302D02*
X017987Y003302D01*
X017987Y003204D02*
X024314Y003204D01*
X024369Y003105D02*
X017987Y003105D01*
X017987Y003007D02*
X024467Y003007D01*
X025038Y003007D02*
X026612Y003007D01*
X026612Y003105D02*
X025136Y003105D01*
X025191Y003204D02*
X026612Y003204D01*
X026612Y003302D02*
X025231Y003302D01*
X025232Y003401D02*
X025607Y003401D01*
X025702Y003401D02*
X025802Y003401D01*
X025898Y003401D02*
X026612Y003401D01*
X026612Y003499D02*
X026085Y003499D01*
X026175Y003598D02*
X026612Y003598D01*
X026612Y003696D02*
X026232Y003696D01*
X026262Y003795D02*
X026612Y003795D01*
X025802Y003696D02*
X025702Y003696D01*
X025702Y003598D02*
X025802Y003598D01*
X025802Y003499D02*
X025702Y003499D01*
X025420Y003499D02*
X025231Y003499D01*
X025190Y003598D02*
X025329Y003598D01*
X025273Y003696D02*
X025135Y003696D01*
X025037Y003795D02*
X025243Y003795D01*
X025234Y003950D02*
X025702Y003950D01*
X025702Y004419D01*
X025631Y004407D01*
X025553Y004382D01*
X025480Y004345D01*
X025414Y004297D01*
X025356Y004239D01*
X025308Y004173D01*
X025270Y004100D01*
X025245Y004022D01*
X025234Y003950D01*
X025240Y003992D02*
X025020Y003992D01*
X025121Y004090D02*
X025267Y004090D01*
X025319Y004189D02*
X025184Y004189D01*
X025225Y004287D02*
X025404Y004287D01*
X025564Y004386D02*
X025232Y004386D01*
X025232Y004484D02*
X025502Y004484D01*
X025391Y004583D02*
X025196Y004583D01*
X025150Y004681D02*
X025324Y004681D01*
X025283Y004780D02*
X025052Y004780D01*
X024984Y004977D02*
X025272Y004977D01*
X025272Y004878D02*
X024853Y004878D01*
X024652Y004878D02*
X020487Y004878D01*
X020487Y004780D02*
X024453Y004780D01*
X024355Y004681D02*
X020487Y004681D01*
X020487Y004977D02*
X024520Y004977D01*
X024399Y005075D02*
X020487Y005075D01*
X020487Y005174D02*
X024327Y005174D01*
X024286Y005272D02*
X020487Y005272D01*
X020487Y005371D02*
X024272Y005371D01*
X024272Y005469D02*
X020487Y005469D01*
X020487Y005568D02*
X024302Y005568D01*
X024343Y005666D02*
X020487Y005666D01*
X020487Y005765D02*
X024438Y005765D01*
X024616Y005863D02*
X020487Y005863D01*
X020487Y005962D02*
X025272Y005962D01*
X025272Y005863D02*
X024889Y005863D01*
X025067Y005765D02*
X025289Y005765D01*
X025330Y005666D02*
X025162Y005666D01*
X025203Y005568D02*
X025406Y005568D01*
X025347Y005174D02*
X025178Y005174D01*
X025106Y005075D02*
X025305Y005075D01*
X025702Y004386D02*
X025802Y004386D01*
X025802Y004287D02*
X025702Y004287D01*
X025702Y004189D02*
X025802Y004189D01*
X025802Y004090D02*
X025702Y004090D01*
X025702Y003992D02*
X025802Y003992D01*
X024484Y003992D02*
X017426Y003992D01*
X017525Y004090D02*
X024384Y004090D01*
X026612Y002908D02*
X017987Y002908D01*
X017987Y002810D02*
X026612Y002810D01*
X026612Y002711D02*
X017987Y002711D01*
X017987Y002613D02*
X026612Y002613D01*
X026612Y002514D02*
X017987Y002514D01*
X017987Y002416D02*
X026612Y002416D01*
X026612Y002317D02*
X017987Y002317D01*
X017987Y002219D02*
X026612Y002219D01*
X026612Y002120D02*
X017987Y002120D01*
X017987Y002022D02*
X026612Y002022D01*
X026612Y001923D02*
X017987Y001923D01*
X017987Y001825D02*
X026612Y001825D01*
X026612Y001726D02*
X017987Y001726D01*
X017987Y001628D02*
X018544Y001628D01*
X018553Y001632D02*
X018480Y001595D01*
X018414Y001547D01*
X018356Y001489D01*
X018308Y001423D01*
X018270Y001350D01*
X018245Y001272D01*
X018234Y001200D01*
X018702Y001200D01*
X018702Y001669D01*
X018631Y001657D01*
X018553Y001632D01*
X018702Y001628D02*
X018802Y001628D01*
X018802Y001669D02*
X018802Y001200D01*
X019702Y001200D01*
X019702Y001669D01*
X019631Y001657D01*
X019553Y001632D01*
X019480Y001595D01*
X019414Y001547D01*
X019356Y001489D01*
X019308Y001423D01*
X019270Y001350D01*
X019252Y001294D01*
X019234Y001350D01*
X019197Y001423D01*
X019149Y001489D01*
X019091Y001547D01*
X019025Y001595D01*
X018952Y001632D01*
X018874Y001657D01*
X018802Y001669D01*
X018802Y001529D02*
X018702Y001529D01*
X018702Y001431D02*
X018802Y001431D01*
X018802Y001332D02*
X018702Y001332D01*
X018702Y001234D02*
X018802Y001234D01*
X018802Y001135D02*
X019702Y001135D01*
X019702Y001234D02*
X019802Y001234D01*
X019802Y001200D02*
X019802Y001669D01*
X019874Y001657D01*
X019952Y001632D01*
X020025Y001595D01*
X020091Y001547D01*
X020149Y001489D01*
X020197Y001423D01*
X020234Y001350D01*
X020260Y001272D01*
X020271Y001200D01*
X019802Y001200D01*
X019802Y001135D02*
X020272Y001135D01*
X020272Y001055D02*
X020272Y001245D01*
X020345Y001422D01*
X020480Y001557D01*
X020657Y001630D01*
X020848Y001630D01*
X021024Y001557D01*
X021159Y001422D01*
X021232Y001245D01*
X021232Y001055D01*
X021159Y000878D01*
X021024Y000743D01*
X020848Y000670D01*
X020657Y000670D01*
X020480Y000743D01*
X020345Y000878D01*
X020272Y001055D01*
X020280Y001037D02*
X020261Y001037D01*
X020228Y000938D02*
X020321Y000938D01*
X020384Y000840D02*
X020170Y000840D01*
X020074Y000741D02*
X020485Y000741D01*
X021019Y000741D02*
X022485Y000741D01*
X022480Y000743D02*
X022657Y000670D01*
X022848Y000670D01*
X023024Y000743D01*
X023159Y000878D01*
X023232Y001055D01*
X023232Y001245D01*
X023159Y001422D01*
X023024Y001557D01*
X022848Y001630D01*
X022657Y001630D01*
X022480Y001557D01*
X022345Y001422D01*
X022272Y001245D01*
X022272Y001055D01*
X022345Y000878D01*
X022480Y000743D01*
X022384Y000840D02*
X021121Y000840D01*
X021184Y000938D02*
X022321Y000938D01*
X022280Y001037D02*
X021225Y001037D01*
X021232Y001135D02*
X022272Y001135D01*
X022272Y001234D02*
X021232Y001234D01*
X021197Y001332D02*
X022308Y001332D01*
X022354Y001431D02*
X021151Y001431D01*
X021052Y001529D02*
X022453Y001529D01*
X022651Y001628D02*
X020854Y001628D01*
X020651Y001628D02*
X019961Y001628D01*
X019802Y001628D02*
X019702Y001628D01*
X019702Y001529D02*
X019802Y001529D01*
X019802Y001431D02*
X019702Y001431D01*
X019702Y001332D02*
X019802Y001332D01*
X020109Y001529D02*
X020453Y001529D01*
X020354Y001431D02*
X020191Y001431D01*
X020240Y001332D02*
X020308Y001332D01*
X020272Y001234D02*
X020266Y001234D01*
X019544Y001628D02*
X018961Y001628D01*
X019109Y001529D02*
X019396Y001529D01*
X019313Y001431D02*
X019191Y001431D01*
X019240Y001332D02*
X019265Y001332D01*
X018702Y001135D02*
X018232Y001135D01*
X018232Y001234D02*
X018239Y001234D01*
X018265Y001332D02*
X018197Y001332D01*
X018151Y001431D02*
X018313Y001431D01*
X018396Y001529D02*
X018052Y001529D01*
X017517Y001628D02*
X016987Y001628D01*
X016987Y001726D02*
X017517Y001726D01*
X017517Y001825D02*
X016987Y001825D01*
X017106Y001923D02*
X017517Y001923D01*
X017517Y002022D02*
X017158Y002022D01*
X017158Y002120D02*
X017517Y002120D01*
X017517Y002219D02*
X017158Y002219D01*
X017158Y002317D02*
X017517Y002317D01*
X017517Y002416D02*
X017158Y002416D01*
X017158Y002514D02*
X017517Y002514D01*
X017517Y002613D02*
X017123Y002613D01*
X017146Y002711D02*
X017517Y002711D01*
X017517Y002810D02*
X017158Y002810D01*
X017158Y002908D02*
X017517Y002908D01*
X017517Y003007D02*
X017158Y003007D01*
X017158Y003105D02*
X017517Y003105D01*
X017517Y003204D02*
X017158Y003204D01*
X017158Y003302D02*
X017517Y003302D01*
X017517Y003401D02*
X016987Y003401D01*
X016987Y003499D02*
X017517Y003499D01*
X017507Y003598D02*
X017032Y003598D01*
X017131Y003696D02*
X017507Y003696D01*
X017550Y003795D02*
X017229Y003795D01*
X017328Y003893D02*
X017649Y003893D01*
X017057Y004287D02*
X016448Y004287D01*
X016546Y004189D02*
X016959Y004189D01*
X016860Y004090D02*
X016645Y004090D01*
X016743Y003992D02*
X016762Y003992D01*
X016752Y003982D02*
X015600Y005135D01*
X012594Y005135D01*
X012594Y016641D01*
X012456Y016779D01*
X012237Y016997D01*
X012237Y016997D01*
X012100Y017135D01*
X011675Y017135D01*
X011659Y017172D01*
X011524Y017307D01*
X011348Y017380D01*
X011157Y017380D01*
X010980Y017307D01*
X010892Y017219D01*
X010892Y017581D01*
X010980Y017493D01*
X011157Y017420D01*
X011348Y017420D01*
X011524Y017493D01*
X011659Y017628D01*
X011732Y017805D01*
X011732Y017995D01*
X011659Y018172D01*
X011524Y018307D01*
X011348Y018380D01*
X011157Y018380D01*
X010980Y018307D01*
X010892Y018219D01*
X010892Y018592D01*
X011060Y018760D01*
X018060Y018760D01*
X019025Y019725D01*
X019157Y019670D01*
X019348Y019670D01*
X019524Y019743D01*
X019659Y019878D01*
X019732Y020055D01*
X019732Y020245D01*
X019659Y020422D01*
X019524Y020557D01*
X019348Y020630D01*
X019157Y020630D01*
X018980Y020557D01*
X018845Y020422D01*
X018772Y020245D01*
X018772Y020055D01*
X018827Y019923D01*
X017944Y019040D01*
X010944Y019040D01*
X010862Y018958D01*
X010612Y018708D01*
X010612Y017775D01*
X010591Y017797D01*
X010525Y017845D01*
X010452Y017882D01*
X010374Y017907D01*
X010302Y017919D01*
X010302Y017450D01*
X010202Y017450D01*
X010202Y017350D01*
X009734Y017350D01*
X009745Y017278D01*
X009770Y017200D01*
X009808Y017127D01*
X009856Y017061D01*
X009914Y017003D01*
X009980Y016955D01*
X010053Y016918D01*
X010131Y016893D01*
X010202Y016881D01*
X010202Y017350D01*
X010302Y017350D01*
X010302Y016881D01*
X010374Y016893D01*
X010452Y016918D01*
X010525Y016955D01*
X010591Y017003D01*
X010612Y017025D01*
X010612Y016719D01*
X010524Y016807D01*
X010348Y016880D01*
X010157Y016880D01*
X009980Y016807D01*
X009887Y016713D01*
X009392Y017208D01*
X009392Y018092D01*
X010435Y019135D01*
X017435Y019135D01*
X018025Y019725D01*
X018157Y019670D01*
X018348Y019670D01*
X018524Y019743D01*
X018659Y019878D01*
X018732Y020055D01*
X018732Y020245D01*
X018659Y020422D01*
X018524Y020557D01*
X018348Y020630D01*
X018157Y020630D01*
X017980Y020557D01*
X017845Y020422D01*
X017772Y020245D01*
X017772Y020055D01*
X017827Y019923D01*
X017319Y019415D01*
X010319Y019415D01*
X010237Y019333D01*
X009194Y018290D01*
X009112Y018208D01*
X009112Y017092D01*
X009194Y017010D01*
X009772Y016432D01*
X009772Y016305D01*
X009845Y016128D01*
X009980Y015993D01*
X010157Y015920D01*
X010348Y015920D01*
X010524Y015993D01*
X010618Y016087D01*
X010694Y016010D01*
X010772Y015932D01*
X010772Y015805D01*
X010845Y015628D01*
X010980Y015493D01*
X011157Y015420D01*
X011348Y015420D01*
X011524Y015493D01*
X011659Y015628D01*
X011732Y015805D01*
X011732Y015995D01*
X011659Y016172D01*
X011524Y016307D01*
X011348Y016380D01*
X011157Y016380D01*
X010980Y016307D01*
X010892Y016219D01*
X010892Y016581D01*
X010980Y016493D01*
X011157Y016420D01*
X011348Y016420D01*
X011524Y016493D01*
X011659Y016628D01*
X011675Y016665D01*
X011905Y016665D01*
X012124Y016446D01*
X012124Y013295D01*
X011022Y013295D01*
X011022Y013346D01*
X010958Y013410D01*
X009987Y013410D01*
X009922Y013346D01*
X009922Y012774D01*
X009987Y012710D01*
X010958Y012710D01*
X011022Y012774D01*
X011022Y012825D01*
X012124Y012825D01*
X012124Y005135D01*
X011675Y005135D01*
X011659Y005172D01*
X011524Y005307D01*
X011348Y005380D01*
X011157Y005380D01*
X010980Y005307D01*
X010845Y005172D01*
X010772Y004995D01*
X010772Y004805D01*
X010845Y004628D01*
X010980Y004493D01*
X011157Y004420D01*
X011348Y004420D01*
X011524Y004493D01*
X011659Y004628D01*
X011675Y004665D01*
X015405Y004665D01*
X016517Y003553D01*
X016517Y003390D01*
X016412Y003390D01*
X016347Y003325D01*
X016347Y002723D01*
X016347Y002810D02*
X008592Y002810D01*
X008555Y002908D02*
X016347Y002908D01*
X016347Y003007D02*
X010538Y003007D01*
X010524Y002993D02*
X010659Y003128D01*
X010732Y003305D01*
X010732Y003495D01*
X010659Y003672D01*
X010524Y003807D01*
X010348Y003880D01*
X010157Y003880D01*
X009980Y003807D01*
X009845Y003672D01*
X009772Y003495D01*
X009772Y003305D01*
X009845Y003128D01*
X009980Y002993D01*
X010157Y002920D01*
X010348Y002920D01*
X010524Y002993D01*
X010636Y003105D02*
X016347Y003105D01*
X016347Y003204D02*
X010691Y003204D01*
X010731Y003302D02*
X016347Y003302D01*
X016517Y003401D02*
X010732Y003401D01*
X010731Y003499D02*
X010975Y003499D01*
X010980Y003493D02*
X011157Y003420D01*
X011348Y003420D01*
X011524Y003493D01*
X011659Y003628D01*
X011732Y003805D01*
X011732Y003995D01*
X011659Y004172D01*
X011524Y004307D01*
X011348Y004380D01*
X011157Y004380D01*
X010980Y004307D01*
X010845Y004172D01*
X010772Y003995D01*
X010772Y003805D01*
X010845Y003628D01*
X010980Y003493D01*
X010876Y003598D02*
X010690Y003598D01*
X010635Y003696D02*
X010817Y003696D01*
X010777Y003795D02*
X010537Y003795D01*
X010520Y003992D02*
X010772Y003992D01*
X010772Y003893D02*
X006752Y003893D01*
X006752Y003795D02*
X009968Y003795D01*
X009870Y003696D02*
X006752Y003696D01*
X006752Y003598D02*
X009815Y003598D01*
X009774Y003499D02*
X006752Y003499D01*
X006752Y003401D02*
X007369Y003401D01*
X007216Y003302D02*
X006752Y003302D01*
X006752Y003204D02*
X007118Y003204D01*
X007032Y003105D02*
X006752Y003105D01*
X006752Y003007D02*
X006991Y003007D01*
X006950Y002908D02*
X006752Y002908D01*
X006752Y002810D02*
X006912Y002810D01*
X006912Y002711D02*
X006752Y002711D01*
X006752Y002613D02*
X006912Y002613D01*
X006912Y002514D02*
X006752Y002514D01*
X006752Y002416D02*
X006940Y002416D01*
X006981Y002317D02*
X006752Y002317D01*
X006752Y002219D02*
X007022Y002219D01*
X007094Y002120D02*
X006752Y002120D01*
X006752Y002022D02*
X007193Y002022D01*
X007312Y001923D02*
X006752Y001923D01*
X006752Y001825D02*
X007550Y001825D01*
X008514Y003007D02*
X009967Y003007D01*
X009869Y003105D02*
X008473Y003105D01*
X008387Y003204D02*
X009814Y003204D01*
X009773Y003302D02*
X008288Y003302D01*
X008135Y003401D02*
X009772Y003401D01*
X009984Y003992D02*
X006752Y003992D01*
X006752Y004090D02*
X009884Y004090D01*
X009845Y004128D02*
X009980Y003993D01*
X010157Y003920D01*
X010348Y003920D01*
X010524Y003993D01*
X010659Y004128D01*
X010732Y004305D01*
X010732Y004495D01*
X010659Y004672D01*
X010524Y004807D01*
X010348Y004880D01*
X010157Y004880D01*
X009980Y004807D01*
X009845Y004672D01*
X009772Y004495D01*
X009772Y004305D01*
X009845Y004128D01*
X009820Y004189D02*
X006752Y004189D01*
X006752Y004287D02*
X009780Y004287D01*
X009772Y004386D02*
X006752Y004386D01*
X006752Y004484D02*
X009772Y004484D01*
X009808Y004583D02*
X006752Y004583D01*
X006752Y004681D02*
X009855Y004681D01*
X009953Y004780D02*
X006752Y004780D01*
X006752Y004878D02*
X010152Y004878D01*
X010131Y004893D02*
X010053Y004918D01*
X009980Y004955D01*
X009914Y005003D01*
X009856Y005061D01*
X009808Y005127D01*
X009770Y005200D01*
X009745Y005278D01*
X009734Y005350D01*
X010202Y005350D01*
X010202Y005450D01*
X009734Y005450D01*
X009745Y005522D01*
X009770Y005600D01*
X009808Y005673D01*
X009856Y005739D01*
X009914Y005797D01*
X009980Y005845D01*
X010053Y005882D01*
X010131Y005907D01*
X010202Y005919D01*
X010202Y005450D01*
X010302Y005450D01*
X010302Y005919D01*
X010374Y005907D01*
X010452Y005882D01*
X010525Y005845D01*
X010591Y005797D01*
X010649Y005739D01*
X010697Y005673D01*
X010734Y005600D01*
X010760Y005522D01*
X010771Y005450D01*
X010302Y005450D01*
X010302Y005350D01*
X010302Y004881D01*
X010374Y004893D01*
X010452Y004918D01*
X010525Y004955D01*
X010591Y005003D01*
X010649Y005061D01*
X010697Y005127D01*
X010734Y005200D01*
X010760Y005278D01*
X010771Y005350D01*
X010302Y005350D01*
X010202Y005350D01*
X010202Y004881D01*
X010131Y004893D01*
X010202Y004977D02*
X010302Y004977D01*
X010302Y005075D02*
X010202Y005075D01*
X010202Y005174D02*
X010302Y005174D01*
X010302Y005272D02*
X010202Y005272D01*
X010202Y005371D02*
X006752Y005371D01*
X006752Y005469D02*
X009737Y005469D01*
X009760Y005568D02*
X006752Y005568D01*
X006752Y005666D02*
X009804Y005666D01*
X009881Y005765D02*
X006752Y005765D01*
X006752Y005863D02*
X007457Y005863D01*
X007585Y005810D02*
X007277Y005938D01*
X007040Y006174D01*
X006912Y006483D01*
X006912Y006817D01*
X007040Y007126D01*
X007277Y007362D01*
X007585Y007490D01*
X007919Y007490D01*
X008228Y007362D01*
X008464Y007126D01*
X008592Y006817D01*
X008592Y006483D01*
X008464Y006174D01*
X008228Y005938D01*
X007919Y005810D01*
X007585Y005810D01*
X008047Y005863D02*
X010016Y005863D01*
X010202Y005863D02*
X010302Y005863D01*
X010302Y005765D02*
X010202Y005765D01*
X010202Y005666D02*
X010302Y005666D01*
X010302Y005568D02*
X010202Y005568D01*
X010202Y005469D02*
X010302Y005469D01*
X010302Y005371D02*
X011134Y005371D01*
X011157Y005420D02*
X010980Y005493D01*
X010845Y005628D01*
X010772Y005805D01*
X010772Y005995D01*
X010845Y006172D01*
X010980Y006307D01*
X011157Y006380D01*
X011348Y006380D01*
X011524Y006307D01*
X011659Y006172D01*
X011732Y005995D01*
X011732Y005805D01*
X011659Y005628D01*
X011524Y005493D01*
X011348Y005420D01*
X011157Y005420D01*
X011039Y005469D02*
X010768Y005469D01*
X010745Y005568D02*
X010906Y005568D01*
X010830Y005666D02*
X010700Y005666D01*
X010623Y005765D02*
X010789Y005765D01*
X010772Y005863D02*
X010489Y005863D01*
X010772Y005962D02*
X008252Y005962D01*
X008350Y006060D02*
X010799Y006060D01*
X010840Y006159D02*
X008449Y006159D01*
X008499Y006257D02*
X010931Y006257D01*
X011098Y006356D02*
X008540Y006356D01*
X008580Y006454D02*
X012124Y006454D01*
X012124Y006356D02*
X011407Y006356D01*
X011574Y006257D02*
X012124Y006257D01*
X012124Y006159D02*
X011665Y006159D01*
X011706Y006060D02*
X012124Y006060D01*
X012124Y005962D02*
X011732Y005962D01*
X011732Y005863D02*
X012124Y005863D01*
X012124Y005765D02*
X011716Y005765D01*
X011675Y005666D02*
X012124Y005666D01*
X012124Y005568D02*
X011599Y005568D01*
X011466Y005469D02*
X012124Y005469D01*
X012124Y005371D02*
X011371Y005371D01*
X011559Y005272D02*
X012124Y005272D01*
X012124Y005174D02*
X011658Y005174D01*
X011614Y004583D02*
X015488Y004583D01*
X015586Y004484D02*
X011502Y004484D01*
X011544Y004287D02*
X015783Y004287D01*
X015685Y004386D02*
X010732Y004386D01*
X010732Y004484D02*
X011002Y004484D01*
X010891Y004583D02*
X010696Y004583D01*
X010650Y004681D02*
X010824Y004681D01*
X010783Y004780D02*
X010552Y004780D01*
X010554Y004977D02*
X010772Y004977D01*
X010772Y004878D02*
X010353Y004878D01*
X010659Y005075D02*
X010805Y005075D01*
X010847Y005174D02*
X010721Y005174D01*
X010758Y005272D02*
X010946Y005272D01*
X009951Y004977D02*
X006752Y004977D01*
X006752Y005075D02*
X009846Y005075D01*
X009784Y005174D02*
X006752Y005174D01*
X006752Y005272D02*
X009747Y005272D01*
X010725Y004287D02*
X010961Y004287D01*
X010862Y004189D02*
X010684Y004189D01*
X010621Y004090D02*
X010812Y004090D01*
X011643Y004189D02*
X015882Y004189D01*
X015980Y004090D02*
X011693Y004090D01*
X011732Y003992D02*
X016079Y003992D01*
X016177Y003893D02*
X011732Y003893D01*
X011728Y003795D02*
X016276Y003795D01*
X016374Y003696D02*
X011687Y003696D01*
X011629Y003598D02*
X016473Y003598D01*
X016517Y003499D02*
X011530Y003499D01*
X012594Y005174D02*
X015897Y005174D01*
X015995Y005075D02*
X015660Y005075D01*
X015758Y004977D02*
X016094Y004977D01*
X016192Y004878D02*
X015857Y004878D01*
X015955Y004780D02*
X016291Y004780D01*
X016389Y004681D02*
X016054Y004681D01*
X016152Y004583D02*
X016488Y004583D01*
X016507Y004563D02*
X016507Y004549D01*
X016651Y004405D01*
X016854Y004405D01*
X016997Y004549D01*
X016997Y004751D01*
X016854Y004895D01*
X016840Y004895D01*
X014113Y007621D01*
X014113Y007745D01*
X014180Y007745D01*
X014244Y007809D01*
X014244Y008491D01*
X014180Y008555D01*
X014113Y008555D01*
X014113Y009245D01*
X014180Y009245D01*
X014244Y009309D01*
X014244Y009991D01*
X014180Y010055D01*
X014113Y010055D01*
X014113Y010745D01*
X014180Y010745D01*
X014244Y010809D01*
X014244Y011491D01*
X014180Y011555D01*
X013594Y011555D01*
X013594Y012287D01*
X013599Y012290D01*
X013719Y012409D01*
X013784Y012565D01*
X013784Y012735D01*
X013719Y012891D01*
X013599Y013010D01*
X013443Y013075D01*
X013274Y013075D01*
X013118Y013010D01*
X012998Y012891D01*
X012934Y012735D01*
X012934Y012565D01*
X012998Y012409D01*
X013118Y012290D01*
X013124Y012287D01*
X013124Y011368D01*
X013007Y011251D01*
X013007Y011049D01*
X013151Y010905D01*
X013354Y010905D01*
X013459Y011010D01*
X013512Y010997D01*
X013512Y010809D01*
X013577Y010745D01*
X013643Y010745D01*
X013643Y010055D01*
X013577Y010055D01*
X013512Y009991D01*
X013512Y009309D01*
X013577Y009245D01*
X013643Y009245D01*
X013643Y008555D01*
X013577Y008555D01*
X013512Y008491D01*
X013512Y007809D01*
X013577Y007745D01*
X013643Y007745D01*
X013643Y007427D01*
X016507Y004563D01*
X016572Y004484D02*
X016251Y004484D01*
X016349Y004386D02*
X017156Y004386D01*
X017254Y004484D02*
X016933Y004484D01*
X016997Y004583D02*
X017353Y004583D01*
X017405Y004635D02*
X017267Y004497D01*
X016752Y003982D01*
X016997Y004681D02*
X020017Y004681D01*
X020017Y004635D02*
X017405Y004635D01*
X016969Y004780D02*
X020017Y004780D01*
X020017Y004878D02*
X016871Y004878D01*
X016758Y004977D02*
X020017Y004977D01*
X020017Y005075D02*
X016660Y005075D01*
X016561Y005174D02*
X020017Y005174D01*
X020017Y005272D02*
X016463Y005272D01*
X016364Y005371D02*
X020017Y005371D01*
X020017Y005469D02*
X016266Y005469D01*
X016167Y005568D02*
X020017Y005568D01*
X020017Y005666D02*
X016069Y005666D01*
X015970Y005765D02*
X020017Y005765D01*
X020017Y005863D02*
X015872Y005863D01*
X015773Y005962D02*
X020017Y005962D01*
X020017Y006060D02*
X015675Y006060D01*
X015576Y006159D02*
X020017Y006159D01*
X020017Y006257D02*
X015478Y006257D01*
X015379Y006356D02*
X020017Y006356D01*
X020017Y006454D02*
X015281Y006454D01*
X015182Y006553D02*
X020017Y006553D01*
X020017Y006651D02*
X015084Y006651D01*
X014985Y006750D02*
X020017Y006750D01*
X020017Y006848D02*
X014887Y006848D01*
X014788Y006947D02*
X020017Y006947D01*
X020017Y007045D02*
X014690Y007045D01*
X014591Y007144D02*
X020017Y007144D01*
X020017Y007242D02*
X014493Y007242D01*
X014394Y007341D02*
X020017Y007341D01*
X020017Y007439D02*
X014296Y007439D01*
X014197Y007538D02*
X020017Y007538D01*
X020017Y007636D02*
X014113Y007636D01*
X014113Y007735D02*
X020017Y007735D01*
X020017Y007833D02*
X014992Y007833D01*
X014992Y007809D02*
X014992Y008010D01*
X015546Y008010D01*
X015651Y007905D01*
X015854Y007905D01*
X015997Y008049D01*
X015997Y008251D01*
X015892Y008356D01*
X015892Y016592D01*
X017205Y017905D01*
X017354Y017905D01*
X017497Y018049D01*
X017497Y018251D01*
X017354Y018395D01*
X017151Y018395D01*
X017007Y018251D01*
X017007Y018103D01*
X016997Y018093D01*
X016997Y018251D01*
X016854Y018395D01*
X016651Y018395D01*
X016546Y018290D01*
X014992Y018290D01*
X014992Y018491D01*
X014928Y018555D01*
X014325Y018555D01*
X014274Y018504D01*
X014254Y018537D01*
X014226Y018565D01*
X014192Y018585D01*
X014154Y018595D01*
X013928Y018595D01*
X013928Y018200D01*
X013828Y018200D01*
X013828Y018100D01*
X013472Y018100D01*
X013472Y017835D01*
X013483Y017797D01*
X013502Y017763D01*
X013530Y017735D01*
X013565Y017715D01*
X013603Y017705D01*
X013828Y017705D01*
X013828Y018100D01*
X013928Y018100D01*
X013928Y017705D01*
X014154Y017705D01*
X014192Y017715D01*
X014226Y017735D01*
X014254Y017763D01*
X014274Y017796D01*
X014325Y017745D01*
X014487Y017745D01*
X014487Y017583D01*
X014112Y017208D01*
X014112Y017095D01*
X013928Y017095D01*
X013928Y016700D01*
X013828Y016700D01*
X013828Y016600D01*
X013472Y016600D01*
X013472Y016335D01*
X013483Y016297D01*
X013502Y016263D01*
X013530Y016235D01*
X013565Y016215D01*
X013603Y016205D01*
X013828Y016205D01*
X013828Y016600D01*
X013928Y016600D01*
X013928Y016205D01*
X014112Y016205D01*
X014112Y015967D01*
X014194Y015885D01*
X014487Y015592D01*
X014486Y011582D01*
X014486Y011555D01*
X014325Y011555D01*
X014260Y011491D01*
X014260Y010809D01*
X014325Y010745D01*
X014928Y010745D01*
X014992Y010809D01*
X014992Y011010D01*
X015046Y011010D01*
X015151Y010905D01*
X015354Y010905D01*
X015497Y011049D01*
X015497Y011251D01*
X015354Y011395D01*
X015151Y011395D01*
X015046Y011290D01*
X014992Y011290D01*
X014992Y011491D01*
X014928Y011555D01*
X014766Y011555D01*
X014767Y015592D01*
X014767Y015592D01*
X014767Y015651D01*
X014767Y015708D01*
X014726Y015749D01*
X014685Y015790D01*
X014392Y016083D01*
X014392Y016245D01*
X014928Y016245D01*
X014992Y016309D01*
X014992Y016510D01*
X015612Y016510D01*
X015612Y008356D01*
X015546Y008290D01*
X014992Y008290D01*
X014992Y008491D01*
X014928Y008555D01*
X014325Y008555D01*
X014260Y008491D01*
X014260Y007809D01*
X014325Y007745D01*
X014928Y007745D01*
X014992Y007809D01*
X014992Y007932D02*
X015624Y007932D01*
X015880Y007932D02*
X020017Y007932D01*
X020017Y008030D02*
X015979Y008030D01*
X015997Y008129D02*
X020017Y008129D01*
X020017Y008227D02*
X015997Y008227D01*
X015923Y008326D02*
X020017Y008326D01*
X020017Y008424D02*
X015892Y008424D01*
X015892Y008523D02*
X020017Y008523D01*
X020017Y008621D02*
X015892Y008621D01*
X015892Y008720D02*
X020017Y008720D01*
X020017Y008818D02*
X015892Y008818D01*
X015892Y008917D02*
X020017Y008917D01*
X020017Y009015D02*
X015892Y009015D01*
X015892Y009114D02*
X020017Y009114D01*
X020017Y009212D02*
X015892Y009212D01*
X015892Y009311D02*
X020017Y009311D01*
X020017Y009409D02*
X015892Y009409D01*
X015892Y009508D02*
X020017Y009508D01*
X020017Y009606D02*
X015892Y009606D01*
X015892Y009705D02*
X020017Y009705D01*
X020017Y009803D02*
X015892Y009803D01*
X015892Y009902D02*
X020017Y009902D01*
X020017Y010000D02*
X015892Y010000D01*
X015892Y010099D02*
X020017Y010099D01*
X020017Y010197D02*
X015892Y010197D01*
X015892Y010296D02*
X020017Y010296D01*
X020017Y010394D02*
X015892Y010394D01*
X015892Y010493D02*
X020017Y010493D01*
X020017Y010591D02*
X015892Y010591D01*
X015892Y010690D02*
X020017Y010690D01*
X020017Y010788D02*
X015892Y010788D01*
X015892Y010887D02*
X020017Y010887D01*
X020017Y010985D02*
X015892Y010985D01*
X015892Y011084D02*
X020017Y011084D01*
X020017Y011182D02*
X015892Y011182D01*
X015892Y011281D02*
X020017Y011281D01*
X020017Y011379D02*
X015892Y011379D01*
X015892Y011478D02*
X020017Y011478D01*
X020017Y011576D02*
X015892Y011576D01*
X015892Y011675D02*
X020017Y011675D01*
X020017Y011773D02*
X015892Y011773D01*
X015892Y011872D02*
X020017Y011872D01*
X020017Y011970D02*
X015892Y011970D01*
X015892Y012069D02*
X020017Y012069D01*
X020017Y012167D02*
X015892Y012167D01*
X015892Y012266D02*
X020017Y012266D01*
X020017Y012364D02*
X015892Y012364D01*
X015892Y012463D02*
X020017Y012463D01*
X020017Y012561D02*
X015892Y012561D01*
X015892Y012660D02*
X020017Y012660D01*
X020017Y012758D02*
X015892Y012758D01*
X015892Y012857D02*
X020017Y012857D01*
X020017Y012955D02*
X015892Y012955D01*
X015892Y013054D02*
X020017Y013054D01*
X020017Y013152D02*
X015892Y013152D01*
X015892Y013251D02*
X020017Y013251D01*
X020017Y013349D02*
X015892Y013349D01*
X015892Y013448D02*
X020017Y013448D01*
X020017Y013546D02*
X015892Y013546D01*
X015892Y013645D02*
X020017Y013645D01*
X020017Y013706D02*
X020017Y004635D01*
X020487Y006060D02*
X025299Y006060D01*
X025340Y006159D02*
X020487Y006159D01*
X020487Y006257D02*
X025431Y006257D01*
X028635Y003401D02*
X029252Y003401D01*
X029252Y003302D02*
X028788Y003302D01*
X028887Y003204D02*
X029252Y003204D01*
X029252Y003105D02*
X028973Y003105D01*
X029014Y003007D02*
X029252Y003007D01*
X029252Y002908D02*
X029055Y002908D01*
X029092Y002810D02*
X029252Y002810D01*
X029252Y002711D02*
X029092Y002711D01*
X029092Y002613D02*
X029215Y002613D01*
X029116Y002514D02*
X029092Y002514D01*
X028328Y001726D02*
X027392Y001726D01*
X027473Y001628D02*
X027651Y001628D01*
X026612Y001628D02*
X025854Y001628D01*
X025848Y001630D02*
X025657Y001630D01*
X025480Y001557D01*
X025345Y001422D01*
X025272Y001245D01*
X025272Y001055D01*
X025345Y000878D01*
X025480Y000743D01*
X025657Y000670D01*
X025848Y000670D01*
X026024Y000743D01*
X026159Y000878D01*
X026232Y001055D01*
X026232Y001245D01*
X026159Y001422D01*
X026024Y001557D01*
X025848Y001630D01*
X025651Y001628D02*
X024854Y001628D01*
X024848Y001630D02*
X024657Y001630D01*
X024480Y001557D01*
X024345Y001422D01*
X024272Y001245D01*
X024272Y001055D01*
X024345Y000878D01*
X024480Y000743D01*
X024657Y000670D01*
X024848Y000670D01*
X025024Y000743D01*
X025159Y000878D01*
X025232Y001055D01*
X025232Y001245D01*
X025159Y001422D01*
X025024Y001557D01*
X024848Y001630D01*
X024651Y001628D02*
X023854Y001628D01*
X023848Y001630D02*
X023657Y001630D01*
X023480Y001557D01*
X023345Y001422D01*
X023272Y001245D01*
X023272Y001055D01*
X023345Y000878D01*
X023480Y000743D01*
X023657Y000670D01*
X023848Y000670D01*
X024024Y000743D01*
X024159Y000878D01*
X024232Y001055D01*
X024232Y001245D01*
X024159Y001422D01*
X024024Y001557D01*
X023848Y001630D01*
X023651Y001628D02*
X022854Y001628D01*
X023052Y001529D02*
X023453Y001529D01*
X023354Y001431D02*
X023151Y001431D01*
X023197Y001332D02*
X023308Y001332D01*
X023272Y001234D02*
X023232Y001234D01*
X023232Y001135D02*
X023272Y001135D01*
X023280Y001037D02*
X023225Y001037D01*
X023184Y000938D02*
X023321Y000938D01*
X023384Y000840D02*
X023121Y000840D01*
X023019Y000741D02*
X023485Y000741D01*
X024019Y000741D02*
X024485Y000741D01*
X024384Y000840D02*
X024121Y000840D01*
X024184Y000938D02*
X024321Y000938D01*
X024280Y001037D02*
X024225Y001037D01*
X024232Y001135D02*
X024272Y001135D01*
X024272Y001234D02*
X024232Y001234D01*
X024197Y001332D02*
X024308Y001332D01*
X024354Y001431D02*
X024151Y001431D01*
X024052Y001529D02*
X024453Y001529D01*
X025052Y001529D02*
X025453Y001529D01*
X025354Y001431D02*
X025151Y001431D01*
X025197Y001332D02*
X025308Y001332D01*
X025272Y001234D02*
X025232Y001234D01*
X025232Y001135D02*
X025272Y001135D01*
X025280Y001037D02*
X025225Y001037D01*
X025184Y000938D02*
X025321Y000938D01*
X025384Y000840D02*
X025121Y000840D01*
X025019Y000741D02*
X025485Y000741D01*
X026019Y000741D02*
X026485Y000741D01*
X026384Y000840D02*
X026121Y000840D01*
X026184Y000938D02*
X026321Y000938D01*
X026280Y001037D02*
X026225Y001037D01*
X026232Y001135D02*
X026272Y001135D01*
X026272Y001234D02*
X026232Y001234D01*
X026197Y001332D02*
X026308Y001332D01*
X026354Y001431D02*
X026151Y001431D01*
X026052Y001529D02*
X026453Y001529D01*
X018431Y000741D02*
X018019Y000741D01*
X018121Y000840D02*
X018335Y000840D01*
X018277Y000938D02*
X018184Y000938D01*
X018225Y001037D02*
X018244Y001037D01*
X017485Y000741D02*
X017019Y000741D01*
X017121Y000840D02*
X017384Y000840D01*
X017321Y000938D02*
X017184Y000938D01*
X017225Y001037D02*
X017280Y001037D01*
X017272Y001135D02*
X017232Y001135D01*
X017232Y001234D02*
X017272Y001234D01*
X017308Y001332D02*
X017197Y001332D01*
X017151Y001431D02*
X017354Y001431D01*
X017453Y001529D02*
X017052Y001529D01*
X015798Y005272D02*
X012594Y005272D01*
X012594Y005371D02*
X015700Y005371D01*
X015601Y005469D02*
X012594Y005469D01*
X012594Y005568D02*
X015503Y005568D01*
X015404Y005666D02*
X012594Y005666D01*
X012594Y005765D02*
X015306Y005765D01*
X015207Y005863D02*
X012594Y005863D01*
X012594Y005962D02*
X015109Y005962D01*
X015010Y006060D02*
X012594Y006060D01*
X012594Y006159D02*
X014912Y006159D01*
X014813Y006257D02*
X012594Y006257D01*
X012594Y006356D02*
X014715Y006356D01*
X014616Y006454D02*
X012594Y006454D01*
X012594Y006553D02*
X014518Y006553D01*
X014419Y006651D02*
X012594Y006651D01*
X012594Y006750D02*
X014321Y006750D01*
X014222Y006848D02*
X012594Y006848D01*
X012594Y006947D02*
X014124Y006947D01*
X014025Y007045D02*
X012594Y007045D01*
X012594Y007144D02*
X013927Y007144D01*
X013828Y007242D02*
X012594Y007242D01*
X012594Y007341D02*
X013730Y007341D01*
X013643Y007439D02*
X012594Y007439D01*
X012594Y007538D02*
X013643Y007538D01*
X013643Y007636D02*
X012594Y007636D01*
X012594Y007735D02*
X013643Y007735D01*
X013512Y007833D02*
X012594Y007833D01*
X012594Y007932D02*
X013512Y007932D01*
X013512Y008030D02*
X012594Y008030D01*
X012594Y008129D02*
X013512Y008129D01*
X013512Y008227D02*
X012594Y008227D01*
X012594Y008326D02*
X013512Y008326D01*
X013512Y008424D02*
X012594Y008424D01*
X012594Y008523D02*
X013544Y008523D01*
X013643Y008621D02*
X012594Y008621D01*
X012594Y008720D02*
X013643Y008720D01*
X013643Y008818D02*
X012594Y008818D01*
X012594Y008917D02*
X013643Y008917D01*
X013643Y009015D02*
X012594Y009015D01*
X012594Y009114D02*
X013643Y009114D01*
X013643Y009212D02*
X012594Y009212D01*
X012594Y009311D02*
X013512Y009311D01*
X013512Y009409D02*
X012594Y009409D01*
X012594Y009508D02*
X013512Y009508D01*
X013512Y009606D02*
X012594Y009606D01*
X012594Y009705D02*
X013512Y009705D01*
X013512Y009803D02*
X012594Y009803D01*
X012594Y009902D02*
X013512Y009902D01*
X013522Y010000D02*
X012594Y010000D01*
X012594Y010099D02*
X013643Y010099D01*
X013643Y010197D02*
X012594Y010197D01*
X012594Y010296D02*
X013643Y010296D01*
X013643Y010394D02*
X012594Y010394D01*
X012594Y010493D02*
X013643Y010493D01*
X013643Y010591D02*
X012594Y010591D01*
X012594Y010690D02*
X013643Y010690D01*
X013534Y010788D02*
X012594Y010788D01*
X012594Y010887D02*
X013512Y010887D01*
X013512Y010985D02*
X013434Y010985D01*
X013071Y010985D02*
X012594Y010985D01*
X012594Y011084D02*
X013007Y011084D01*
X013007Y011182D02*
X012594Y011182D01*
X012594Y011281D02*
X013036Y011281D01*
X013124Y011379D02*
X012594Y011379D01*
X012594Y011478D02*
X013124Y011478D01*
X013124Y011576D02*
X012594Y011576D01*
X012594Y011675D02*
X013124Y011675D01*
X013124Y011773D02*
X012594Y011773D01*
X012594Y011872D02*
X013124Y011872D01*
X013124Y011970D02*
X012594Y011970D01*
X012594Y012069D02*
X013124Y012069D01*
X013124Y012167D02*
X012594Y012167D01*
X012594Y012266D02*
X013124Y012266D01*
X013044Y012364D02*
X012594Y012364D01*
X012594Y012463D02*
X012976Y012463D01*
X012935Y012561D02*
X012594Y012561D01*
X012594Y012660D02*
X012934Y012660D01*
X012943Y012758D02*
X012594Y012758D01*
X012594Y012857D02*
X012984Y012857D01*
X013063Y012955D02*
X012594Y012955D01*
X012594Y013054D02*
X013222Y013054D01*
X013166Y013185D02*
X012894Y013457D01*
X012894Y013620D01*
X013329Y013620D01*
X013389Y013620D01*
X013389Y013680D01*
X013824Y013680D01*
X013824Y013843D01*
X013551Y014115D01*
X013389Y014115D01*
X013389Y013680D01*
X013329Y013680D01*
X013329Y014115D01*
X013166Y014115D01*
X012894Y013843D01*
X012894Y013680D01*
X013329Y013680D01*
X013329Y013620D01*
X013329Y013185D01*
X013166Y013185D01*
X013101Y013251D02*
X012594Y013251D01*
X012594Y013349D02*
X013002Y013349D01*
X012904Y013448D02*
X012594Y013448D01*
X012594Y013546D02*
X012894Y013546D01*
X012894Y013743D02*
X012594Y013743D01*
X012594Y013645D02*
X013329Y013645D01*
X013389Y013645D02*
X014487Y013645D01*
X014487Y013743D02*
X013824Y013743D01*
X013824Y013842D02*
X014487Y013842D01*
X014487Y013940D02*
X013726Y013940D01*
X013628Y014039D02*
X014487Y014039D01*
X014487Y014137D02*
X012594Y014137D01*
X012594Y014039D02*
X013090Y014039D01*
X012991Y013940D02*
X012594Y013940D01*
X012594Y013842D02*
X012894Y013842D01*
X013329Y013842D02*
X013389Y013842D01*
X013389Y013940D02*
X013329Y013940D01*
X013329Y014039D02*
X013389Y014039D01*
X013389Y013743D02*
X013329Y013743D01*
X013389Y013620D02*
X013824Y013620D01*
X013824Y013457D01*
X013551Y013185D01*
X013389Y013185D01*
X013389Y013620D01*
X013389Y013546D02*
X013329Y013546D01*
X013329Y013448D02*
X013389Y013448D01*
X013389Y013349D02*
X013329Y013349D01*
X013329Y013251D02*
X013389Y013251D01*
X013495Y013054D02*
X014487Y013054D01*
X014487Y013152D02*
X012594Y013152D01*
X012124Y013349D02*
X011019Y013349D01*
X011006Y012758D02*
X012124Y012758D01*
X012124Y012660D02*
X008575Y012660D01*
X008575Y012758D02*
X009939Y012758D01*
X009922Y012857D02*
X008575Y012857D01*
X008575Y012904D02*
X008511Y012969D01*
X007554Y012969D01*
X007489Y012904D01*
X007489Y011396D01*
X007554Y011331D01*
X008511Y011331D01*
X008575Y011396D01*
X008575Y012904D01*
X008525Y012955D02*
X009922Y012955D01*
X009922Y013054D02*
X006752Y013054D01*
X006752Y013152D02*
X009922Y013152D01*
X009922Y013251D02*
X006752Y013251D01*
X006752Y013349D02*
X009926Y013349D01*
X010013Y012540D02*
X009974Y012530D01*
X009940Y012510D01*
X009912Y012482D01*
X009893Y012448D01*
X009882Y012410D01*
X009882Y012200D01*
X010422Y012200D01*
X010422Y012100D01*
X009882Y012100D01*
X009882Y011890D01*
X009893Y011852D01*
X009912Y011818D01*
X009940Y011790D01*
X009974Y011770D01*
X010013Y011760D01*
X010422Y011760D01*
X010422Y012100D01*
X010522Y012100D01*
X010522Y011760D01*
X010932Y011760D01*
X010970Y011770D01*
X011004Y011790D01*
X011032Y011818D01*
X011052Y011852D01*
X011062Y011890D01*
X011062Y012100D01*
X010522Y012100D01*
X010522Y012200D01*
X010422Y012200D01*
X010422Y012540D01*
X010013Y012540D01*
X009901Y012463D02*
X008575Y012463D01*
X008575Y012561D02*
X012124Y012561D01*
X012124Y012463D02*
X011044Y012463D01*
X011052Y012448D02*
X011032Y012482D01*
X011004Y012510D01*
X010970Y012530D01*
X010932Y012540D01*
X010522Y012540D01*
X010522Y012200D01*
X011062Y012200D01*
X011062Y012410D01*
X011052Y012448D01*
X011062Y012364D02*
X012124Y012364D01*
X012124Y012266D02*
X011062Y012266D01*
X011062Y012069D02*
X012124Y012069D01*
X012124Y012167D02*
X010522Y012167D01*
X010522Y012069D02*
X010422Y012069D01*
X010422Y012167D02*
X008575Y012167D01*
X008575Y012069D02*
X009882Y012069D01*
X009882Y011970D02*
X008575Y011970D01*
X008575Y011872D02*
X009887Y011872D01*
X009970Y011773D02*
X008575Y011773D01*
X008575Y011675D02*
X012124Y011675D01*
X012124Y011773D02*
X010975Y011773D01*
X011057Y011872D02*
X012124Y011872D01*
X012124Y011970D02*
X011062Y011970D01*
X010958Y011590D02*
X009987Y011590D01*
X009922Y011526D01*
X009922Y010954D01*
X009987Y010890D01*
X010237Y010890D01*
X010237Y010410D01*
X009987Y010410D01*
X009922Y010346D01*
X009922Y009774D01*
X009987Y009710D01*
X010958Y009710D01*
X011022Y009774D01*
X011022Y010346D01*
X010958Y010410D01*
X010707Y010410D01*
X010707Y010890D01*
X010958Y010890D01*
X011022Y010954D01*
X011022Y011005D01*
X011065Y011005D01*
X011155Y010915D01*
X011557Y010915D01*
X011567Y010905D01*
X011770Y010905D01*
X011914Y011049D01*
X011914Y011251D01*
X011770Y011395D01*
X011567Y011395D01*
X011561Y011389D01*
X011475Y011475D01*
X011022Y011475D01*
X011022Y011526D01*
X010958Y011590D01*
X010972Y011576D02*
X012124Y011576D01*
X012124Y011478D02*
X011022Y011478D01*
X010522Y011773D02*
X010422Y011773D01*
X010422Y011872D02*
X010522Y011872D01*
X010522Y011970D02*
X010422Y011970D01*
X010422Y012266D02*
X010522Y012266D01*
X010522Y012364D02*
X010422Y012364D01*
X010422Y012463D02*
X010522Y012463D01*
X009882Y012364D02*
X008575Y012364D01*
X008575Y012266D02*
X009882Y012266D01*
X009973Y011576D02*
X008575Y011576D01*
X008575Y011478D02*
X009922Y011478D01*
X009922Y011379D02*
X008559Y011379D01*
X007506Y011379D02*
X006752Y011379D01*
X006752Y011281D02*
X009922Y011281D01*
X009922Y011182D02*
X006752Y011182D01*
X006752Y011084D02*
X009922Y011084D01*
X009922Y010985D02*
X006752Y010985D01*
X006752Y010887D02*
X010237Y010887D01*
X010237Y010788D02*
X006752Y010788D01*
X006752Y010690D02*
X010237Y010690D01*
X010237Y010591D02*
X006752Y010591D01*
X006752Y010493D02*
X010237Y010493D01*
X009971Y010394D02*
X006752Y010394D01*
X006752Y010296D02*
X009922Y010296D01*
X009922Y010197D02*
X006752Y010197D01*
X006752Y010099D02*
X009922Y010099D01*
X009922Y010000D02*
X006752Y010000D01*
X006752Y009902D02*
X007489Y009902D01*
X007489Y009904D02*
X007489Y008396D01*
X007554Y008331D01*
X008511Y008331D01*
X008575Y008396D01*
X008575Y009904D01*
X008511Y009969D01*
X007554Y009969D01*
X007489Y009904D01*
X007489Y009803D02*
X006752Y009803D01*
X006752Y009705D02*
X007489Y009705D01*
X007489Y009606D02*
X006752Y009606D01*
X006752Y009508D02*
X007489Y009508D01*
X007489Y009409D02*
X006752Y009409D01*
X006752Y009311D02*
X007489Y009311D01*
X007489Y009212D02*
X006752Y009212D01*
X006752Y009114D02*
X007489Y009114D01*
X007489Y009015D02*
X006752Y009015D01*
X006752Y008917D02*
X007489Y008917D01*
X007489Y008818D02*
X006752Y008818D01*
X006752Y008720D02*
X007489Y008720D01*
X007489Y008621D02*
X006752Y008621D01*
X006752Y008523D02*
X007489Y008523D01*
X007489Y008424D02*
X006752Y008424D01*
X006752Y008326D02*
X009922Y008326D01*
X009922Y008424D02*
X008575Y008424D01*
X008575Y008523D02*
X009922Y008523D01*
X009922Y008526D02*
X009922Y007954D01*
X009987Y007890D01*
X010146Y007890D01*
X010007Y007751D01*
X010007Y007549D01*
X010151Y007405D01*
X010354Y007405D01*
X010497Y007549D01*
X010497Y007563D01*
X010707Y007773D01*
X010707Y007890D01*
X010958Y007890D01*
X011022Y007954D01*
X011022Y008526D01*
X010958Y008590D01*
X009987Y008590D01*
X009922Y008526D01*
X009974Y008770D02*
X010013Y008760D01*
X010422Y008760D01*
X010422Y009100D01*
X009882Y009100D01*
X009882Y008890D01*
X009893Y008852D01*
X009912Y008818D01*
X008575Y008818D01*
X008575Y008720D02*
X012124Y008720D01*
X012124Y008818D02*
X011032Y008818D01*
X011052Y008852D01*
X011062Y008890D01*
X011062Y009100D01*
X010522Y009100D01*
X010522Y008760D01*
X010932Y008760D01*
X010970Y008770D01*
X011004Y008790D01*
X011032Y008818D01*
X011062Y008917D02*
X012124Y008917D01*
X012124Y009015D02*
X011062Y009015D01*
X011062Y009200D02*
X011062Y009410D01*
X011052Y009448D01*
X011032Y009482D01*
X011004Y009510D01*
X010970Y009530D01*
X010932Y009540D01*
X010522Y009540D01*
X010522Y009200D01*
X010422Y009200D01*
X010422Y009100D01*
X010522Y009100D01*
X010522Y009200D01*
X011062Y009200D01*
X011062Y009212D02*
X012124Y009212D01*
X012124Y009114D02*
X010522Y009114D01*
X010522Y009212D02*
X010422Y009212D01*
X010422Y009200D02*
X010422Y009540D01*
X010013Y009540D01*
X009974Y009530D01*
X009940Y009510D01*
X009912Y009482D01*
X009893Y009448D01*
X009882Y009410D01*
X009882Y009200D01*
X010422Y009200D01*
X010422Y009114D02*
X008575Y009114D01*
X008575Y009212D02*
X009882Y009212D01*
X009882Y009311D02*
X008575Y009311D01*
X008575Y009409D02*
X009882Y009409D01*
X009938Y009508D02*
X008575Y009508D01*
X008575Y009606D02*
X012124Y009606D01*
X012124Y009508D02*
X011007Y009508D01*
X011062Y009409D02*
X012124Y009409D01*
X012124Y009311D02*
X011062Y009311D01*
X011022Y009803D02*
X012124Y009803D01*
X012124Y009705D02*
X008575Y009705D01*
X008575Y009803D02*
X009922Y009803D01*
X009922Y009902D02*
X008575Y009902D01*
X008575Y009015D02*
X009882Y009015D01*
X009882Y008917D02*
X008575Y008917D01*
X008575Y008621D02*
X012124Y008621D01*
X012124Y008523D02*
X011022Y008523D01*
X011022Y008424D02*
X012124Y008424D01*
X012124Y008326D02*
X011022Y008326D01*
X011022Y008227D02*
X012124Y008227D01*
X012124Y008129D02*
X011022Y008129D01*
X011022Y008030D02*
X012124Y008030D01*
X012124Y007932D02*
X010999Y007932D01*
X010707Y007833D02*
X012124Y007833D01*
X012124Y007735D02*
X010669Y007735D01*
X010571Y007636D02*
X012124Y007636D01*
X012124Y007538D02*
X010486Y007538D01*
X010388Y007439D02*
X012124Y007439D01*
X012124Y007341D02*
X008250Y007341D01*
X008348Y007242D02*
X012124Y007242D01*
X012124Y007144D02*
X008447Y007144D01*
X008498Y007045D02*
X012124Y007045D01*
X012124Y006947D02*
X008539Y006947D01*
X008580Y006848D02*
X012124Y006848D01*
X012124Y006750D02*
X008592Y006750D01*
X008592Y006651D02*
X012124Y006651D01*
X012124Y006553D02*
X008592Y006553D01*
X008043Y007439D02*
X010117Y007439D01*
X010018Y007538D02*
X006752Y007538D01*
X006752Y007636D02*
X010007Y007636D01*
X010007Y007735D02*
X006752Y007735D01*
X006752Y007833D02*
X010089Y007833D01*
X009945Y007932D02*
X006752Y007932D01*
X006752Y008030D02*
X009922Y008030D01*
X009922Y008129D02*
X006752Y008129D01*
X006752Y008227D02*
X009922Y008227D01*
X009974Y008770D02*
X009940Y008790D01*
X009912Y008818D01*
X010422Y008818D02*
X010522Y008818D01*
X010522Y008917D02*
X010422Y008917D01*
X010422Y009015D02*
X010522Y009015D01*
X010522Y009311D02*
X010422Y009311D01*
X010422Y009409D02*
X010522Y009409D01*
X010522Y009508D02*
X010422Y009508D01*
X011022Y009902D02*
X012124Y009902D01*
X012124Y010000D02*
X011022Y010000D01*
X011022Y010099D02*
X012124Y010099D01*
X012124Y010197D02*
X011022Y010197D01*
X011022Y010296D02*
X012124Y010296D01*
X012124Y010394D02*
X010974Y010394D01*
X010707Y010493D02*
X012124Y010493D01*
X012124Y010591D02*
X010707Y010591D01*
X010707Y010690D02*
X012124Y010690D01*
X012124Y010788D02*
X010707Y010788D01*
X010707Y010887D02*
X012124Y010887D01*
X012124Y010985D02*
X011850Y010985D01*
X011914Y011084D02*
X012124Y011084D01*
X012124Y011182D02*
X011914Y011182D01*
X011885Y011281D02*
X012124Y011281D01*
X012124Y011379D02*
X011786Y011379D01*
X011085Y010985D02*
X011022Y010985D01*
X013594Y011576D02*
X014486Y011576D01*
X014486Y011582D02*
X014486Y011582D01*
X014486Y011675D02*
X013594Y011675D01*
X013594Y011773D02*
X014486Y011773D01*
X014486Y011872D02*
X013594Y011872D01*
X013594Y011970D02*
X014486Y011970D01*
X014487Y012069D02*
X013594Y012069D01*
X013594Y012167D02*
X014487Y012167D01*
X014487Y012266D02*
X013594Y012266D01*
X013674Y012364D02*
X014487Y012364D01*
X014487Y012463D02*
X013741Y012463D01*
X013782Y012561D02*
X014487Y012561D01*
X014487Y012660D02*
X013784Y012660D01*
X013774Y012758D02*
X014487Y012758D01*
X014487Y012857D02*
X013733Y012857D01*
X013655Y012955D02*
X014487Y012955D01*
X014767Y012955D02*
X015612Y012955D01*
X015612Y012857D02*
X014767Y012857D01*
X014767Y012758D02*
X015612Y012758D01*
X015612Y012660D02*
X014767Y012660D01*
X014767Y012561D02*
X015612Y012561D01*
X015612Y012463D02*
X014767Y012463D01*
X014767Y012364D02*
X015612Y012364D01*
X015612Y012266D02*
X014767Y012266D01*
X014767Y012167D02*
X015612Y012167D01*
X015612Y012069D02*
X014767Y012069D01*
X014766Y011970D02*
X015612Y011970D01*
X015612Y011872D02*
X014766Y011872D01*
X014766Y011773D02*
X015612Y011773D01*
X015612Y011675D02*
X014766Y011675D01*
X014766Y011576D02*
X015612Y011576D01*
X015612Y011478D02*
X014992Y011478D01*
X014992Y011379D02*
X015135Y011379D01*
X015370Y011379D02*
X015612Y011379D01*
X015612Y011281D02*
X015468Y011281D01*
X015497Y011182D02*
X015612Y011182D01*
X015612Y011084D02*
X015497Y011084D01*
X015434Y010985D02*
X015612Y010985D01*
X015612Y010887D02*
X014992Y010887D01*
X014992Y010985D02*
X015071Y010985D01*
X014971Y010788D02*
X015612Y010788D01*
X015612Y010690D02*
X014113Y010690D01*
X014113Y010591D02*
X015612Y010591D01*
X015612Y010493D02*
X014113Y010493D01*
X014113Y010394D02*
X015612Y010394D01*
X015612Y010296D02*
X014113Y010296D01*
X014113Y010197D02*
X015612Y010197D01*
X015612Y010099D02*
X014113Y010099D01*
X014235Y010000D02*
X014270Y010000D01*
X014260Y009991D02*
X014260Y009309D01*
X014325Y009245D01*
X014928Y009245D01*
X014992Y009309D01*
X014992Y009510D01*
X015046Y009510D01*
X015151Y009405D01*
X015354Y009405D01*
X015497Y009549D01*
X015497Y009751D01*
X015354Y009895D01*
X015151Y009895D01*
X015046Y009790D01*
X014992Y009790D01*
X014992Y009991D01*
X014928Y010055D01*
X014325Y010055D01*
X014260Y009991D01*
X014260Y009902D02*
X014244Y009902D01*
X014244Y009803D02*
X014260Y009803D01*
X014260Y009705D02*
X014244Y009705D01*
X014244Y009606D02*
X014260Y009606D01*
X014260Y009508D02*
X014244Y009508D01*
X014244Y009409D02*
X014260Y009409D01*
X014260Y009311D02*
X014244Y009311D01*
X014113Y009212D02*
X015612Y009212D01*
X015612Y009114D02*
X014113Y009114D01*
X014113Y009015D02*
X015612Y009015D01*
X015612Y008917D02*
X014113Y008917D01*
X014113Y008818D02*
X015612Y008818D01*
X015612Y008720D02*
X014113Y008720D01*
X014113Y008621D02*
X015612Y008621D01*
X015612Y008523D02*
X014961Y008523D01*
X014992Y008424D02*
X015612Y008424D01*
X015581Y008326D02*
X014992Y008326D01*
X014292Y008523D02*
X014213Y008523D01*
X014244Y008424D02*
X014260Y008424D01*
X014260Y008326D02*
X014244Y008326D01*
X014244Y008227D02*
X014260Y008227D01*
X014260Y008129D02*
X014244Y008129D01*
X014244Y008030D02*
X014260Y008030D01*
X014260Y007932D02*
X014244Y007932D01*
X014244Y007833D02*
X014260Y007833D01*
X014992Y009311D02*
X015612Y009311D01*
X015612Y009409D02*
X015358Y009409D01*
X015456Y009508D02*
X015612Y009508D01*
X015612Y009606D02*
X015497Y009606D01*
X015497Y009705D02*
X015612Y009705D01*
X015612Y009803D02*
X015446Y009803D01*
X015612Y009902D02*
X014992Y009902D01*
X014983Y010000D02*
X015612Y010000D01*
X015059Y009803D02*
X014992Y009803D01*
X014992Y009508D02*
X015048Y009508D01*
X014992Y009409D02*
X015147Y009409D01*
X014282Y010788D02*
X014223Y010788D01*
X014244Y010887D02*
X014260Y010887D01*
X014260Y010985D02*
X014244Y010985D01*
X014244Y011084D02*
X014260Y011084D01*
X014260Y011182D02*
X014244Y011182D01*
X014244Y011281D02*
X014260Y011281D01*
X014260Y011379D02*
X014244Y011379D01*
X014244Y011478D02*
X014260Y011478D01*
X014767Y013054D02*
X015612Y013054D01*
X015612Y013152D02*
X014767Y013152D01*
X014767Y013251D02*
X015612Y013251D01*
X015612Y013349D02*
X014767Y013349D01*
X014767Y013448D02*
X015612Y013448D01*
X015612Y013546D02*
X014767Y013546D01*
X014767Y013645D02*
X015612Y013645D01*
X015612Y013743D02*
X014767Y013743D01*
X014767Y013842D02*
X015612Y013842D01*
X015612Y013940D02*
X014767Y013940D01*
X014767Y014039D02*
X015612Y014039D01*
X015612Y014137D02*
X014767Y014137D01*
X014767Y014236D02*
X015612Y014236D01*
X015612Y014334D02*
X014767Y014334D01*
X014767Y014433D02*
X015612Y014433D01*
X015612Y014531D02*
X014767Y014531D01*
X014767Y014630D02*
X015612Y014630D01*
X015612Y014728D02*
X014767Y014728D01*
X014767Y014827D02*
X015612Y014827D01*
X015612Y014925D02*
X014767Y014925D01*
X014767Y015024D02*
X015612Y015024D01*
X015612Y015122D02*
X014767Y015122D01*
X014767Y015221D02*
X015612Y015221D01*
X015612Y015319D02*
X014767Y015319D01*
X014767Y015418D02*
X015612Y015418D01*
X015612Y015516D02*
X014767Y015516D01*
X014767Y015615D02*
X015612Y015615D01*
X015612Y015713D02*
X014762Y015713D01*
X014767Y015708D02*
X014767Y015708D01*
X014767Y015708D01*
X014685Y015790D02*
X014685Y015790D01*
X014664Y015812D02*
X015612Y015812D01*
X015612Y015910D02*
X014565Y015910D01*
X014467Y016009D02*
X015612Y016009D01*
X015612Y016107D02*
X014392Y016107D01*
X014392Y016206D02*
X015612Y016206D01*
X015612Y016304D02*
X014987Y016304D01*
X014992Y016403D02*
X015612Y016403D01*
X015612Y016501D02*
X014992Y016501D01*
X014992Y016790D02*
X014992Y016991D01*
X014928Y017055D01*
X014392Y017055D01*
X014392Y017092D01*
X014767Y017467D01*
X014767Y017745D01*
X014928Y017745D01*
X014992Y017809D01*
X014992Y018010D01*
X016546Y018010D01*
X016651Y017905D01*
X016809Y017905D01*
X015694Y016790D01*
X014992Y016790D01*
X014992Y016797D02*
X015701Y016797D01*
X015799Y016895D02*
X014992Y016895D01*
X014990Y016994D02*
X015898Y016994D01*
X015996Y017092D02*
X014392Y017092D01*
X014491Y017191D02*
X016095Y017191D01*
X016193Y017289D02*
X014589Y017289D01*
X014688Y017388D02*
X016292Y017388D01*
X016390Y017486D02*
X014767Y017486D01*
X014767Y017585D02*
X016489Y017585D01*
X016587Y017683D02*
X014767Y017683D01*
X014965Y017782D02*
X016686Y017782D01*
X016784Y017880D02*
X014992Y017880D01*
X014992Y017979D02*
X016577Y017979D01*
X016628Y018373D02*
X014992Y018373D01*
X014992Y018471D02*
X019875Y018471D01*
X019777Y018373D02*
X017376Y018373D01*
X017475Y018274D02*
X019678Y018274D01*
X019580Y018176D02*
X017497Y018176D01*
X017497Y018077D02*
X019481Y018077D01*
X019383Y017979D02*
X017427Y017979D01*
X017180Y017880D02*
X019284Y017880D01*
X019186Y017782D02*
X017082Y017782D01*
X016983Y017683D02*
X019112Y017683D01*
X019112Y017708D02*
X019112Y015630D01*
X019054Y015630D01*
X018772Y015349D01*
X018772Y014951D01*
X019054Y014670D01*
X019451Y014670D01*
X019612Y014831D01*
X019612Y014708D01*
X019493Y014588D01*
X019451Y014630D01*
X019054Y014630D01*
X018772Y014349D01*
X018772Y013951D01*
X019054Y013670D01*
X019451Y013670D01*
X019732Y013951D01*
X019732Y014349D01*
X019691Y014390D01*
X019892Y014592D01*
X019892Y014775D01*
X020037Y014630D01*
X020202Y014630D01*
X020202Y015100D01*
X020302Y015100D01*
X020302Y014630D01*
X020468Y014630D01*
X020772Y014935D01*
X020772Y015100D01*
X020302Y015100D01*
X020302Y015200D01*
X020202Y015200D01*
X020202Y015670D01*
X020037Y015670D01*
X019892Y015525D01*
X019892Y017092D01*
X022525Y019725D01*
X022657Y019670D01*
X022848Y019670D01*
X023024Y019743D01*
X023159Y019878D01*
X023232Y020055D01*
X023232Y020245D01*
X023159Y020422D01*
X023024Y020557D01*
X022848Y020630D01*
X022657Y020630D01*
X022480Y020557D01*
X022345Y020422D01*
X022272Y020245D01*
X022272Y020055D01*
X022327Y019923D01*
X019694Y017290D01*
X019612Y017208D01*
X019612Y015469D01*
X019451Y015630D01*
X019392Y015630D01*
X019392Y017592D01*
X021525Y019725D01*
X021657Y019670D01*
X021848Y019670D01*
X022024Y019743D01*
X022159Y019878D01*
X022232Y020055D01*
X022232Y020245D01*
X022159Y020422D01*
X022024Y020557D01*
X021848Y020630D01*
X021657Y020630D01*
X021480Y020557D01*
X021345Y020422D01*
X021272Y020245D01*
X021272Y020055D01*
X021327Y019923D01*
X019112Y017708D01*
X019112Y017585D02*
X016885Y017585D01*
X016786Y017486D02*
X019112Y017486D01*
X019112Y017388D02*
X016688Y017388D01*
X016589Y017289D02*
X019112Y017289D01*
X019112Y017191D02*
X016491Y017191D01*
X016392Y017092D02*
X019112Y017092D01*
X019112Y016994D02*
X016294Y016994D01*
X016195Y016895D02*
X019112Y016895D01*
X019112Y016797D02*
X016097Y016797D01*
X015998Y016698D02*
X019112Y016698D01*
X019112Y016600D02*
X015900Y016600D01*
X015892Y016501D02*
X019112Y016501D01*
X019112Y016403D02*
X015892Y016403D01*
X015892Y016304D02*
X019112Y016304D01*
X019112Y016206D02*
X015892Y016206D01*
X015892Y016107D02*
X019112Y016107D01*
X019112Y016009D02*
X015892Y016009D01*
X015892Y015910D02*
X019112Y015910D01*
X019112Y015812D02*
X015892Y015812D01*
X015892Y015713D02*
X019112Y015713D01*
X019038Y015615D02*
X018467Y015615D01*
X018451Y015630D02*
X018054Y015630D01*
X017772Y015349D01*
X017772Y014951D01*
X018054Y014670D01*
X018451Y014670D01*
X018732Y014951D01*
X018732Y015349D01*
X018451Y015630D01*
X018565Y015516D02*
X018940Y015516D01*
X018841Y015418D02*
X018664Y015418D01*
X018732Y015319D02*
X018772Y015319D01*
X018772Y015221D02*
X018732Y015221D01*
X018732Y015122D02*
X018772Y015122D01*
X018772Y015024D02*
X018732Y015024D01*
X018706Y014925D02*
X018799Y014925D01*
X018897Y014827D02*
X018608Y014827D01*
X018509Y014728D02*
X018996Y014728D01*
X019053Y014630D02*
X018452Y014630D01*
X018451Y014630D02*
X018054Y014630D01*
X017772Y014349D01*
X017772Y013951D01*
X018054Y013670D01*
X018451Y013670D01*
X018732Y013951D01*
X018732Y014349D01*
X018451Y014630D01*
X018550Y014531D02*
X018955Y014531D01*
X018856Y014433D02*
X018649Y014433D01*
X018732Y014334D02*
X018772Y014334D01*
X018772Y014236D02*
X018732Y014236D01*
X018732Y014137D02*
X018772Y014137D01*
X018772Y014039D02*
X018732Y014039D01*
X018721Y013940D02*
X018784Y013940D01*
X018882Y013842D02*
X018623Y013842D01*
X018524Y013743D02*
X018981Y013743D01*
X019524Y013743D02*
X019981Y013743D01*
X020017Y013706D02*
X019772Y013951D01*
X019772Y014349D01*
X020054Y014630D01*
X020451Y014630D01*
X020696Y014385D01*
X021890Y014385D01*
X021892Y014391D01*
X022012Y014510D01*
X022168Y014575D01*
X022337Y014575D01*
X022493Y014510D01*
X022613Y014391D01*
X022677Y014235D01*
X022636Y014334D02*
X022787Y014334D01*
X022877Y014433D02*
X022571Y014433D01*
X022443Y014531D02*
X022976Y014531D01*
X023222Y014531D02*
X023282Y014531D01*
X023282Y014433D02*
X023222Y014433D01*
X023222Y014334D02*
X023282Y014334D01*
X023282Y014236D02*
X023222Y014236D01*
X023222Y014039D02*
X023282Y014039D01*
X023282Y013940D02*
X023222Y013940D01*
X023222Y013842D02*
X023282Y013842D01*
X023282Y013743D02*
X023222Y013743D01*
X023002Y013743D02*
X022380Y013743D01*
X022545Y013842D02*
X022903Y013842D01*
X022805Y013940D02*
X022625Y013940D01*
X022666Y014039D02*
X022787Y014039D01*
X022124Y013743D02*
X020524Y013743D01*
X020487Y013645D02*
X029252Y013645D01*
X029252Y013743D02*
X023503Y013743D01*
X023717Y014334D02*
X027474Y014334D01*
X027433Y014433D02*
X023627Y014433D01*
X023529Y014531D02*
X027412Y014531D01*
X027412Y014630D02*
X020452Y014630D01*
X020550Y014531D02*
X022062Y014531D01*
X021934Y014433D02*
X020649Y014433D01*
X020566Y014728D02*
X027412Y014728D01*
X027416Y014827D02*
X020664Y014827D01*
X020763Y014925D02*
X024645Y014925D01*
X024657Y014920D02*
X024848Y014920D01*
X025024Y014993D01*
X025159Y015128D01*
X025232Y015305D01*
X025232Y015495D01*
X025159Y015672D01*
X025024Y015807D01*
X024848Y015880D01*
X024657Y015880D01*
X024480Y015807D01*
X024345Y015672D01*
X024272Y015495D01*
X024272Y015305D01*
X024345Y015128D01*
X024480Y014993D01*
X024657Y014920D01*
X024860Y014925D02*
X027457Y014925D01*
X027498Y015024D02*
X025055Y015024D01*
X025153Y015122D02*
X027539Y015122D01*
X027635Y015221D02*
X025198Y015221D01*
X025232Y015319D02*
X027733Y015319D01*
X027910Y015418D02*
X025232Y015418D01*
X025224Y015516D02*
X025458Y015516D01*
X025480Y015493D02*
X025657Y015420D01*
X025848Y015420D01*
X026024Y015493D01*
X026159Y015628D01*
X026232Y015805D01*
X026232Y015995D01*
X026159Y016172D01*
X026024Y016307D01*
X025848Y016380D01*
X025657Y016380D01*
X025480Y016307D01*
X025345Y016172D01*
X025272Y015995D01*
X025272Y015805D01*
X025345Y015628D01*
X025480Y015493D01*
X025359Y015615D02*
X025183Y015615D01*
X025118Y015713D02*
X025310Y015713D01*
X025272Y015812D02*
X025013Y015812D01*
X024952Y015918D02*
X025025Y015955D01*
X025091Y016003D01*
X025149Y016061D01*
X025197Y016127D01*
X025234Y016200D01*
X025260Y016278D01*
X025271Y016350D01*
X024802Y016350D01*
X024802Y015881D01*
X024874Y015893D01*
X024952Y015918D01*
X024927Y015910D02*
X025272Y015910D01*
X025278Y016009D02*
X025096Y016009D01*
X025182Y016107D02*
X025319Y016107D01*
X025379Y016206D02*
X025236Y016206D01*
X025264Y016304D02*
X025478Y016304D01*
X025480Y016493D02*
X025657Y016420D01*
X025848Y016420D01*
X026024Y016493D01*
X026159Y016628D01*
X026232Y016805D01*
X026232Y016995D01*
X026159Y017172D01*
X026024Y017307D01*
X025848Y017380D01*
X025657Y017380D01*
X025480Y017307D01*
X025345Y017172D01*
X025272Y016995D01*
X025272Y016805D01*
X025345Y016628D01*
X025480Y016493D01*
X025472Y016501D02*
X025263Y016501D01*
X025260Y016522D02*
X025234Y016600D01*
X025197Y016673D01*
X025149Y016739D01*
X025091Y016797D01*
X025025Y016845D01*
X024952Y016882D01*
X024874Y016907D01*
X024802Y016919D01*
X024802Y016450D01*
X024702Y016450D01*
X024702Y016350D01*
X024234Y016350D01*
X024245Y016278D01*
X024270Y016200D01*
X024308Y016127D01*
X024356Y016061D01*
X024414Y016003D01*
X024480Y015955D01*
X024553Y015918D01*
X024631Y015893D01*
X024702Y015881D01*
X024702Y016350D01*
X024802Y016350D01*
X024802Y016450D01*
X025271Y016450D01*
X025260Y016522D01*
X025234Y016600D02*
X025374Y016600D01*
X025316Y016698D02*
X025179Y016698D01*
X025091Y016797D02*
X025276Y016797D01*
X025272Y016895D02*
X024912Y016895D01*
X024848Y016920D02*
X025024Y016993D01*
X025159Y017128D01*
X025232Y017305D01*
X025232Y017495D01*
X025159Y017672D01*
X025024Y017807D01*
X024848Y017880D01*
X024657Y017880D01*
X024480Y017807D01*
X024345Y017672D01*
X024272Y017495D01*
X024272Y017305D01*
X024345Y017128D01*
X024480Y016993D01*
X024657Y016920D01*
X024848Y016920D01*
X024802Y016895D02*
X024702Y016895D01*
X024702Y016919D02*
X024631Y016907D01*
X024553Y016882D01*
X024480Y016845D01*
X024414Y016797D01*
X024356Y016739D01*
X024308Y016673D01*
X024270Y016600D01*
X024245Y016522D01*
X024234Y016450D01*
X024702Y016450D01*
X024702Y016919D01*
X024593Y016895D02*
X019892Y016895D01*
X019892Y016797D02*
X024414Y016797D01*
X024326Y016698D02*
X019892Y016698D01*
X019892Y016600D02*
X024270Y016600D01*
X024242Y016501D02*
X019892Y016501D01*
X019892Y016403D02*
X024702Y016403D01*
X024702Y016501D02*
X024802Y016501D01*
X024802Y016403D02*
X029252Y016403D01*
X029252Y016501D02*
X026032Y016501D01*
X026131Y016600D02*
X029252Y016600D01*
X029252Y016698D02*
X026188Y016698D01*
X026229Y016797D02*
X029252Y016797D01*
X029252Y016895D02*
X026232Y016895D01*
X026232Y016994D02*
X029252Y016994D01*
X029252Y017092D02*
X026192Y017092D01*
X026141Y017191D02*
X029252Y017191D01*
X029252Y017289D02*
X026042Y017289D01*
X026007Y017486D02*
X029252Y017486D01*
X029252Y017388D02*
X025232Y017388D01*
X025232Y017486D02*
X025497Y017486D01*
X025480Y017493D02*
X025657Y017420D01*
X025848Y017420D01*
X026024Y017493D01*
X026159Y017628D01*
X026232Y017805D01*
X026232Y017995D01*
X026159Y018172D01*
X026024Y018307D01*
X025848Y018380D01*
X025657Y018380D01*
X025480Y018307D01*
X025345Y018172D01*
X025272Y017995D01*
X025272Y017805D01*
X025345Y017628D01*
X025480Y017493D01*
X025389Y017585D02*
X025195Y017585D01*
X025148Y017683D02*
X025323Y017683D01*
X025282Y017782D02*
X025050Y017782D01*
X025272Y017880D02*
X020680Y017880D01*
X020582Y017782D02*
X024455Y017782D01*
X024357Y017683D02*
X020483Y017683D01*
X020385Y017585D02*
X024309Y017585D01*
X024272Y017486D02*
X020286Y017486D01*
X020188Y017388D02*
X024272Y017388D01*
X024279Y017289D02*
X020089Y017289D01*
X019991Y017191D02*
X024320Y017191D01*
X024381Y017092D02*
X019892Y017092D01*
X019892Y016994D02*
X024480Y016994D01*
X024702Y016797D02*
X024802Y016797D01*
X024802Y016698D02*
X024702Y016698D01*
X024702Y016600D02*
X024802Y016600D01*
X024802Y016304D02*
X024702Y016304D01*
X024702Y016206D02*
X024802Y016206D01*
X024802Y016107D02*
X024702Y016107D01*
X024702Y016009D02*
X024802Y016009D01*
X024802Y015910D02*
X024702Y015910D01*
X024578Y015910D02*
X019892Y015910D01*
X019892Y015812D02*
X024492Y015812D01*
X024387Y015713D02*
X019892Y015713D01*
X019892Y015615D02*
X019982Y015615D01*
X020202Y015615D02*
X020302Y015615D01*
X020302Y015670D02*
X020302Y015200D01*
X020772Y015200D01*
X020772Y015365D01*
X020468Y015670D01*
X020302Y015670D01*
X020302Y015516D02*
X020202Y015516D01*
X020202Y015418D02*
X020302Y015418D01*
X020302Y015319D02*
X020202Y015319D01*
X020202Y015221D02*
X020302Y015221D01*
X020302Y015122D02*
X024352Y015122D01*
X024307Y015221D02*
X020772Y015221D01*
X020772Y015319D02*
X024272Y015319D01*
X024272Y015418D02*
X020720Y015418D01*
X020622Y015516D02*
X024281Y015516D01*
X024322Y015615D02*
X020523Y015615D01*
X019892Y016009D02*
X024408Y016009D01*
X024322Y016107D02*
X019892Y016107D01*
X019892Y016206D02*
X024269Y016206D01*
X024241Y016304D02*
X019892Y016304D01*
X019612Y016304D02*
X019392Y016304D01*
X019392Y016206D02*
X019612Y016206D01*
X019612Y016107D02*
X019392Y016107D01*
X019392Y016009D02*
X019612Y016009D01*
X019612Y015910D02*
X019392Y015910D01*
X019392Y015812D02*
X019612Y015812D01*
X019612Y015713D02*
X019392Y015713D01*
X019467Y015615D02*
X019612Y015615D01*
X019612Y015516D02*
X019565Y015516D01*
X020202Y015024D02*
X020302Y015024D01*
X020302Y014925D02*
X020202Y014925D01*
X020202Y014827D02*
X020302Y014827D01*
X020302Y014728D02*
X020202Y014728D01*
X020053Y014630D02*
X019892Y014630D01*
X019892Y014728D02*
X019939Y014728D01*
X019955Y014531D02*
X019831Y014531D01*
X019856Y014433D02*
X019733Y014433D01*
X019732Y014334D02*
X019772Y014334D01*
X019772Y014236D02*
X019732Y014236D01*
X019732Y014137D02*
X019772Y014137D01*
X019772Y014039D02*
X019732Y014039D01*
X019721Y013940D02*
X019784Y013940D01*
X019882Y013842D02*
X019623Y013842D01*
X020487Y013349D02*
X027763Y013349D01*
X027665Y013251D02*
X020487Y013251D01*
X020487Y013152D02*
X027566Y013152D01*
X027510Y013054D02*
X020487Y013054D01*
X020487Y012955D02*
X027470Y012955D01*
X027429Y012857D02*
X020487Y012857D01*
X020487Y012758D02*
X027412Y012758D01*
X027412Y012660D02*
X020487Y012660D01*
X020487Y012561D02*
X027412Y012561D01*
X027421Y012463D02*
X020487Y012463D01*
X020487Y012364D02*
X025618Y012364D01*
X025439Y012266D02*
X020487Y012266D01*
X020487Y012167D02*
X025343Y012167D01*
X025303Y012069D02*
X020487Y012069D01*
X020487Y011970D02*
X025272Y011970D01*
X025272Y011872D02*
X024868Y011872D01*
X025058Y011773D02*
X025285Y011773D01*
X025326Y011675D02*
X025157Y011675D01*
X025199Y011576D02*
X025398Y011576D01*
X025518Y011478D02*
X025232Y011478D01*
X025232Y011379D02*
X025655Y011379D01*
X025454Y011281D02*
X025222Y011281D01*
X025182Y011182D02*
X025356Y011182D01*
X025309Y011084D02*
X025115Y011084D01*
X025005Y010985D02*
X025272Y010985D01*
X024567Y010887D02*
X020487Y010887D01*
X020487Y010985D02*
X024500Y010985D01*
X024390Y011084D02*
X020487Y011084D01*
X020487Y011182D02*
X024323Y011182D01*
X024282Y011281D02*
X020487Y011281D01*
X020487Y011379D02*
X024272Y011379D01*
X024272Y011478D02*
X020487Y011478D01*
X020487Y011576D02*
X024306Y011576D01*
X024348Y011675D02*
X020487Y011675D01*
X020487Y011773D02*
X024447Y011773D01*
X024636Y011872D02*
X020487Y011872D01*
X020487Y010788D02*
X024405Y010788D01*
X024320Y010690D02*
X020487Y010690D01*
X020487Y010591D02*
X024268Y010591D01*
X024241Y010493D02*
X020487Y010493D01*
X020623Y013842D02*
X021960Y013842D01*
X020772Y015024D02*
X024450Y015024D01*
X026047Y015516D02*
X029252Y015516D01*
X029252Y015418D02*
X028594Y015418D01*
X028771Y015319D02*
X029252Y015319D01*
X029252Y015221D02*
X028870Y015221D01*
X028966Y015122D02*
X029252Y015122D01*
X029252Y015024D02*
X029007Y015024D01*
X029048Y014925D02*
X029252Y014925D01*
X029252Y014827D02*
X029088Y014827D01*
X029092Y014728D02*
X029252Y014728D01*
X029252Y014630D02*
X029092Y014630D01*
X029092Y014531D02*
X029252Y014531D01*
X029252Y014433D02*
X029071Y014433D01*
X029031Y014334D02*
X029252Y014334D01*
X029252Y014236D02*
X028990Y014236D01*
X028927Y014137D02*
X029252Y014137D01*
X029252Y014039D02*
X028829Y014039D01*
X028730Y013940D02*
X029252Y013940D01*
X029252Y013842D02*
X028496Y013842D01*
X027462Y012364D02*
X025886Y012364D01*
X026066Y012266D02*
X027502Y012266D01*
X027547Y012167D02*
X026161Y012167D01*
X026202Y012069D02*
X027646Y012069D01*
X027744Y011970D02*
X026232Y011970D01*
X026146Y015615D02*
X029252Y015615D01*
X029252Y015713D02*
X026194Y015713D01*
X026232Y015812D02*
X029252Y015812D01*
X029252Y015910D02*
X026232Y015910D01*
X026227Y016009D02*
X029252Y016009D01*
X029252Y016107D02*
X026186Y016107D01*
X026126Y016206D02*
X029252Y016206D01*
X029252Y016304D02*
X026027Y016304D01*
X025272Y016994D02*
X025025Y016994D01*
X025123Y017092D02*
X025312Y017092D01*
X025364Y017191D02*
X025185Y017191D01*
X025226Y017289D02*
X025463Y017289D01*
X026116Y017585D02*
X029252Y017585D01*
X029252Y017683D02*
X026182Y017683D01*
X026223Y017782D02*
X029252Y017782D01*
X029252Y017880D02*
X028589Y017880D01*
X028728Y017938D02*
X028964Y018174D01*
X029092Y018483D01*
X029092Y018817D01*
X028964Y019126D01*
X028728Y019362D01*
X028419Y019490D01*
X028085Y019490D01*
X027777Y019362D01*
X027540Y019126D01*
X027412Y018817D01*
X027412Y018483D01*
X027540Y018174D01*
X027777Y017938D01*
X028085Y017810D01*
X028419Y017810D01*
X028728Y017938D01*
X028769Y017979D02*
X029252Y017979D01*
X029252Y018077D02*
X028867Y018077D01*
X028965Y018176D02*
X029252Y018176D01*
X029252Y018274D02*
X029006Y018274D01*
X029047Y018373D02*
X029252Y018373D01*
X029252Y018471D02*
X029087Y018471D01*
X029092Y018570D02*
X029252Y018570D01*
X029252Y018668D02*
X029092Y018668D01*
X029092Y018767D02*
X029252Y018767D01*
X029252Y018865D02*
X029072Y018865D01*
X029032Y018964D02*
X029252Y018964D01*
X029252Y019062D02*
X028991Y019062D01*
X028930Y019161D02*
X029242Y019161D01*
X029143Y019259D02*
X028831Y019259D01*
X028733Y019358D02*
X029045Y019358D01*
X028946Y019456D02*
X028501Y019456D01*
X028749Y019653D02*
X022453Y019653D01*
X022355Y019555D02*
X028848Y019555D01*
X028651Y019752D02*
X028033Y019752D01*
X028131Y019850D02*
X028552Y019850D01*
X028454Y019949D02*
X028188Y019949D01*
X028229Y020047D02*
X028355Y020047D01*
X028257Y020146D02*
X028232Y020146D01*
X027764Y020638D02*
X013433Y020638D01*
X013598Y020540D02*
X013963Y020540D01*
X013980Y020557D02*
X013845Y020422D01*
X013772Y020245D01*
X013772Y020055D01*
X013845Y019878D01*
X013980Y019743D01*
X014157Y019670D01*
X014348Y019670D01*
X014524Y019743D01*
X014659Y019878D01*
X014732Y020055D01*
X014732Y020245D01*
X014659Y020422D01*
X014524Y020557D01*
X014348Y020630D01*
X014157Y020630D01*
X013980Y020557D01*
X013865Y020441D02*
X013684Y020441D01*
X013737Y020343D02*
X013813Y020343D01*
X013772Y020244D02*
X013764Y020244D01*
X013772Y020146D02*
X013302Y020146D01*
X013302Y020047D02*
X013202Y020047D01*
X013202Y019949D02*
X013302Y019949D01*
X013302Y019850D02*
X013202Y019850D01*
X013202Y019752D02*
X013302Y019752D01*
X013302Y019653D02*
X013202Y019653D01*
X013099Y019653D02*
X006755Y019653D01*
X006752Y019555D02*
X017459Y019555D01*
X017557Y019653D02*
X013406Y019653D01*
X013589Y019752D02*
X013972Y019752D01*
X013873Y019850D02*
X013677Y019850D01*
X013733Y019949D02*
X013816Y019949D01*
X013775Y020047D02*
X013763Y020047D01*
X013202Y020146D02*
X012732Y020146D01*
X012732Y020055D02*
X012732Y020245D01*
X012659Y020422D01*
X012524Y020557D01*
X012348Y020630D01*
X012157Y020630D01*
X011980Y020557D01*
X011845Y020422D01*
X011772Y020245D01*
X011772Y020055D01*
X011845Y019878D01*
X011980Y019743D01*
X012157Y019670D01*
X012348Y019670D01*
X012524Y019743D01*
X012659Y019878D01*
X012732Y020055D01*
X012729Y020047D02*
X012742Y020047D01*
X012771Y019949D02*
X012688Y019949D01*
X012631Y019850D02*
X012828Y019850D01*
X012916Y019752D02*
X012533Y019752D01*
X012732Y020244D02*
X012741Y020244D01*
X012768Y020343D02*
X012692Y020343D01*
X012640Y020441D02*
X012821Y020441D01*
X012907Y020540D02*
X012542Y020540D01*
X013072Y020638D02*
X007740Y020638D01*
X007642Y020540D02*
X009963Y020540D01*
X009980Y020557D02*
X009845Y020422D01*
X009772Y020245D01*
X009772Y020055D01*
X009845Y019878D01*
X009980Y019743D01*
X010157Y019670D01*
X010348Y019670D01*
X010524Y019743D01*
X010659Y019878D01*
X010732Y020055D01*
X010732Y020245D01*
X010659Y020422D01*
X010524Y020557D01*
X010348Y020630D01*
X010157Y020630D01*
X009980Y020557D01*
X009865Y020441D02*
X007543Y020441D01*
X007445Y020343D02*
X009813Y020343D01*
X009772Y020244D02*
X007346Y020244D01*
X007248Y020146D02*
X009772Y020146D01*
X009775Y020047D02*
X007149Y020047D01*
X007051Y019949D02*
X009816Y019949D01*
X009873Y019850D02*
X006952Y019850D01*
X006854Y019752D02*
X009972Y019752D01*
X010262Y019358D02*
X008233Y019358D01*
X008228Y019362D02*
X007919Y019490D01*
X007585Y019490D01*
X007277Y019362D01*
X007040Y019126D01*
X006912Y018817D01*
X006912Y018483D01*
X007040Y018174D01*
X007277Y017938D01*
X007585Y017810D01*
X007919Y017810D01*
X008228Y017938D01*
X008464Y018174D01*
X008592Y018483D01*
X008592Y018817D01*
X008464Y019126D01*
X008228Y019362D01*
X008331Y019259D02*
X010163Y019259D01*
X010237Y019333D02*
X010237Y019333D01*
X010065Y019161D02*
X008430Y019161D01*
X008491Y019062D02*
X009966Y019062D01*
X009868Y018964D02*
X008532Y018964D01*
X008572Y018865D02*
X009769Y018865D01*
X009671Y018767D02*
X008592Y018767D01*
X008592Y018668D02*
X009572Y018668D01*
X009474Y018570D02*
X008592Y018570D01*
X008587Y018471D02*
X009375Y018471D01*
X009277Y018373D02*
X008547Y018373D01*
X008506Y018274D02*
X009178Y018274D01*
X009194Y018290D02*
X009194Y018290D01*
X009112Y018176D02*
X008465Y018176D01*
X008367Y018077D02*
X009112Y018077D01*
X009112Y017979D02*
X008269Y017979D01*
X008089Y017880D02*
X009112Y017880D01*
X009112Y017782D02*
X006752Y017782D01*
X006752Y017880D02*
X007416Y017880D01*
X007236Y017979D02*
X006752Y017979D01*
X006752Y018077D02*
X007137Y018077D01*
X007040Y018176D02*
X006752Y018176D01*
X006752Y018274D02*
X006999Y018274D01*
X006958Y018373D02*
X006752Y018373D01*
X006752Y018471D02*
X006917Y018471D01*
X006912Y018570D02*
X006752Y018570D01*
X006752Y018668D02*
X006912Y018668D01*
X006912Y018767D02*
X006752Y018767D01*
X006752Y018865D02*
X006932Y018865D01*
X006973Y018964D02*
X006752Y018964D01*
X006752Y019062D02*
X007014Y019062D01*
X007075Y019161D02*
X006752Y019161D01*
X006752Y019259D02*
X007173Y019259D01*
X007272Y019358D02*
X006752Y019358D01*
X006752Y019456D02*
X007503Y019456D01*
X008001Y019456D02*
X017360Y019456D01*
X017348Y019670D02*
X017524Y019743D01*
X017659Y019878D01*
X017732Y020055D01*
X017732Y020245D01*
X017659Y020422D01*
X017524Y020557D01*
X017348Y020630D01*
X017157Y020630D01*
X016980Y020557D01*
X016845Y020422D01*
X016772Y020245D01*
X016772Y020055D01*
X016845Y019878D01*
X016980Y019743D01*
X017157Y019670D01*
X017348Y019670D01*
X017533Y019752D02*
X017656Y019752D01*
X017631Y019850D02*
X017754Y019850D01*
X017816Y019949D02*
X017688Y019949D01*
X017729Y020047D02*
X017775Y020047D01*
X017772Y020146D02*
X017732Y020146D01*
X017732Y020244D02*
X017772Y020244D01*
X017813Y020343D02*
X017692Y020343D01*
X017640Y020441D02*
X017865Y020441D01*
X017963Y020540D02*
X017542Y020540D01*
X016963Y020540D02*
X016542Y020540D01*
X016524Y020557D02*
X016348Y020630D01*
X016157Y020630D01*
X015980Y020557D01*
X015845Y020422D01*
X015772Y020245D01*
X015772Y020055D01*
X015845Y019878D01*
X015980Y019743D01*
X016157Y019670D01*
X016348Y019670D01*
X016524Y019743D01*
X016659Y019878D01*
X016732Y020055D01*
X016732Y020245D01*
X016659Y020422D01*
X016524Y020557D01*
X016640Y020441D02*
X016865Y020441D01*
X016813Y020343D02*
X016692Y020343D01*
X016732Y020244D02*
X016772Y020244D01*
X016772Y020146D02*
X016732Y020146D01*
X016729Y020047D02*
X016775Y020047D01*
X016816Y019949D02*
X016688Y019949D01*
X016631Y019850D02*
X016873Y019850D01*
X016972Y019752D02*
X016533Y019752D01*
X015972Y019752D02*
X015533Y019752D01*
X015524Y019743D02*
X015659Y019878D01*
X015732Y020055D01*
X015732Y020245D01*
X015659Y020422D01*
X015524Y020557D01*
X015348Y020630D01*
X015157Y020630D01*
X014980Y020557D01*
X014845Y020422D01*
X014772Y020245D01*
X014772Y020055D01*
X014845Y019878D01*
X014980Y019743D01*
X015157Y019670D01*
X015348Y019670D01*
X015524Y019743D01*
X015631Y019850D02*
X015873Y019850D01*
X015816Y019949D02*
X015688Y019949D01*
X015729Y020047D02*
X015775Y020047D01*
X015772Y020146D02*
X015732Y020146D01*
X015732Y020244D02*
X015772Y020244D01*
X015813Y020343D02*
X015692Y020343D01*
X015640Y020441D02*
X015865Y020441D01*
X015963Y020540D02*
X015542Y020540D01*
X014963Y020540D02*
X014542Y020540D01*
X014640Y020441D02*
X014865Y020441D01*
X014813Y020343D02*
X014692Y020343D01*
X014732Y020244D02*
X014772Y020244D01*
X014772Y020146D02*
X014732Y020146D01*
X014729Y020047D02*
X014775Y020047D01*
X014816Y019949D02*
X014688Y019949D01*
X014631Y019850D02*
X014873Y019850D01*
X014972Y019752D02*
X014533Y019752D01*
X014219Y018570D02*
X019974Y018570D01*
X020072Y018668D02*
X010968Y018668D01*
X010892Y018570D02*
X013538Y018570D01*
X013530Y018565D02*
X013502Y018537D01*
X013483Y018503D01*
X013472Y018465D01*
X013472Y018200D01*
X013828Y018200D01*
X013828Y018595D01*
X013603Y018595D01*
X013565Y018585D01*
X013530Y018565D01*
X013474Y018471D02*
X010892Y018471D01*
X010892Y018373D02*
X011139Y018373D01*
X010948Y018274D02*
X010892Y018274D01*
X010612Y018274D02*
X009574Y018274D01*
X009476Y018176D02*
X010612Y018176D01*
X010612Y018077D02*
X009392Y018077D01*
X009392Y017979D02*
X010612Y017979D01*
X010612Y017880D02*
X010456Y017880D01*
X010302Y017880D02*
X010202Y017880D01*
X010202Y017919D02*
X010131Y017907D01*
X010053Y017882D01*
X009980Y017845D01*
X009914Y017797D01*
X009856Y017739D01*
X009808Y017673D01*
X009770Y017600D01*
X009745Y017522D01*
X009734Y017450D01*
X010202Y017450D01*
X010202Y017919D01*
X010202Y017782D02*
X010302Y017782D01*
X010302Y017683D02*
X010202Y017683D01*
X010202Y017585D02*
X010302Y017585D01*
X010302Y017486D02*
X010202Y017486D01*
X010202Y017388D02*
X009392Y017388D01*
X009392Y017486D02*
X009740Y017486D01*
X009766Y017585D02*
X009392Y017585D01*
X009392Y017683D02*
X009815Y017683D01*
X009899Y017782D02*
X009392Y017782D01*
X009392Y017880D02*
X010049Y017880D01*
X010606Y017782D02*
X010612Y017782D01*
X010892Y017486D02*
X010997Y017486D01*
X010892Y017388D02*
X014292Y017388D01*
X014390Y017486D02*
X011507Y017486D01*
X011616Y017585D02*
X014487Y017585D01*
X014487Y017683D02*
X011682Y017683D01*
X011723Y017782D02*
X013491Y017782D01*
X013472Y017880D02*
X011732Y017880D01*
X011732Y017979D02*
X013472Y017979D01*
X013472Y018077D02*
X011699Y018077D01*
X011656Y018176D02*
X013828Y018176D01*
X013828Y018274D02*
X013928Y018274D01*
X013928Y018373D02*
X013828Y018373D01*
X013828Y018471D02*
X013928Y018471D01*
X013928Y018570D02*
X013828Y018570D01*
X013472Y018373D02*
X011366Y018373D01*
X011557Y018274D02*
X013472Y018274D01*
X013828Y018077D02*
X013928Y018077D01*
X013928Y017979D02*
X013828Y017979D01*
X013828Y017880D02*
X013928Y017880D01*
X013928Y017782D02*
X013828Y017782D01*
X014265Y017782D02*
X014288Y017782D01*
X014193Y017289D02*
X011542Y017289D01*
X011641Y017191D02*
X014112Y017191D01*
X013928Y017092D02*
X013828Y017092D01*
X013828Y017095D02*
X013603Y017095D01*
X013565Y017085D01*
X013530Y017065D01*
X013502Y017037D01*
X013483Y017003D01*
X013472Y016965D01*
X013472Y016700D01*
X013828Y016700D01*
X013828Y017095D01*
X013828Y016994D02*
X013928Y016994D01*
X013928Y016895D02*
X013828Y016895D01*
X013828Y016797D02*
X013928Y016797D01*
X013828Y016698D02*
X012537Y016698D01*
X012594Y016600D02*
X013472Y016600D01*
X013472Y016501D02*
X012594Y016501D01*
X012594Y016403D02*
X013472Y016403D01*
X013481Y016304D02*
X012594Y016304D01*
X012594Y016206D02*
X013600Y016206D01*
X013828Y016206D02*
X013928Y016206D01*
X013928Y016304D02*
X013828Y016304D01*
X013828Y016403D02*
X013928Y016403D01*
X013928Y016501D02*
X013828Y016501D01*
X013828Y016600D02*
X013928Y016600D01*
X013472Y016797D02*
X012438Y016797D01*
X012456Y016779D02*
X012456Y016779D01*
X012340Y016895D02*
X013472Y016895D01*
X013480Y016994D02*
X012241Y016994D01*
X012143Y017092D02*
X013591Y017092D01*
X014112Y016107D02*
X012594Y016107D01*
X012594Y016009D02*
X014112Y016009D01*
X014169Y015910D02*
X012594Y015910D01*
X012594Y015812D02*
X014268Y015812D01*
X014366Y015713D02*
X012594Y015713D01*
X012594Y015615D02*
X014465Y015615D01*
X014487Y015516D02*
X012594Y015516D01*
X012594Y015418D02*
X014487Y015418D01*
X014487Y015319D02*
X012594Y015319D01*
X012594Y015221D02*
X014487Y015221D01*
X014487Y015122D02*
X012594Y015122D01*
X012594Y015024D02*
X014487Y015024D01*
X014487Y014925D02*
X012594Y014925D01*
X012594Y014827D02*
X014487Y014827D01*
X014487Y014728D02*
X012594Y014728D01*
X012594Y014630D02*
X014487Y014630D01*
X014487Y014531D02*
X012594Y014531D01*
X012594Y014433D02*
X014487Y014433D01*
X014487Y014334D02*
X012594Y014334D01*
X012594Y014236D02*
X014487Y014236D01*
X014487Y013546D02*
X013824Y013546D01*
X013814Y013448D02*
X014487Y013448D01*
X014487Y013349D02*
X013715Y013349D01*
X013617Y013251D02*
X014487Y013251D01*
X015892Y013743D02*
X016981Y013743D01*
X017054Y013670D02*
X017451Y013670D01*
X017732Y013951D01*
X017732Y014349D01*
X017451Y014630D01*
X017054Y014630D01*
X016772Y014349D01*
X016772Y013951D01*
X017054Y013670D01*
X016882Y013842D02*
X015892Y013842D01*
X015892Y013940D02*
X016784Y013940D01*
X016772Y014039D02*
X015892Y014039D01*
X015892Y014137D02*
X016772Y014137D01*
X016772Y014236D02*
X015892Y014236D01*
X015892Y014334D02*
X016772Y014334D01*
X016856Y014433D02*
X015892Y014433D01*
X015892Y014531D02*
X016955Y014531D01*
X017053Y014630D02*
X015892Y014630D01*
X015892Y014728D02*
X016996Y014728D01*
X017054Y014670D02*
X017451Y014670D01*
X017732Y014951D01*
X017732Y015349D01*
X017451Y015630D01*
X017054Y015630D01*
X016772Y015349D01*
X016772Y014951D01*
X017054Y014670D01*
X016897Y014827D02*
X015892Y014827D01*
X015892Y014925D02*
X016799Y014925D01*
X016772Y015024D02*
X015892Y015024D01*
X015892Y015122D02*
X016772Y015122D01*
X016772Y015221D02*
X015892Y015221D01*
X015892Y015319D02*
X016772Y015319D01*
X016841Y015418D02*
X015892Y015418D01*
X015892Y015516D02*
X016940Y015516D01*
X017038Y015615D02*
X015892Y015615D01*
X017467Y015615D02*
X018038Y015615D01*
X017940Y015516D02*
X017565Y015516D01*
X017664Y015418D02*
X017841Y015418D01*
X017772Y015319D02*
X017732Y015319D01*
X017732Y015221D02*
X017772Y015221D01*
X017772Y015122D02*
X017732Y015122D01*
X017732Y015024D02*
X017772Y015024D01*
X017799Y014925D02*
X017706Y014925D01*
X017608Y014827D02*
X017897Y014827D01*
X017996Y014728D02*
X017509Y014728D01*
X017452Y014630D02*
X018053Y014630D01*
X017955Y014531D02*
X017550Y014531D01*
X017649Y014433D02*
X017856Y014433D01*
X017772Y014334D02*
X017732Y014334D01*
X017732Y014236D02*
X017772Y014236D01*
X017772Y014137D02*
X017732Y014137D01*
X017732Y014039D02*
X017772Y014039D01*
X017784Y013940D02*
X017721Y013940D01*
X017623Y013842D02*
X017882Y013842D01*
X017981Y013743D02*
X017524Y013743D01*
X019452Y014630D02*
X019534Y014630D01*
X019509Y014728D02*
X019612Y014728D01*
X019608Y014827D02*
X019612Y014827D01*
X019612Y016403D02*
X019392Y016403D01*
X019392Y016501D02*
X019612Y016501D01*
X019612Y016600D02*
X019392Y016600D01*
X019392Y016698D02*
X019612Y016698D01*
X019612Y016797D02*
X019392Y016797D01*
X019392Y016895D02*
X019612Y016895D01*
X019612Y016994D02*
X019392Y016994D01*
X019392Y017092D02*
X019612Y017092D01*
X019612Y017191D02*
X019392Y017191D01*
X019392Y017289D02*
X019693Y017289D01*
X019792Y017388D02*
X019392Y017388D01*
X019392Y017486D02*
X019890Y017486D01*
X019989Y017585D02*
X019392Y017585D01*
X019483Y017683D02*
X020087Y017683D01*
X020186Y017782D02*
X019582Y017782D01*
X019680Y017880D02*
X020284Y017880D01*
X020383Y017979D02*
X019779Y017979D01*
X019877Y018077D02*
X020481Y018077D01*
X020580Y018176D02*
X019976Y018176D01*
X020074Y018274D02*
X020678Y018274D01*
X020777Y018373D02*
X020173Y018373D01*
X020271Y018471D02*
X020875Y018471D01*
X020974Y018570D02*
X020370Y018570D01*
X020468Y018668D02*
X021072Y018668D01*
X021171Y018767D02*
X020567Y018767D01*
X020665Y018865D02*
X021269Y018865D01*
X021368Y018964D02*
X020764Y018964D01*
X020862Y019062D02*
X021466Y019062D01*
X021565Y019161D02*
X020961Y019161D01*
X021059Y019259D02*
X021663Y019259D01*
X021762Y019358D02*
X021158Y019358D01*
X021256Y019456D02*
X021860Y019456D01*
X021959Y019555D02*
X021355Y019555D01*
X021453Y019653D02*
X022057Y019653D01*
X022033Y019752D02*
X022156Y019752D01*
X022131Y019850D02*
X022254Y019850D01*
X022316Y019949D02*
X022188Y019949D01*
X022229Y020047D02*
X022275Y020047D01*
X022272Y020146D02*
X022232Y020146D01*
X022232Y020244D02*
X022272Y020244D01*
X022313Y020343D02*
X022192Y020343D01*
X022140Y020441D02*
X022365Y020441D01*
X022463Y020540D02*
X022042Y020540D01*
X021463Y020540D02*
X021042Y020540D01*
X021024Y020557D02*
X020848Y020630D01*
X020657Y020630D01*
X020480Y020557D01*
X020345Y020422D01*
X020272Y020245D01*
X020272Y020055D01*
X020345Y019878D01*
X020480Y019743D01*
X020657Y019670D01*
X020848Y019670D01*
X021024Y019743D01*
X021159Y019878D01*
X021232Y020055D01*
X021232Y020245D01*
X021159Y020422D01*
X021024Y020557D01*
X021140Y020441D02*
X021365Y020441D01*
X021313Y020343D02*
X021192Y020343D01*
X021232Y020244D02*
X021272Y020244D01*
X021272Y020146D02*
X021232Y020146D01*
X021229Y020047D02*
X021275Y020047D01*
X021316Y019949D02*
X021188Y019949D01*
X021131Y019850D02*
X021254Y019850D01*
X021156Y019752D02*
X021033Y019752D01*
X021057Y019653D02*
X018953Y019653D01*
X018855Y019555D02*
X020959Y019555D01*
X020860Y019456D02*
X018756Y019456D01*
X018658Y019358D02*
X020762Y019358D01*
X020663Y019259D02*
X018559Y019259D01*
X018461Y019161D02*
X020565Y019161D01*
X020466Y019062D02*
X018362Y019062D01*
X018264Y018964D02*
X020368Y018964D01*
X020269Y018865D02*
X018165Y018865D01*
X018067Y018767D02*
X020171Y018767D01*
X020877Y018077D02*
X025306Y018077D01*
X025272Y017979D02*
X020779Y017979D01*
X020976Y018176D02*
X025349Y018176D01*
X025448Y018274D02*
X021074Y018274D01*
X021173Y018373D02*
X025639Y018373D01*
X025866Y018373D02*
X027458Y018373D01*
X027417Y018471D02*
X021271Y018471D01*
X021370Y018570D02*
X027412Y018570D01*
X027412Y018668D02*
X021468Y018668D01*
X021567Y018767D02*
X027412Y018767D01*
X027432Y018865D02*
X021665Y018865D01*
X021764Y018964D02*
X027473Y018964D01*
X027514Y019062D02*
X021862Y019062D01*
X021961Y019161D02*
X027575Y019161D01*
X027673Y019259D02*
X022059Y019259D01*
X022158Y019358D02*
X027772Y019358D01*
X028003Y019456D02*
X022256Y019456D01*
X023033Y019752D02*
X023472Y019752D01*
X023480Y019743D02*
X023657Y019670D01*
X023848Y019670D01*
X024024Y019743D01*
X024159Y019878D01*
X024232Y020055D01*
X024232Y020245D01*
X024159Y020422D01*
X024024Y020557D01*
X023848Y020630D01*
X023657Y020630D01*
X023480Y020557D01*
X023345Y020422D01*
X023272Y020245D01*
X023272Y020055D01*
X023345Y019878D01*
X023480Y019743D01*
X023373Y019850D02*
X023131Y019850D01*
X023188Y019949D02*
X023316Y019949D01*
X023275Y020047D02*
X023229Y020047D01*
X023232Y020146D02*
X023272Y020146D01*
X023272Y020244D02*
X023232Y020244D01*
X023192Y020343D02*
X023313Y020343D01*
X023365Y020441D02*
X023140Y020441D01*
X023042Y020540D02*
X023463Y020540D01*
X024042Y020540D02*
X024463Y020540D01*
X024480Y020557D02*
X024345Y020422D01*
X024272Y020245D01*
X024272Y020055D01*
X024345Y019878D01*
X024480Y019743D01*
X024657Y019670D01*
X024848Y019670D01*
X025024Y019743D01*
X025159Y019878D01*
X025232Y020055D01*
X025232Y020245D01*
X025159Y020422D01*
X025024Y020557D01*
X024848Y020630D01*
X024657Y020630D01*
X024480Y020557D01*
X024365Y020441D02*
X024140Y020441D01*
X024192Y020343D02*
X024313Y020343D01*
X024272Y020244D02*
X024232Y020244D01*
X024232Y020146D02*
X024272Y020146D01*
X024275Y020047D02*
X024229Y020047D01*
X024188Y019949D02*
X024316Y019949D01*
X024373Y019850D02*
X024131Y019850D01*
X024033Y019752D02*
X024472Y019752D01*
X025033Y019752D02*
X025472Y019752D01*
X025480Y019743D02*
X025657Y019670D01*
X025848Y019670D01*
X026024Y019743D01*
X026159Y019878D01*
X026232Y020055D01*
X026232Y020245D01*
X026159Y020422D01*
X026024Y020557D01*
X025848Y020630D01*
X025657Y020630D01*
X025480Y020557D01*
X025345Y020422D01*
X025272Y020245D01*
X025272Y020055D01*
X025345Y019878D01*
X025480Y019743D01*
X025373Y019850D02*
X025131Y019850D01*
X025188Y019949D02*
X025316Y019949D01*
X025275Y020047D02*
X025229Y020047D01*
X025232Y020146D02*
X025272Y020146D01*
X025272Y020244D02*
X025232Y020244D01*
X025192Y020343D02*
X025313Y020343D01*
X025365Y020441D02*
X025140Y020441D01*
X025042Y020540D02*
X025463Y020540D01*
X026042Y020540D02*
X026463Y020540D01*
X026480Y020557D02*
X026345Y020422D01*
X026272Y020245D01*
X026272Y020055D01*
X026345Y019878D01*
X026480Y019743D01*
X026657Y019670D01*
X026848Y019670D01*
X027024Y019743D01*
X027159Y019878D01*
X027232Y020055D01*
X027232Y020245D01*
X027159Y020422D01*
X027024Y020557D01*
X026848Y020630D01*
X026657Y020630D01*
X026480Y020557D01*
X026365Y020441D02*
X026140Y020441D01*
X026192Y020343D02*
X026313Y020343D01*
X026272Y020244D02*
X026232Y020244D01*
X026232Y020146D02*
X026272Y020146D01*
X026275Y020047D02*
X026229Y020047D01*
X026188Y019949D02*
X026316Y019949D01*
X026373Y019850D02*
X026131Y019850D01*
X026033Y019752D02*
X026472Y019752D01*
X027033Y019752D02*
X027472Y019752D01*
X027373Y019850D02*
X027131Y019850D01*
X027188Y019949D02*
X027316Y019949D01*
X027275Y020047D02*
X027229Y020047D01*
X027232Y020146D02*
X027272Y020146D01*
X027272Y020244D02*
X027232Y020244D01*
X027192Y020343D02*
X027313Y020343D01*
X027365Y020441D02*
X027140Y020441D01*
X027042Y020540D02*
X027463Y020540D01*
X027499Y018274D02*
X026057Y018274D01*
X026156Y018176D02*
X027540Y018176D01*
X027637Y018077D02*
X026199Y018077D01*
X026232Y017979D02*
X027736Y017979D01*
X027916Y017880D02*
X026232Y017880D01*
X020472Y019752D02*
X019533Y019752D01*
X019631Y019850D02*
X020373Y019850D01*
X020316Y019949D02*
X019688Y019949D01*
X019729Y020047D02*
X020275Y020047D01*
X020272Y020146D02*
X019732Y020146D01*
X019732Y020244D02*
X020272Y020244D01*
X020313Y020343D02*
X019692Y020343D01*
X019640Y020441D02*
X020365Y020441D01*
X020463Y020540D02*
X019542Y020540D01*
X018963Y020540D02*
X018542Y020540D01*
X018640Y020441D02*
X018865Y020441D01*
X018813Y020343D02*
X018692Y020343D01*
X018732Y020244D02*
X018772Y020244D01*
X018772Y020146D02*
X018732Y020146D01*
X018729Y020047D02*
X018775Y020047D01*
X018816Y019949D02*
X018688Y019949D01*
X018631Y019850D02*
X018754Y019850D01*
X018656Y019752D02*
X018533Y019752D01*
X018557Y019653D02*
X017953Y019653D01*
X017855Y019555D02*
X018459Y019555D01*
X018360Y019456D02*
X017756Y019456D01*
X017658Y019358D02*
X018262Y019358D01*
X018163Y019259D02*
X017559Y019259D01*
X017461Y019161D02*
X018065Y019161D01*
X017966Y019062D02*
X010362Y019062D01*
X010264Y018964D02*
X010868Y018964D01*
X010769Y018865D02*
X010165Y018865D01*
X010067Y018767D02*
X010671Y018767D01*
X010612Y018668D02*
X009968Y018668D01*
X009870Y018570D02*
X010612Y018570D01*
X010612Y018471D02*
X009771Y018471D01*
X009673Y018373D02*
X010612Y018373D01*
X010892Y017289D02*
X010963Y017289D01*
X010612Y016994D02*
X010578Y016994D01*
X010612Y016895D02*
X010381Y016895D01*
X010302Y016895D02*
X010202Y016895D01*
X010124Y016895D02*
X009705Y016895D01*
X009607Y016994D02*
X009927Y016994D01*
X009833Y017092D02*
X009508Y017092D01*
X009410Y017191D02*
X009775Y017191D01*
X009743Y017289D02*
X009392Y017289D01*
X009112Y017289D02*
X006752Y017289D01*
X006752Y017191D02*
X009112Y017191D01*
X009112Y017092D02*
X006752Y017092D01*
X006752Y016994D02*
X009211Y016994D01*
X009309Y016895D02*
X006752Y016895D01*
X006752Y016797D02*
X009408Y016797D01*
X009506Y016698D02*
X006752Y016698D01*
X006752Y016600D02*
X009605Y016600D01*
X009703Y016501D02*
X006752Y016501D01*
X006752Y016403D02*
X009772Y016403D01*
X009773Y016304D02*
X006752Y016304D01*
X006752Y016206D02*
X009813Y016206D01*
X009866Y016107D02*
X006752Y016107D01*
X006752Y016009D02*
X009965Y016009D01*
X009992Y015812D02*
X006752Y015812D01*
X006752Y015910D02*
X010772Y015910D01*
X010772Y015812D02*
X010513Y015812D01*
X010524Y015807D02*
X010348Y015880D01*
X010157Y015880D01*
X009980Y015807D01*
X009845Y015672D01*
X009772Y015495D01*
X009772Y015305D01*
X009845Y015128D01*
X009980Y014993D01*
X010157Y014920D01*
X010348Y014920D01*
X010524Y014993D01*
X010659Y015128D01*
X010732Y015305D01*
X010732Y015495D01*
X010659Y015672D01*
X010524Y015807D01*
X010618Y015713D02*
X010810Y015713D01*
X010859Y015615D02*
X010683Y015615D01*
X010724Y015516D02*
X010958Y015516D01*
X010732Y015418D02*
X012124Y015418D01*
X012124Y015516D02*
X011547Y015516D01*
X011646Y015615D02*
X012124Y015615D01*
X012124Y015713D02*
X011694Y015713D01*
X011732Y015812D02*
X012124Y015812D01*
X012124Y015910D02*
X011732Y015910D01*
X011727Y016009D02*
X012124Y016009D01*
X012124Y016107D02*
X011686Y016107D01*
X011626Y016206D02*
X012124Y016206D01*
X012124Y016304D02*
X011527Y016304D01*
X011532Y016501D02*
X012069Y016501D01*
X012124Y016403D02*
X010892Y016403D01*
X010892Y016501D02*
X010972Y016501D01*
X010978Y016304D02*
X010892Y016304D01*
X010696Y016009D02*
X010540Y016009D01*
X009887Y015713D02*
X006752Y015713D01*
X006752Y015615D02*
X009822Y015615D01*
X009781Y015516D02*
X006752Y015516D01*
X006752Y015418D02*
X007410Y015418D01*
X007277Y015362D02*
X007040Y015126D01*
X006912Y014817D01*
X006912Y014483D01*
X007040Y014174D01*
X007277Y013938D01*
X007585Y013810D01*
X007919Y013810D01*
X008228Y013938D01*
X008464Y014174D01*
X008592Y014483D01*
X008592Y014817D01*
X008464Y015126D01*
X008228Y015362D01*
X007919Y015490D01*
X007585Y015490D01*
X007277Y015362D01*
X007233Y015319D02*
X006752Y015319D01*
X006752Y015221D02*
X007135Y015221D01*
X007039Y015122D02*
X006752Y015122D01*
X006752Y015024D02*
X006998Y015024D01*
X006957Y014925D02*
X006752Y014925D01*
X006752Y014827D02*
X006916Y014827D01*
X006912Y014728D02*
X006752Y014728D01*
X006752Y014630D02*
X006912Y014630D01*
X006912Y014531D02*
X006752Y014531D01*
X006752Y014433D02*
X006933Y014433D01*
X006974Y014334D02*
X006752Y014334D01*
X006752Y014236D02*
X007015Y014236D01*
X007077Y014137D02*
X006752Y014137D01*
X006752Y014039D02*
X007176Y014039D01*
X007274Y013940D02*
X006752Y013940D01*
X006752Y013842D02*
X007509Y013842D01*
X007996Y013842D02*
X012124Y013842D01*
X012124Y013940D02*
X008230Y013940D01*
X008329Y014039D02*
X012124Y014039D01*
X012124Y014137D02*
X008427Y014137D01*
X008490Y014236D02*
X012124Y014236D01*
X012124Y014334D02*
X008531Y014334D01*
X008571Y014433D02*
X012124Y014433D01*
X012124Y014531D02*
X008592Y014531D01*
X008592Y014630D02*
X012124Y014630D01*
X012124Y014728D02*
X008592Y014728D01*
X008588Y014827D02*
X012124Y014827D01*
X012124Y014925D02*
X010360Y014925D01*
X010145Y014925D02*
X008548Y014925D01*
X008507Y015024D02*
X009950Y015024D01*
X009852Y015122D02*
X008466Y015122D01*
X008370Y015221D02*
X009807Y015221D01*
X009772Y015319D02*
X008271Y015319D01*
X008094Y015418D02*
X009772Y015418D01*
X010555Y015024D02*
X012124Y015024D01*
X012124Y015122D02*
X010653Y015122D01*
X010698Y015221D02*
X012124Y015221D01*
X012124Y015319D02*
X010732Y015319D01*
X011631Y016600D02*
X011970Y016600D01*
X010612Y016797D02*
X010535Y016797D01*
X010302Y016994D02*
X010202Y016994D01*
X010202Y017092D02*
X010302Y017092D01*
X010302Y017191D02*
X010202Y017191D01*
X010202Y017289D02*
X010302Y017289D01*
X009970Y016797D02*
X009804Y016797D01*
X009112Y017388D02*
X006752Y017388D01*
X006752Y017486D02*
X009112Y017486D01*
X009112Y017585D02*
X006752Y017585D01*
X006752Y017683D02*
X009112Y017683D01*
X010980Y019743D02*
X011157Y019670D01*
X011348Y019670D01*
X011524Y019743D01*
X011659Y019878D01*
X011732Y020055D01*
X011732Y020245D01*
X011659Y020422D01*
X011524Y020557D01*
X011348Y020630D01*
X011157Y020630D01*
X010980Y020557D01*
X010845Y020422D01*
X010772Y020245D01*
X010772Y020055D01*
X010845Y019878D01*
X010980Y019743D01*
X010972Y019752D02*
X010533Y019752D01*
X010631Y019850D02*
X010873Y019850D01*
X010816Y019949D02*
X010688Y019949D01*
X010729Y020047D02*
X010775Y020047D01*
X010772Y020146D02*
X010732Y020146D01*
X010732Y020244D02*
X010772Y020244D01*
X010813Y020343D02*
X010692Y020343D01*
X010640Y020441D02*
X010865Y020441D01*
X010963Y020540D02*
X010542Y020540D01*
X011542Y020540D02*
X011963Y020540D01*
X011865Y020441D02*
X011640Y020441D01*
X011692Y020343D02*
X011813Y020343D01*
X011772Y020244D02*
X011732Y020244D01*
X011732Y020146D02*
X011772Y020146D01*
X011775Y020047D02*
X011729Y020047D01*
X011688Y019949D02*
X011816Y019949D01*
X011873Y019850D02*
X011631Y019850D01*
X011533Y019752D02*
X011972Y019752D01*
X016876Y018373D02*
X017128Y018373D01*
X017030Y018274D02*
X016975Y018274D01*
X016997Y018176D02*
X017007Y018176D01*
X012124Y013743D02*
X006752Y013743D01*
X006752Y013645D02*
X012124Y013645D01*
X012124Y013546D02*
X006752Y013546D01*
X006752Y013448D02*
X012124Y013448D01*
X007540Y012955D02*
X006752Y012955D01*
X006752Y012857D02*
X007489Y012857D01*
X007489Y012758D02*
X006752Y012758D01*
X006752Y012660D02*
X007489Y012660D01*
X007489Y012561D02*
X006752Y012561D01*
X006752Y012463D02*
X007489Y012463D01*
X007489Y012364D02*
X006752Y012364D01*
X006752Y012266D02*
X007489Y012266D01*
X007489Y012167D02*
X006752Y012167D01*
X006752Y012069D02*
X007489Y012069D01*
X007489Y011970D02*
X006752Y011970D01*
X006752Y011872D02*
X007489Y011872D01*
X007489Y011773D02*
X006752Y011773D01*
X006752Y011675D02*
X007489Y011675D01*
X007489Y011576D02*
X006752Y011576D01*
X006752Y011478D02*
X007489Y011478D01*
X007462Y007439D02*
X006752Y007439D01*
X006752Y007341D02*
X007255Y007341D01*
X007156Y007242D02*
X006752Y007242D01*
X006752Y007144D02*
X007058Y007144D01*
X007007Y007045D02*
X006752Y007045D01*
X006752Y006947D02*
X006966Y006947D01*
X006925Y006848D02*
X006752Y006848D01*
X006752Y006750D02*
X006912Y006750D01*
X006912Y006651D02*
X006752Y006651D01*
X006752Y006553D02*
X006912Y006553D01*
X006924Y006454D02*
X006752Y006454D01*
X006752Y006356D02*
X006965Y006356D01*
X007006Y006257D02*
X006752Y006257D01*
X006752Y006159D02*
X007056Y006159D01*
X007154Y006060D02*
X006752Y006060D01*
X006752Y005962D02*
X007253Y005962D01*
D20*
X010252Y007650D03*
X009252Y008650D03*
X009252Y009150D03*
X009252Y009650D03*
X011669Y011150D03*
X011752Y011650D03*
X011752Y012150D03*
X011752Y012650D03*
X013252Y011150D03*
X015252Y011150D03*
X015252Y009650D03*
X015752Y008150D03*
X011752Y008650D03*
X011752Y009150D03*
X011752Y009650D03*
X009252Y011650D03*
X009252Y012150D03*
X009252Y012650D03*
X014877Y017400D03*
X016752Y018150D03*
X017252Y018150D03*
X016752Y004650D03*
X017752Y003650D03*
D21*
X015752Y008150D02*
X014626Y008150D01*
X015752Y008150D02*
X015752Y016650D01*
X017252Y018150D01*
X016752Y018150D02*
X014626Y018150D01*
X014627Y018149D01*
X014627Y017525D01*
X014252Y017150D01*
X014252Y016025D01*
X014627Y015650D01*
X014626Y011524D01*
X014626Y011150D01*
X015252Y011150D01*
X015252Y009650D02*
X014626Y009650D01*
X019252Y014150D02*
X019752Y014650D01*
X019752Y017150D01*
X022752Y020150D01*
X021752Y020150D02*
X019252Y017650D01*
X019252Y015150D01*
X015752Y016650D02*
X014626Y016650D01*
X014752Y016650D01*
X011252Y015900D02*
X011002Y015900D01*
X010752Y016150D01*
X010752Y018650D01*
X011002Y018900D01*
X018002Y018900D01*
X019252Y020150D01*
X018252Y020150D02*
X017377Y019275D01*
X010377Y019275D01*
X009252Y018150D01*
X009252Y017150D01*
X010002Y016400D01*
X010252Y016400D01*
X024752Y005400D02*
X026502Y005400D01*
X027252Y004650D01*
X027252Y001650D01*
X027752Y001150D01*
X026752Y001150D02*
X026752Y004650D01*
X026502Y004900D01*
X025752Y004900D01*
M02*
