%
M48
M72
T01C0.0130
T02C0.0320
T03C0.0400
T04C0.1280
%
T01
X10252Y7650
X9252Y8650
X9252Y9150
X9252Y9650
X11669Y11150
X11752Y11650
X11752Y12150
X11752Y12650
X13252Y11150
X15252Y11150
X15252Y9650
X15752Y8150
X11752Y8650
X11752Y9150
X11752Y9650
X9252Y11650
X9252Y12150
X9252Y12650
X14877Y17400
X16752Y18150
X17252Y18150
X16752Y4650
X17752Y3650
T02
X13359Y12650
X13359Y13650
X22252Y14150
X23252Y14150
T03
X24752Y15400
X25752Y15900
X24752Y16400
X25752Y16900
X24752Y17400
X25752Y17900
X25752Y20150
X24752Y20150
X23752Y20150
X22752Y20150
X21752Y20150
X20752Y20150
X19252Y20150
X18252Y20150
X17252Y20150
X16252Y20150
X15252Y20150
X14252Y20150
X13252Y20150
X12252Y20150
X11252Y20150
X10252Y20150
X11252Y17900
X10252Y17400
X11252Y16900
X10252Y16400
X11252Y15900
X10252Y15400
X17252Y15150
X18252Y15150
X19252Y15150
X19252Y14150
X18252Y14150
X17252Y14150
X20252Y14150
X20252Y15150
X24752Y11400
X25752Y10900
X24752Y10400
X25752Y9900
X24752Y9400
X25752Y11900
X25752Y5900
X24752Y5400
X25752Y4900
X24752Y4400
X25752Y3900
X24752Y3400
X24752Y1150
X23752Y1150
X22752Y1150
X20752Y1150
X19752Y1150
X18752Y1150
X17752Y1150
X16752Y1150
X15752Y1150
X14752Y1150
X13752Y1150
X10252Y3400
X11252Y3900
X10252Y4400
X11252Y4900
X10252Y5400
X11252Y5900
X25752Y1150
X26752Y1150
X27752Y1150
X27752Y20150
X26752Y20150
T04
X7752Y2650
X7752Y6650
X7752Y14650
X7752Y18650
X28252Y18650
X28252Y14650
X28252Y12650
X28252Y8650
X28252Y6650
X28252Y2650
M30
